<svg width="83.922mm" height="67.802mm" version="1.1" viewBox="0 0 83.922 67.802" xmlns="http://www.w3.org/2000/svg">
 <title>handshake</title>
 <g transform="translate(111.25 -95.427)">
  <g transform="matrix(.26458 0 0 .26458 -164.54 75.606)">
   <g stroke-opacity="0">
    <path d="m509.99 232.26c-1.2686-1.5586-6.6531-7.7241-11.965-13.701-9.5588-10.755-9.7287-10.918-16.413-15.749-3.7149-2.6852-13.38-9.7306-21.478-15.657-8.0979-5.9259-18.699-13.592-23.557-17.036-8.0807-5.7274-16.421-12.111-29.209-22.355-4.4751-3.585-5.2365-4.0216-10.937-6.2719-9.9803-3.9394-21.633-9.3206-26.448-12.214l-4.499-2.7032-6.7307 0.0473c-3.7019 0.026-9.1878 0.16772-12.191 0.31486l-5.4602 0.26755-1.1776 2.4595c-0.64767 1.3527-2.7007 4.3403-4.5623 6.639l-3.3847 4.1795-7.0146 3.5052c-4.8535 2.4252-8.9829 4.1253-13.403 5.5181l-6.3886 2.013-16.18-4.1221-4.9464-11.608 3.707-4.7126c7.7826-9.8938 21.332-29.306 23.623-33.842 0.861-1.7056 2.2409-3.3461 4.6262-5.5 5.401-4.8769 5.8801-5.0116 28.661-8.0619 10.527-1.4096 24.608-3.4012 31.29-4.4257l12.15-1.8628 2.8692 1.6757c5.1249 2.9931 17.125 7.2188 53.179 18.727 7.5439 2.4079 10.221 3.5131 18.334 7.5672 5.2248 2.6111 10.809 5.1463 12.41 5.6337l2.91 0.88627 4.6859 9.1382c6.959 13.571 13.392 28.525 17.593 40.899 5.6635 16.68 11.603 38.027 15.183 54.565 1.723 7.9608 3.1328 14.644 3.1328 14.851 0 0.30879-5.5046 3.7928-5.9628 3.774-0.0753-3e-3 -1.1749-1.2809-2.4436-2.8395z"/>
    <path d="m464.34 258.15c-5.2957-4.174-8.5001-6.8334-12.789-10.614-2.638-2.3252-8.601-7.5038-13.251-11.508-8.9796-7.7324-12.615-11.389-10.741-10.806 5.5531 1.7292 23.266 13.524 36.151 24.072 4.743 3.8829 8.6237 7.324 8.6237 7.6469 0 0.56639-4.3712 2.512-5.679 2.5278-0.34705 4e-3 -1.3882-0.58922-2.3137-1.3187z"/>
    <path d="m318.37 323.83c-3.9333-0.43091-7.3822-0.83544-7.6644-0.89897-0.28215-0.0635-2.8445-2.0469-5.694-4.4075l-5.181-4.292-2.7778-9.6348 2.8662-6.6274 2.8662-6.6274 2.1134-0.95631c1.1624-0.52597 3.2665-1.1901 4.6758-1.4759 2.5398-0.515 2.6066-0.50349 7.572 1.3037 4.3244 1.5739 5.447 2.1895 8.2073 4.5004 4.3788 3.6658 7.7714 8.9641 8.364 13.062 0.22591 1.5622 0.41449 3.043 0.41907 3.2907 5e-3 0.24769 1.2475 1.4434 2.7621 2.6571l2.7538 2.2068-2.8073 2.3011c-3.2847 2.6924-9.5592 6.498-10.601 6.4296-0.3978-0.0261-3.9414-0.40009-7.8746-0.831z"/>
    <path d="m269.5 298.14c-2.1213-2.1632-5.2227-5.9207-6.8922-8.3501l-3.0353-4.417 0.85615-4.8548c0.77715-4.4069 1.0967-5.2917 3.463-9.5903 2.4628-4.4739 2.8016-4.8824 6.1325-7.3948l3.5257-2.6594 3.7118-0.29038c4.3088-0.33707 6.5884 0.30471 11.626 3.273 2.6321 1.551 3.1729 2.1187 5.6556 5.9368 2.4689 3.7968 2.8438 4.6664 3.725 8.6388 0.86823 3.9143 0.93182 4.824 0.55866 7.9927-0.23869 2.0269-1.0173 5.2027-1.7977 7.3321-1.286 3.5093-1.5438 3.8878-3.9182 5.7544l-2.5416 1.998-17.212 0.56413z"/>
    <path d="m233.16 279.18-5.2842-3.0319-7.0997-9.5276-0.85593-5.7692c-0.73713-4.9685-0.78811-6.2071-0.36733-8.9242 0.26872-1.7353 0.61151-4.0098 0.76175-5.0546 0.24705-1.718 0.45324-1.9951 2.1576-2.8992l1.8844-0.99968 13.146 3.9931 4.7219 3.7301c4.7736 3.771 6.8793 6.1926 10.509 12.086 1.9614 3.1845 4.9184 5.6516 7.6691 6.3983 1.1106 0.30151 2.0861 0.60064 2.1677 0.66474 0.0816 0.0641-0.46148 1.2259-1.2069 2.5818-1.3308 2.4208-1.4246 2.4934-5.1964 4.0231-3.6029 1.4612-16.576 5.7668-17.364 5.7631-0.19761-9.3e-4 -2.7372-1.366-5.6435-3.0335z"/>
    <path d="m361.59 327.87c-8.2911-3.3162-7.9076-3.0772-20.14-12.553l-5.9472-4.6069-0.42054-3.2942c-0.37913-2.9698-0.66339-3.6724-2.8869-7.1353-1.7642-2.7476-3.3892-4.6326-5.7079-6.6212-2.9221-2.5061-3.7926-2.9828-8.8341-4.8375l-5.5925-2.0575-2.9534 0.68295c-1.6244 0.37563-3.8987 1.1209-5.054 1.6562-1.6393 0.75951-2.3107 0.8795-3.0573 0.54638-0.91809-0.40966-0.94538-0.56562-0.67725-3.8702 0.22305-2.7489 0.0909-4.3252-0.65547-7.8161-0.83447-3.9032-1.234-4.8532-3.7204-8.8471-2.5815-4.1467-3.0022-4.6048-5.7436-6.2549-1.627-0.97926-4.2832-2.2904-5.9028-2.9137-2.8026-1.0786-3.1476-1.1159-7.1514-0.77398-3.2823 0.2803-4.4914 0.56342-5.5022 1.2884-5.0453 3.6185-6.5076 4.854-6.9337 5.8581-0.79008 1.8619-1.3594 2.1244-3.4122 1.5731-2.7229-0.73125-5.4646-2.9693-7.3029-5.9614-3.6116-5.8782-5.983-8.6002-10.85-12.454l-4.7962-3.7976-14.28-4.3556-2.3849 1.3459c-1.5644 0.8829-2.4721 1.6935-2.6384 2.3561-0.13945 0.55559-0.33996 1.0102-0.44558 1.0102-0.10563 0-1.9308-0.92112-4.0559-2.0469-2.1251-1.1258-5.8989-2.868-8.3861-3.8715-2.4872-1.0035-4.5222-2.0142-4.5222-2.2461 0-0.23186 2.4482-7.9074 5.4404-17.057 5.361-16.392 5.475-16.822 7.8103-29.394 1.6974-9.1382 3.3041-20.221 5.6621-39.059l3.2922-26.3-1.8618-8.4595c-1.024-4.6527-1.8082-8.6717-1.7426-8.9311 0.0772-0.30568 3.6705 0.46441 10.215 2.1893 5.5528 1.4634 10.69 2.6616 11.415 2.6625 0.72558 9.2e-4 6.2153-0.75725 12.199-1.6848l10.88-1.6865 19.561-6.2746c21.384-6.8593 25.332-8.069 25.567-7.8341 0.68451 0.68452-14.613 22.786-23.993 34.666l-3.7703 4.7748 5.6572 13.296 17.189 4.3004 6.1865-1.9238c4.278-1.3303 8.5873-3.0997 13.969-5.7356l7.7824-3.8118 3.5174-4.4112c1.9346-2.4262 3.9222-5.3157 4.417-6.4213 0.86882-1.9412 0.97177-2.0184 3.003-2.2529 1.1568-0.13351 6.2135-0.37347 11.237-0.53326l9.1336-0.29051 4.9588 2.9368c5.3162 3.1484 15.266 7.7526 25.754 11.917l6.4929 2.5782 8.8615 7.0348c14.121 11.21 15.9 12.561 26.07 19.791 5.3002 3.768 15.238 10.957 22.085 15.976s16.113 11.768 20.593 14.999l8.1443 5.874 9.3351 10.517c5.1343 5.7842 10.585 12.036 12.113 13.893l2.7774 3.376 2.277 11.412-1.7171 6.0251c-1.2173 4.2716-2.1185 6.5911-3.0962 7.9697-0.75852 1.0695-2.4203 3.4006-3.6928 5.1802l-2.3137 3.2356-7.1691 0.0101-7.1691 0.01-5.2406-4.8425c-2.8823-2.6633-6.8497-6.5363-8.8163-8.6065-8.8346-9.2999-32.685-26.619-44.378-32.225l-6.43-3.0829-9.0812-11.132-2.2386-6.9361c-1.2312-3.8149-2.2905-6.988-2.354-7.0514-0.0634-0.0634-0.37487 0.0451-0.69206 0.24108-0.46722 0.28876-0.14716 1.702 1.6859 7.444l2.2626 7.0876 6.7397 8.1448c3.7068 4.4797 6.929 8.4274 7.1604 8.7728 0.23137 0.34537 4.9639 4.5621 10.517 9.3705 5.5528 4.8084 12.178 10.575 14.723 12.815 2.545 2.2398 6.5946 5.5763 8.999 7.4146 3.8367 2.9333 4.7539 3.8997 7.4956 7.8977l3.124 4.5554-1.1254 7.9542-1.1254 7.9542-3.8073 5.048c-2.9892 3.9634-4.5611 5.6145-7.3156 7.6842-3.3257 2.499-3.7585 2.694-8.3169 3.747l-4.8086 1.1108-5.8146-2.0116c-5.6792-1.9648-5.8978-2.0864-9.3902-5.2254-1.9666-1.7676-5.0901-4.4376-6.941-5.9334-1.8509-1.4957-5.1637-4.3138-7.3617-6.2624-2.198-1.9486-5.9254-5.0343-8.283-6.8571-2.7199-2.1029-6.1925-5.4238-9.501-9.0859-2.8679-3.1744-6.1852-6.8318-7.3717-8.1276-1.1865-1.2958-2.6622-3.5201-3.2792-4.9429-1.1139-2.5684-1.6785-3.111-2.0984-2.0168-0.3458 0.90113 1.752 5.2022 3.4949 7.1656 8.7396 9.8451 14.132 15.346 17.913 18.273 2.3582 1.8256 6.2784 5.097 8.7118 7.2698 2.4333 2.1728 5.9732 5.1746 7.8663 6.6707l3.4421 2.7201 1.1335 3.5899 1.1335 3.5899-3.1105 6.0317c-2.9886 5.7954-3.2039 6.0896-5.4948 7.5082-1.861 1.1524-3.5671 1.7242-7.7732 2.6051l-5.3888 1.1287-5.6623-1.996c-5.3847-1.8982-5.7976-2.1268-8.4226-4.6643-1.5182-1.4675-3.9908-3.4915-5.4947-4.4977s-5.2899-4.3179-8.4134-7.3594c-10.719-10.438-19.646-17.516-21.294-16.884-1.0478 0.40209-0.61961 0.89353 2.2324 2.5619 3.3048 1.9332 14.455 11.573 19.272 16.659 1.8509 1.955 4.9438 4.6633 6.873 6.0183l3.5077 2.4637-0.26114 2.9947c-0.19957 2.2886-0.67193 3.8562-2.0035 6.6486-1.6805 3.5243-1.8536 3.7244-4.8794 5.6411-2.6429 1.6742-3.7744 2.1062-7.1832 2.7426-2.2254 0.41545-4.6141 0.74802-5.3082 0.73906-0.69411-9e-3 -4.7188-1.3989-8.9438-3.0888z"/>
    <path d="m413.02 86.173c-14.765-5.0008-23.685-8.839-21.816-9.3865 0.43021-0.12601 2.8645-0.5511 5.4096-0.94466l4.6274-0.71555 10.517 2.2581 3.8376 3.8126c2.7798 2.7616 3.9764 4.2757 4.341 5.4927 0.27685 0.92405 0.44292 1.7308 0.36904 1.7929-0.0739 0.06202-3.3524-0.97722-7.2857-2.3094z"/>
   </g>
  </g>
 </g>
</svg>
