<svg width="43.272mm" height="42.461mm" version="1.1" viewBox="0 0 43.272 42.461" xmlns="http://www.w3.org/2000/svg">
 <title>magnifier</title>
 <g transform="translate(-1.4209 -40.116)">
  <g transform="rotate(45.853 148.49 -36.271)">
   <path d="m131.24 149.62c1.266-0.0409 2.3713-0.0787 2.4561-0.084 0.12527-8e-3 0.1251-2.4331-9.2e-4 -12.925l-0.15516-12.916 1.3472-1.2807c0.74098-0.70438 2.4005-2.1314 3.6877-3.1711 1.9484-1.5737 2.3835-1.9657 2.5972-2.3399 0.14118-0.24724 0.77522-1.404 1.4089-2.5705l1.1522-2.121-0.0756-3.0578-0.0756-3.0578-2.7658-5.0966-1.397-0.8797c-3.1196-1.9644-2.4529-1.6993-5.7249-2.2771l-2.8925-0.5108-1.581 0.26477-1.581 0.26476-4.9946 2.234-1.3596 1.5433-1.3596 1.5433-0.97514 2.3921-0.97514 2.392 0.15752 2.1574 0.15753 2.1574 1.2055 2.2666 1.2055 2.2666 2.7872 2.4698c1.533 1.3584 3.2917 2.9195 3.9084 3.469l1.1212 0.99916 0.25625 1.5144c0.25466 1.5049 0.25578 1.5859 0.18047 12.891-0.0417 6.2574-0.0626 11.413-0.0465 11.457 0.0161 0.0439 1.0651 0.0462 2.3312 5e-3zm-9.4852-40.374-0.0175-2.1139 1.3067-1.7678c0.71867-0.97228 1.396-1.8531 1.5051-1.9574 0.10917-0.10429 1.108-0.65928 2.2197-1.2333l2.0212-1.0437 3.7473-0.08 3.3256 1.0316 1.2805 1.0187 1.2804 1.0187 2.3583 5.0269-0.60233 2.2655-0.60234 2.2655-1.589 1.4973c-1.5017 1.415-1.6594 1.5381-2.8692 2.2401l-1.2801 0.74279-4.6606 0.012-4.6629-2.0662-1.3148-2.2465c-0.72314-1.2356-1.3404-2.3027-1.3717-2.3714-0.0316-0.0686-0.0652-1.0762-0.0743-2.2389z" stroke-opacity="0"/>
  </g>
 </g>
</svg>
