<svg width="458.31mm" height="305.33mm" version="1.1" viewBox="0 0 458.31 305.33" xmlns="http://www.w3.org/2000/svg">
 <title>mask</title>
 <g transform="translate(237.08 66.838)">
  <g transform="matrix(.83734 0 0 1 -167.05 5366.2)">
   <path transform="matrix(.26458 0 0 .26458 -120.58 -5835.9)" d="m848.49 2656.7-94.239-18.087-56.978-30.779c-56.918-30.747-57.043-30.838-120.27-87.71-56.938-51.218-67.617-62.49-106.42-112.33l-43.127-55.397-16.638-99.319-30.923-31.216c-17.008-17.169-64.746-59.755-106.09-94.636l-75.162-63.419-57.488-96.428v-90.393l34.801-15.464c22.705-10.089 51.82-27.079 83.767-48.884l48.966-33.421 55.129-86.633 91.012-35.032c60.46-23.272 135.07-48.574 222.26-75.37l131.25-40.338 297.78-17.575 129.24 33.748c112.17 29.293 145.5 39.504 252.42 77.34 117.64 41.628 127.26 45.644 213.73 89.171l90.544 45.58-1.9609 32.048c-1.9592 32.022-1.9516 32.068 9.3712 56.598 6.5339 14.156 23.944 41.099 41.119 63.635l29.787 39.084 59.612 22.42c38.537 14.494 83.498 28.408 127.18 39.357 65.86 16.51 68.551 17.501 106.61 39.268l39.04 22.33 1.9885 14.508c4.3346 31.625 2.2681 45.597-14.033 94.883-15.177 45.886-17.432 50.418-42.763 85.94-48.757 68.374-92.26 117.71-130.21 147.67-34.056 26.885-34.691 27.216-56.319 29.412-12.031 1.2217-40.67 2.3081-63.641 2.4144l-41.766 0.1932-53.546-17.069c-29.451-9.3882-70.854-21.284-92.009-26.435-38.275-9.32-38.572-9.3414-60.938-4.378-12.361 2.7432-22.824 5.2616-23.251 5.5963-0.4267 0.3348 6.1866 24.349 14.696 53.366 8.5096 29.016 15.187 52.955 14.838 53.196-0.3486 0.2416-16.744 7.7804-36.435 16.753-22.324 10.173-65.708 25.157-115.25 39.805-111.21 32.884-243.84 58.078-417.06 79.226-70.118 8.5605-131.29 15.406-135.94 15.212s-50.859-8.4922-102.69-18.44zm1138.5-251.24c14.416-4.7247 20.394-9.9895 56.381-49.658 66.24-73.017 89.942-104.31 108.96-143.87 14.892-30.97 17.152-38.25 18.645-60.061 0.9342-13.651 2.2197-29.16 2.8567-34.466 1.0889-9.0693-0.567-10.807-27.7-29.071-27.42-18.457-31.649-20.182-84.877-34.618-68.931-18.695-163.54-46.661-170.69-50.454-2.9141-1.5462-19.358-12.733-36.542-24.86-30.88-21.793-31.466-22.446-50.456-56.231-10.567-18.8-20.291-34.182-21.608-34.182s-4.139 13.008-6.2698 28.906c-7.0674 52.732-66.949 198-142.68 346.13l-26.381 51.601 11.114 74.924 70.312 1.7069c62.972 1.5287 74.064 2.6229 106.25 10.481 19.766 4.8256 57.031 12.639 82.812 17.363l46.875 8.5894 23.438-8.4744c12.891-4.6609 30.694-10.853 39.564-13.759zm-1577.2-225.9-6.7796-34.027-20.65-10.804c-19.133-10.011-21.767-12.712-35.857-36.775-10.796-18.437-20.139-41.518-32.208-79.57l-17.001-53.599-1.6864-56.368c-1.8912-63.21-3.3015-76.68-8.0286-76.68-1.7964 0-10.972 6.5832-20.39 14.629-9.418 8.0461-33.387 23.163-53.264 33.594l-36.141 18.965-14.696 36.791 6.3176 24.744c11.296 44.24 39.593 77.882 140.47 167 53.397 47.17 103.82 89.001 105.39 87.431 0.71478-0.7147-1.7512-16.612-5.48-35.327z" stroke-opacity="0"/>
  </g>
 </g>
</svg>
