<svg width="101.63mm" height="101.32mm" version="1.1" viewBox="0 0 101.63 101.32" xmlns="http://www.w3.org/2000/svg">
 <title>pencil</title>
 <g transform="translate(-2.389 -97.873)">
  <g transform="matrix(.26458 0 0 .26458 .41754 95.588)">
   <g fill="none" stroke="#000" stroke-width="1px">
    <path d="m8.1869 388.97 8.1869-10.281 18.658-27.988 2.4751-4.7598 36.746-35.984 36.365-36.555 64.162-64.353 32.176-32.367 71.397-71.207 95.958-96.148 3.2367-0.19039 4.5694 0.95196 6.8541 5.331 1.7135 3.0463 0.38079 4.5694-0.57118 2.6655-29.13 28.559-55.023 54.643-95.958 95.958-103.57 103.19-54.262 53.5-1.9039 1.5232-19.42 12.376-21.895 15.612-1.3327-0.19039z"/>
    <path d="m16.374 378.69 2.8559 1.1424 0.57118 3.6175"/>
    <path d="m34.7 351.31 3.8032-1.7838 0.67314 4.4091 0.77411 0.0673 0.2356 1.2116 1.3799 0.40388 0.2356 0.43754 1.3799 0.0673 1.2453 0.67314 0.87508-0.67314 0.90874 0.23559 0.10097 0.63949 1.0097 0.2356 0.50486 1.0097-0.20194 2.4233 0.33657 1.1443 3.2984 0.87509"/>
    <path d="m38.504 349.53 339.73-340.1"/>
    <path d="m47.322 357.24 340-338.93-0.3515-1.7214-5.7832-5.1406-3.1177-1.4755"/>
    <path d="m387.32 18.309 3.6467 3.3478"/>
    <path d="m352.27 31.748 2.9035 1.1424 9.3292 8.5201 4.2362 5.807"/>
    <path d="m356.46 27.131 3.3795 0.99956 9.234 8.6153 4.3314 5.9022"/>
    <path d="m316.19 77.966 0.28559-2.4275 5.3786-5.4262 2.2847-0.42838 2.3323 1.2376 1.2376 1.6183 0.0952 1.3803-0.71398 1.6659-3.2367 3.1891-1.7135 1.6659-1.3804 0.66637-2.4751-0.52358-1.9039-1.6659z"/>
   </g>
   <path d="m46.354 355.63c-0.50783-0.2842-1.1238-0.39285-1.3687-0.24145-0.24496 0.15139-1.2784 0.0196-2.2964-0.29284-1.8977-0.58242-3.1733-2.3811-3.1733-4.4746 0-0.75233 50.31-51.414 157.74-158.84l157.74-157.74 2.6037 2.1922c1.432 1.2057 3.2096 2.8812 3.95 3.7234l1.3463 1.5313-17.379 17.232c-14.855 14.729-17.328 16.978-17.031 15.484 0.54205-2.7213-2.585-5.556-5.6353-5.1083-2.1007 0.30831-6.8336 5.2048-7.259 7.5098-0.47008 2.5473 1.627 4.8853 4.5801 5.1065l2.1964 0.16448-137.54 137.13c-114.68 114.34-137.7 137.05-138.47 136.62z" fill="#d40000" stroke-opacity="0"/>
   <g fill="#a00" stroke-opacity="0">
    <path d="m49.029 361.28c-0.19745-0.19745-0.35901-1.238-0.35901-2.3124 0-1.8833 5.6482-7.581 157.52-158.91 86.639-86.324 157.75-156.95 158.03-156.95 0.27854 0 1.1149 0.82471 1.8586 1.8327l1.3521 1.8327-135.56 135.22c-165.24 164.83-180.21 179.65-181.49 179.65-0.54797 0-1.1579-0.16156-1.3553-0.35901z"/>
    <path d="m164.42 220.32c8.6388-8.6632 54.433-54.488 101.76-101.83l86.057-86.082 1.5841 0.58306-202.83 203.08-2.2838 4e-3 15.707-15.751z"/>
    <path d="m37.044 348.15 0.85088-1.6942 18.238-17.896c10.031-9.8425 26.421-26.108 36.423-36.146 10.002-10.038 26.707-26.797 37.123-37.242l18.938-18.992h2.2924l-56.356 56.369c-54.002 54.014-57.338 57.295-58.256 57.295-0.05689 0 0.27946-0.76239 0.74744-1.6942z"/>
   </g>
   <g stroke-opacity="0">
    <path d="m364.76 31.797-4.0616-3.8392 17.339-17.333 1.4472 0.73337c1.7595 0.89159 6.7817 5.2957 7.0128 6.1496 0.14394 0.53195-1.0395 1.7988-8.7546 9.3716l-8.921 8.7565z" fill="#1a1a1a"/>
    <path d="m372.58 40.39c-0.45169-0.60789-1.2333-1.6861-1.7369-2.3959l-0.91566-1.2907 17.447-17.453 1.3606 1.2558c0.74832 0.69068 1.4593 1.4153 1.5801 1.6102 0.12072 0.19495 0.0843 1.0055-0.0809 1.8013-0.29829 1.4368-0.35762 1.5027-8.5664 9.512l-8.266 8.0652z"/>
    <path d="m358.52 27.113c-0.3332-0.06418-0.60582-0.20171-0.60582-0.30562 0-0.10391 3.7908-3.9728 8.4241-8.5975 8.2115-8.1963 8.451-8.4085 9.4897-8.4085h1.0656l-8.7477 8.7508c-4.8112 4.8129-8.809 8.7343-8.8839 8.7141-0.0749-0.02017-0.4088-0.08918-0.74201-0.15336z"/>
    <path d="m19.994 380.67c-0.10176-0.8145-0.28268-1.4809-0.40203-1.4809s-0.6555-0.18322-1.1915-0.40716l-0.97445-0.40715 8.8444-13.258c8.4354-12.644 8.9026-13.286 10.103-13.863 0.69248-0.33321 1.3673-0.60583 1.4997-0.60583s0.32586 0.79592 0.43004 1.7687c0.13923 1.3001 0.32325 1.8523 0.69457 2.0842 0.27784 0.17351 0.50516 0.51903 0.50516 0.76782 0 0.28368 0.30119 0.51851 0.80777 0.62977 0.44427 0.0976 0.80777 0.28895 0.80777 0.42528 0 0.13632 0.17751 0.24786 0.39447 0.24786s0.9692 0.19512 1.6716 0.43361c0.96759 0.3285 1.3932 0.36114 1.7559 0.13463 0.62755-0.39192 0.75531-0.37734 0.75531 0.0862 0 0.21184 0.27262 0.42388 0.60582 0.4712 0.55137 0.0783 0.61877 0.26757 0.74984 2.1055 0.07921 1.1107 0.22933 2.1571 0.33359 2.3255 0.10427 0.16833 0.63224 0.38909 1.1733 0.49059 0.8227 0.15434 0.92233 0.24168 0.6088 0.53372-0.20618 0.19205-4.4339 2.9285-9.3949 6.081-4.961 3.1525-11.283 7.3486-14.049 9.3246s-5.1451 3.5928-5.2868 3.5928c-0.14169 0-0.34088-0.66641-0.44265-1.4809z" fill="#e9c6af"/>
    <path d="m8.8083 389.75c0-0.263 1.7496-2.6794 3.888-5.3698l3.888-4.8916 1.0659 0.41872c1.0187 0.40015 1.0741 0.48402 1.25 1.8922 0.10125 0.81039 0.14381 1.5082 0.09457 1.5507-0.85885 0.7412-9.6892 6.878-9.8969 6.878-0.15937 0-0.28976-0.21518-0.28976-0.47819z"/>
   </g>
  </g>
 </g>
</svg>
