<svg width="90.525mm" height="83.134mm" version="1.1" viewBox="0 0 90.525 83.134" xmlns="http://www.w3.org/2000/svg">
 <title>spaz_icon</title>
 <g transform="translate(104.79 -87.49)">
  <g transform="matrix(.60839 0 0 .61052 -170.14 13.618)">
   <g transform="matrix(5.1875 0 0 4.2358 -710.87 -391.52)" stroke="#000">
    <g>
     <path transform="scale(.26458)" d="m608.79 578.63-2.375-0.18105-4.8853-1.9597-1.25-1.2964-1.25-1.2964-2.1339-3.0233-0.71512-3.8439 2e-3 -0.97268c2e-3 -0.8396 0.0264-1.3318 0.17969-3.5977l0.17763-2.625 1.7812-3.0282 1.4219-1.2449c0.78203-0.68472 1.45-1.251 1.4844-1.2585 0.0344-7e-3 1.1594-0.14707 2.5-0.31027 1.3406-0.16319 3.2841-0.42002 4.3189-0.57073l1.8814-0.27402 0.3548-0.92228 0.35479-0.92228 3.3558-0.016-1e-3 0.0706c-6.3e-4 0.0388-0.0815 0.64907-0.17969 1.3561l-0.17854 1.2855-1.7845 1.9602-1.4515 0.30902-1.4515 0.30901-3.4331 0.0936-3.3945 1.1633-1.6125 2.7812-0.79854 3.7329-0.0471 1.3367-0.0471 1.3367 0.36136 2.9044 1.8788 2.2357 3.3952 1.8762 3.8532 1.3447 1.5309-0.31536c0.842-0.17345 1.5328-0.31797 1.5351-0.32117 2e-3 -3e-3 0.61248-0.67332 1.3559-1.4892 0.74342-0.81584 1.3702-1.5119 1.3929-1.5469 0.0227-0.0349 0.29043-0.67525 0.595-1.4229 0.49238-1.2087 0.59961-1.5062 0.96744-2.6842l0.41369-1.3248 1.436-1.436 1.7618-0.18234c1.7507-0.18118 1.7683-0.18371 2.8056-0.40205 0.57412-0.12085 1.0469-0.22343 1.0506-0.22795 4e-3 -5e-3 0.046-0.59886 0.094-1.3207l0.0872-1.3125-1.0948-2.1875-0.95576-2.8712 0.13162-1.5956 0.13161-1.5956 0.31493-0.75c0.1732-0.4125 0.33326-0.79348 0.35568-0.84661l0.0408-0.0966 1.9207 0.35162 0.44426 1.3327-0.13423 1.112-0.13424 1.112 0.13649 0.63252 0.13648 0.63253 1.6954 1.778 0.7142 1.5229 0.0445 1.4844 0.0445 1.4844-0.13536 1.179-0.13535 1.179-0.61521 0.83665c-0.33837 0.46015-0.61618 0.83893-0.61736 0.84171-1e-3 3e-3 -0.75448 0.14648-1.674 0.31932l-1.6719 0.31425-1.2271 0.0432c-0.67489 0.0237-1.2332 0.0493-1.2406 0.0567-7e-3 7e-3 -0.33285 0.9126-0.72313 2.0114l-0.70959 1.9979-0.96583 1.6261c-0.53121 0.89434-1.0036 1.6635-1.0498 1.7092-0.0462 0.0457-0.61639 0.51951-1.2671 1.0528l-1.1831 0.96963-1.7427 0.89251c-0.95847 0.49088-1.755 0.89085-1.77 0.88882-0.015-2e-3 -1.0961-0.0852-2.4023-0.18473z" stroke-width=".00059055"/>
     <path transform="scale(.26458)" d="m610.65 551.28c0-0.0124 0.0394-0.12536 0.0875-0.25102 0.0829-0.21669 0.10118-0.31566 0.35358-1.9179 0.26404-1.6761 0.26663-1.6899 0.33006-1.7567 0.0352-0.037 0.55259-0.59433 1.1498-1.2385 0.87964-0.9487 1.0994-1.1742 1.1569-1.187 0.0391-9e-3 0.80188-0.0919 1.6952-0.18486l1.6241-0.16904 1.0054 0.43615c0.55297 0.23989 1.0119 0.4424 1.0198 0.45003 0.0114 0.011 0.0554 0.80123 0.0911 1.6353l5e-3 0.11886-1.0054 0.26363-1.0054 0.26362-0.67396-0.0357c-0.37068-0.0196-0.71962-0.0376-0.77544-0.04l-0.10148-4e-3 -0.67097 0.80429-0.67097 0.80428-0.12377 0.99055c-0.0681 0.54481-0.12816 0.9946-0.13353 0.99954-0.0236 0.0217-3.3575 0.0402-3.3575 0.0186z" stroke-width=".00041758"/>
     <g stroke-width=".010857">
      <path transform="scale(.26458)" d="m640.58 566.16c-1.0502-0.22465-1.5662-0.36184-2.4825-0.66005l-1.1567-0.37646-0.98103-0.79055-0.98102-0.79055-1.177-2.1563-0.0479-3.2909-0.0479-3.2909 0.25821-0.7049 0.25821-0.70489 0.96198-0.24134 0.35875 0.15581 0.35874 0.15581 0.3586 0.72306-0.12617 0.79458c-0.0989 0.62259-0.14182 1.1246-0.19847 2.3193l-0.0723 1.5247 0.31574 1.1925c0.17366 0.65585 0.33001 1.2053 0.34746 1.2209 0.0174 0.0156 0.48655 0.33103 1.0425 0.70088l1.0108 0.67244 2.0444 0.4385 3.3417 0.1374 3.0731-0.76774 1.3837-1.5744 0.0671-1.1428c0.0369-0.62857 0.0671-1.8141 0.0671-2.6346l3e-5 -1.4917 0.20992-0.21345c0.18927-0.19245 0.24871-0.22348 0.6041-0.31534 0.3556-0.0919 0.43423-0.0976 0.80343-0.0583 0.38169 0.0407 0.43622 0.0597 0.80941 0.28235l0.40016 0.23876 0.61304 1.8562 0.0614 1.1049 0.0614 1.1048-0.20495 1.0733-0.20494 1.0733-0.50297 0.73866c-0.38158 0.56038-0.72372 0.98473-1.4176 1.7582l-0.91466 1.0196-1.5646 0.72456-1.1063 0.15468c-0.78684 0.11001-1.465 0.17311-2.3486 0.21848-0.68326 0.0351-1.4014 0.0731-1.5958 0.0845-0.31288 0.0183-0.50607-0.012-1.6794-0.26295z"/>
      <path transform="scale(.26458)" d="m623.05 550.82c-0.10938-0.0111-0.706-0.21977-1.3258-0.46379l-1.127-0.44365-0.3004-0.51382c-0.29309-0.50132-0.30455-0.53265-0.47122-1.2886-0.10948-0.49653-0.22166-1.2113-0.31236-1.9901l-0.14152-1.2153-0.37282-1.2913-0.37281-1.2913-0.0411-2.5536c-0.0226-1.4045-0.0812-3.4982-0.13023-4.6528l-0.0891-2.0992 0.6255-3.0936 1.5136-2.5358 1.1953-0.72547c0.65741-0.39901 1.7503-1.0095 2.4286-1.3566l1.2333-0.63108 3.2345-0.25121 4.2868 0.81098 3.419 2.338 0.85843 1.2419 0.85843 1.2419 1.3102 2.8726 0.12718 1.7236 0.12719 1.7236-0.18332 1.3037-0.18331 1.3037-0.692 1.2128c-0.3806 0.66704-0.72183 1.248-0.75829 1.2911-0.0365 0.0431-0.78224 0.40938-1.6573 0.81401l-1.591 0.73568-2.5633-0.1024-2.989-0.57928-3.789-2.3379-0.94948-1.0959c-0.52221-0.60277-1.0749-1.2413-1.2282-1.419l-0.2787-0.32301-0.1824-1.8405 0.97571-0.43009 0.57452 0.15062c0.31599 0.0828 0.58663 0.1643 0.60142 0.18103 0.0148 0.0167 0.16227 0.37267 0.32774 0.79096l0.30086 0.76053 1.9587 1.8962 2.6449 1.2589 2.6902 0.26055 1.3507-0.20637c0.74291-0.11351 1.3924-0.22313 1.4434-0.2436 0.0529-0.0212 0.36008-0.45204 0.71489-1.0025l0.6222-0.96524-0.10418-1.6352-0.10418-1.6352-0.534-1.6794-0.53399-1.6794-1.0186-1.0196-1.0186-1.0196-2.8303-1.6703-1.0017-0.36507c-0.55094-0.20079-1.0713-0.36484-1.1564-0.36456-0.0851 2.9e-4 -0.81096 0.0958-1.6131 0.21228l-1.4584 0.21175-1.3839 0.85244-1.3839 0.85243-0.94896 1.9568-0.22922 1.3037c-0.21342 1.2138-0.23535 1.4074-0.31792 2.8063-0.0845 1.4313-0.0856 1.5886-0.0237 3.3146 0.0403 1.1238 0.0553 2.2987 0.0395 3.0936l-0.0255 1.2816 0.18448 0.87937c0.12232 0.58308 0.30963 1.2681 0.55589 2.0329l0.3714 1.1536 1.2899 1.2393 0.67082 0.25242 0.67082 0.25243 1.9344-0.0648 0.3858 0.50152v1.2005l-0.51928 0.34019c-0.50841 0.33308-0.52668 0.34087-0.87284 0.37239-0.4478 0.0408-2.4537 0.0803-2.7179 0.0536z"/>
      <path transform="scale(.26458)" d="m643.45 554.88c-1.6847-0.18925-2.2767-0.27466-3.285-0.47396l-1.23-0.24312-1.1013-0.5344c-1.5738-0.76369-3.1186-1.7168-4.2036-2.5935l-0.81147-0.65568-0.59531-1.0997-0.59531-1.0997-0.1413-1.1542c-0.0777-0.63482-0.14235-1.2246-0.14363-1.3107l-2e-3 -0.15651 1.0386-0.36019 0.79461 0.0632c0.43703 0.0347 0.79768 0.0669 0.80144 0.0714 6e-3 8e-3 0.84737 2.6038 0.9504 2.9336 0.0377 0.1208 0.30566 0.32154 1.8645 1.397 1.0012 0.69079 2.2381 1.53 2.7485 1.8649l0.92807 0.60889 1.6573 0.12692c0.9115 0.0698 2.1545 0.14189 2.7621 0.16021l1.1049 0.0333 1.5811-0.31484c0.86961-0.17317 1.5894-0.3231 1.5994-0.33318 0.0101-0.0101 0.14007-0.24655 0.28887-0.52548 0.24161-0.45294 0.2918-0.59445 0.46945-1.3236l0.19892-0.81646-0.41161-1.0531-0.4116-1.0531-0.88388-0.6364c-0.48614-0.35001-1.3353-1.0003-1.8871-1.445-0.90958-0.73316-1.0869-0.85548-1.9004-1.3107l-0.89715-0.50211-0.79549-0.0848c-0.61476-0.0655-1.0264-0.14163-1.812-0.33497l-1.0165-0.2502-0.60699-0.69303 0.0644-0.94386 0.63104-0.81742 0.22097-6e-3c0.12153-3e-3 0.41984-0.0207 0.66291-0.0383l0.44194-0.0321 2.1213 0.62926 1.5967 1.1125 0.94485 0.26964 0.94485 0.26965 1.9048-0.23157 0.80492-0.55737 0.80493-0.55737 0.75696-1.3875 0.11018-1.074c0.0606-0.59072 0.13216-1.6607 0.15903-2.3778 0.0445-1.1868 0.0405-1.4246-0.0447-2.6516-0.0515-0.74135-0.14335-1.8053-0.20422-2.3644-0.1048-0.96244-0.12337-1.0558-0.3493-1.7571l-0.23861-0.74062-1.0901-1.4585-0.66158-0.46969c-0.36387-0.25833-0.72218-0.4853-0.79623-0.50438-0.0741-0.0191-0.63183-0.0781-1.2395-0.13107l-1.1049-0.0964-0.80634 0.22581c-1.0664 0.29863-1.5966 0.53446-2.5303 1.1256l-0.7734 0.48959-1.5978 1.6815-0.91324 1.8768-0.65922-1.2156c-0.36257-0.66856-0.65274-1.234-0.64481-1.2565 8e-3 -0.0225 0.56295-0.63361 1.2334-1.358l1.219-1.3171 3.0774-1.5647 3.2637-0.56628 3.0069 0.43969 1.7306 1.2136c0.95182 0.66748 1.7642 1.2469 1.8053 1.2876 0.0411 0.0407 0.32468 0.78417 0.63019 1.6522l0.55548 1.5782 0.15425 1.9535c0.13948 1.7665 0.15413 2.1125 0.15298 3.6146-1e-3 1.6504-2e-3 1.6678-0.15005 2.6854-0.0818 0.56333-0.16436 1.0506-0.1834 1.0828-0.019 0.0322-0.24806 0.36677-0.50896 0.74352-0.2609 0.37676-0.70083 1.052-0.97764 1.5006l-0.50327 0.81564-0.85959 0.65569c-0.47277 0.36063-0.88771 0.67238-0.92207 0.69277-0.0531 0.0315-0.0478 0.111 0.0353 0.52811l0.0978 0.49104 0.64966 0.63227c0.35731 0.34776 0.75574 0.73132 0.88539 0.85236l0.23573 0.22007 0.56796 2.6406-0.31198 1.529c-0.25827 1.2658-0.32871 1.5456-0.40922 1.6254-0.0535 0.053-0.46517 0.42496-0.91484 0.82646l-0.81759 0.73-2.6075 0.88639-1.2153 0.1112c-0.66844 0.0612-1.2651 0.11688-1.3258 0.12382-0.0608 7e-3 -1.0352-0.0913-2.1655-0.21823z"/>
     </g>
    </g>
    <path d="m168.16 152.08c-0.27465-0.0307-0.28544-0.0334-0.46871-0.11687-0.1754-0.0799-0.19623-0.0946-0.32074-0.22687-0.14085-0.14961-0.2893-0.34192-0.45471-0.58905-0.0979-0.1463-0.1052-0.16522-0.299-0.77721-0.19605-0.61914-0.19909-0.63112-0.23406-0.92492-0.0622-0.52268-0.11663-0.88676-0.16719-1.1187-0.0519-0.23799-0.13133-0.65991-0.17393-0.92354-0.0277-0.17139-0.0529-1.3832-0.0551-2.6433-1e-3 -0.75648-5e-3 -0.73317 0.13048-0.79966 0.0593-0.0291 0.10461-0.037 0.21566-0.0374 0.21501-8e-4 0.27747 0.0154 0.36699 0.0954l0.0776 0.0694 0.0423 0.61185c0.0599 0.86589 0.0716 1.0946 0.0912 1.7859 0.0262 0.91926 0.0528 1.193 0.2077 2.1332 0.0925 0.56182 0.23487 1.0874 0.42264 1.5609 0.082 0.20681 0.34402 0.70511 0.38907 0.73999 0.0314 0.0243 0.39834 0.0947 0.68556 0.13143 0.21128 0.027 0.23867 0.0271 0.47042 1e-3 0.19638-0.0221 0.28417-0.0409 0.43462-0.0931 0.21332-0.074 0.24223-0.0955 0.6159-0.45845l0.20769-0.20174 0.30846-0.031 0.30999 0.1862v0.44719l-0.13247 0.20642c-0.14953 0.23299-0.14213 0.22665-0.55139 0.47309-0.34975 0.2106-0.4838 0.27346-0.78789 0.36943-0.25555 0.0806-0.39161 0.10218-0.98392 0.15568-0.0364 3e-3 -0.19265-8e-3 -0.34726-0.0255z" stroke-width=".000625"/>
    <g stroke-width=".0023622">
     <path transform="scale(.26458)" d="m620.79 525.93c-0.27011-0.0655-0.43735-0.17916-1.0268-0.69781-0.38725-0.34075-1.2122-1.014-1.8333-1.4961l-1.1292-0.87657-0.58754-1.0897-0.58754-1.0897-0.17644-1.69c-0.15234-1.459-0.17672-1.9529-0.17839-3.6136l-2e-3 -1.9236 0.37658-2.6691 0.37657-2.6691 0.52427-1.4125c0.41398-1.1153 0.75713-1.8782 1.6311-3.626l1.1068-2.2136 5.7034-7.3417 2.5566-1e-3c2.4292-9.9e-4 2.5519 4e-3 2.462 0.10834-0.052 0.0602-1.4671 1.6542-3.1447 3.5423l-3.0502 3.4329-3.5492 7.8217-1.0513 3.8077-0.39878 4.8798 0.35634 3.3125 1.8159 1.5443c0.99874 0.84935 2.069 1.7449 2.3784 1.9902 0.30938 0.24523 0.57059 0.4537 0.58047 0.46327 0.01 0.01-0.0134 0.0843-0.0517 0.1661-0.15255 0.32565-1.3626 1.0666-2.0912 1.2805-0.5675 0.16661-0.57185 0.16687-1.0102 0.0605z"/>
     <path transform="scale(.26458)" d="m627.53 493.52-2.5148-0.0312 0.53242-0.6875c0.29283-0.37812 1.3401-1.5573 2.3273-2.6203 1.6806-1.8097 2.4886-2.5871 12.685-12.204l10.89-10.271 5.749-4.1867 4.8078 0.0328-3.5421 2.0416-7.1694 6.098-3.4032 3.4302c-1.8718 1.8866-4.6625 4.6396-6.2017 6.1177-3.3155 3.184-6.3021 6.2975-9.2956 9.6906-1.1812 1.3389-2.1931 2.4766-2.2486 2.5282-0.0874 0.0812-0.43721 0.0896-2.6157 0.0625z"/>
     <path transform="scale(.26458)" d="m685.63 501.39-2.1734-0.616-2.724-2.1091c-1.4982-1.16-2.7612-2.1667-2.8068-2.2372-0.0456-0.0705-0.80467-1.3797-1.6869-2.9094l-1.6041-2.7812-0.97261-4.0312-0.9726-4.0312-0.0917-4.0078-0.0916-4.0078 2.275-6.4844 3.9201-3.9375 0.6916-1.478c0.38037-0.81292 0.69159-1.5042 0.69159-1.5362 0-0.032-0.51894-0.45669-1.1532-0.94383l-1.1532-0.88572-4.2249 8.4e-4 -7.1334 1.607-4.3558 2.5186-4.8228-0.0326 0.7021-0.50849c0.38616-0.27966 1.9611-1.2408 3.4998-2.1358l2.7977-1.6274 4.4334-1.2742 2.627-0.17655c1.4449-0.0971 3.5618-0.23666 4.7042-0.31013l2.0772-0.13359 2.5821 0.85366 0.81926 0.71113c0.45059 0.39112 0.92266 0.80402 1.049 0.91756l0.22978 0.20644 0.0428 1.2387 0.0428 1.2387-0.5012 0.65625c-0.27566 0.36094-1.0311 1.223-1.6788 1.9158l-1.1776 1.2596-3.1767 5.4696-0.62155 2.0369-0.62155 2.0369 0.89046 6.5971 2.1237 7.2518 4.6013 5.8344 2.0229 1.5819c1.1126 0.87003 2.0811 1.5937 2.1522 1.6081 0.0711 0.0144 0.92346 0.0996 1.8941 0.1892l1.7648 0.163 3.5357-0.70683 3.7361-3.3936 3.174-8.121-0.51788-8.4415-0.78459-2.9062c-0.43153-1.5984-0.81571-2.966-0.85375-3.039-0.038-0.073-0.76909-1.1418-1.6246-2.375l-1.5554-2.2422-4.2105-3.4985-1.7768-0.53422c-0.97725-0.29382-2.4659-0.68537-3.3081-0.8701-0.84219-0.18474-1.5566-0.35817-1.5876-0.38541-0.031-0.0272-0.13111-0.49576-0.22247-1.0412l-0.16612-0.99161 4.0001-0.34475 6.6957 2.6437 4.4148 4.2326 3.0097 4.7781 1.589 5.8245 0.26293 3.9684 0.26294 3.9684-0.8781 3.2418c-0.48296 1.783-0.92796 3.3184-0.9889 3.412-0.061 0.0936-1.1747 1.6888-2.4751 3.5447l-2.3643 3.3745-4.4589 1.9537-2.6562 0.41038c-1.4609 0.22571-2.7266 0.42083-2.8125 0.4336-0.0859 0.0128-1.1343-0.25399-2.3296-0.59279z"/>
     <path transform="scale(.26458)" d="m686.16 512.39c-1.12-0.0882-1.1816-0.10062-2.75-0.55444-1.5396-0.44548-1.7102-0.51128-4.2293-1.631l-2.625-1.1668-1.4375-0.98992c-1.4257-0.98182-1.4473-1-2.6302-2.2231l-1.1926-1.2332-2.1417-3.1247-2.1417-3.1247-1.1774-2.469c-0.86394-1.8118-1.3541-2.9349-1.8413-4.219l-0.6639-1.75-0.77374-4.0625 0.0721-4.5625c0.0823-5.2028 0.19429-7.6045 0.465-9.9688 0.18164-1.5863 0.20834-1.7236 0.63219-3.25 0.44127-1.5891 0.44452-1.5976 1.1261-2.9219l0.68354-1.3281h1.7762c0.97688 0 1.7761 7e-3 1.7761 0.0156-1e-5 9e-3 -0.0994 0.29687-0.22082 0.64062-0.18382 0.52036-0.35116 0.81859-0.99946 1.7812l-0.77868 1.1562-0.27872 1.1979c-0.42289 1.8175-0.51791 2.9432-0.59529 7.0521-0.0349 1.8562-0.0948 5.0344-0.13294 7.0625l-0.0694 3.6875 0.37903 1.5c0.64479 2.5518 1.2236 3.999 2.7748 6.9375 1.6542 3.1336 2.1922 4.0608 3.0825 5.3125 0.82794 1.164 0.98092 1.3406 2.2234 2.5676l1.3343 1.3176 3.125 2.0103 1.9688 0.74942c3.2395 1.2331 3.8407 1.4094 5.9996 1.7585l1.8433 0.29813 1.8695-0.632 1.8695-0.63199 1.6802-2.9375 0.24169-1.25c0.29411-1.5211 0.43483-1.8632 0.89651-2.1794 0.27918-0.19122 0.37229-0.22004 0.7559-0.23398 0.24062-9e-3 0.61441 0.0213 0.83064 0.0668 0.33519 0.0705 0.42535 0.1203 0.61168 0.33799 0.1202 0.14042 0.23481 0.3201 0.25468 0.39928 0.0408 0.16274-0.062 0.89418-0.42296 3.0074l-0.24947 1.4606-1.4444 2.6414-2.0494 2.0643-1.5154 0.57483c-1.4841 0.56297-1.5405 0.57877-2.7341 0.76533-1.3375 0.20905-1.5043 0.21333-3.1769 0.0816z"/>
     <path transform="scale(.26458)" d="m668.99 518.63c-1.7234-0.30898-2.205-0.42148-3.4587-0.80795-1.3389-0.41277-1.5758-0.50878-2.9353-1.1899-1.3429-0.67282-1.6017-0.83007-2.8154-1.7105l-1.3366-0.96956-0.7987-1.0325c-0.43929-0.56787-1.5511-2.1244-2.4706-3.4588l-1.6719-2.4264-1.7105-3.2427-1.7105-3.2427-0.6514-2.2885c-0.60962-2.1417-0.68343-2.4649-1.1506-5.0385l-0.49926-2.75-0.0981-1.9062c-0.0629-1.2219-0.0979-3.0393-0.0975-5.0625 4.5e-4 -2.5902-0.0218-3.4364-0.12389-4.7188-0.0684-0.85937-0.12456-1.7354-0.12472-1.9467l-2.8e-4 -0.38417 0.47021-0.45958c0.35991-0.35178 0.57465-0.50435 0.91543-0.65043l0.44523-0.19083 1.4504 0.1548 0.28693 0.31014 0.28694 0.31013 0.0417 1.2408c0.0262 0.78094-0.0206 3.9394-0.12632 8.5221l-0.16799 7.2812 0.57794 2.0854c0.4637 1.6732 0.74451 2.5317 1.4207 4.3438l0.8428 2.2584 2.5873 4.7092 1.604 1.8329c0.88221 1.0081 2.1478 2.4305 2.8125 3.1609l1.2085 1.328 3.2887 2.0438 5.3988 0.88828 2.5312-0.0944c2.5252-0.0942 2.5334-0.094 3.4375 0.0424 0.49844 0.0753 0.95111 0.15987 1.0059 0.18803 0.0618 0.0317 0.14077 0.24133 0.20773 0.55126l0.10805 0.50007-0.54047 1.1974-0.6875 0.39848-0.6875 0.39847-0.82553 0.0995c-0.58652 0.0707-1.3194 0.0974-2.5312 0.0924l-1.7057-7e-3z"/>
     <path transform="scale(.26458)" d="m665.59 463.78c0-0.017 0.0734-0.17912 0.16315-0.36035 0.16136-0.32588 0.17225-0.33387 0.9876-0.7247l0.82444-0.39519 0.84843 0.51743 0.84842 0.51744-0.0767 0.22151-0.0767 0.2215-1.7594 0.0166c-0.96765 9e-3 -1.7594 3e-3 -1.7594-0.0142z"/>
     <path transform="scale(.26458)" d="m666.65 550.62c-0.60156-0.029-1.6791-0.0981-2.3946-0.15344l-1.3008-0.10069-1.1604-0.83163-0.59458-1.798 0.0449-0.68791c0.0427-0.65348 0.0391-0.6861-0.0717-0.65152-0.0642 0.02-0.51785 0.14951-1.0082 0.28776-0.88046 0.24823-0.90472 0.25137-1.9438 0.25137-0.91482 0-1.2168-0.0282-2.3128-0.21584-0.69332-0.11872-1.2952-0.23647-1.3374-0.26166-0.0564-0.0336-1.0251-0.78496-1.2892-0.99988-0.0137-0.0111-0.087-0.30327-0.16302-0.64923l-0.13817-0.62902 0.59178-0.84267 0.68158-0.10867c0.46463-0.0741 1.3772-0.12884 2.8671-0.17203 1.202-0.0349 2.2836-0.0844 2.4035-0.11019l0.21791-0.0468 0.16658-0.70551 0.16657-0.7055-0.53736-2.2092-0.0818-2.75c-0.0925-3.11-0.11438-10.156-0.0346-11.169l0.0527-0.66869 0.39387-0.18432c0.38229-0.17889 0.4132-0.18311 1.0517-0.14355 0.36183 0.0224 0.67729 0.0602 0.70101 0.0839 0.0237 0.0237 0.13928 0.54393 0.25678 1.156 0.21315 1.1103 0.21378 1.1189 0.27145 3.7519 0.0917 4.1858 0.2797 6.0481 0.8699 8.6172 0.35348 1.5386 0.38385 1.7356 0.53477 3.4688 0.13622 1.5643 0.152 1.9769 0.10611 2.775l-0.0539 0.9375 0.27813 0.90625c0.15297 0.49844 0.28528 0.91377 0.29402 0.92297 9e-3 9e-3 0.42087 0.0537 0.91584 0.0988 0.62351 0.0569 1.5674 0.0736 3.0728 0.0543l2.1728-0.0278 0.80095-1.0085c2.0648-2.5998 2.1541-2.7254 2.7438-3.8598l0.56461-1.0862 0.41296-4.625c0.22713-2.5438 0.48354-5.5953 0.56981-6.7812 0.48699-6.6949 0.51459-6.9752 0.84933-8.625 0.17088-0.84219 0.33089-1.5777 0.35557-1.6345 0.0247-0.0568 0.44715-0.47866 0.9388-0.9375 0.80341-0.74981 0.94578-0.91574 1.4062-1.6391l0.51234-0.8048 1-0.53975c0.55-0.29687 1.4078-0.78193 1.9062-1.0779s1.1905-0.68059 1.538-0.85468l0.63174-0.31654 0.80576 0.11968c0.44317 0.0658 0.83389 0.12032 0.86827 0.12112 0.0344 8e-4 0.21209 0.26736 0.39493 0.59235l0.33244 0.5909-0.26994 0.50762-0.26993 0.50763-1.0938 0.55153c-1.8993 0.95773-2.8818 1.5151-3.7213 2.111l-0.8148 0.57836-0.69936 1.2206-0.0455 0.99884c-0.0431 0.94697-0.0675 1.0881-0.46871 2.7176l-0.42324 1.7188-0.0738 1.375c-0.0406 0.75625-0.26889 3.3156-0.50729 5.6875l-0.43345 4.3125-2e-5 4.9609-0.30783 0.62947c-0.2453 0.50163-0.43888 0.7787-0.95312 1.3643-0.49394 0.56246-0.95292 1.211-1.9568 2.7651-0.72132 1.1167-1.5661 2.3814-1.8773 2.8106l-0.56578 0.78028-0.62273 0.14937c-0.5677 0.13617-0.77738 0.15086-2.3727 0.16627-0.9625 9e-3 -2.2422-7e-3 -2.8438-0.0358z"/>
    </g>
   </g>
  </g>
 </g>
</svg>
