<svg width="200.84mm" height="184.28mm" version="1.1" viewBox="0 0 200.84 184.28" xmlns="http://www.w3.org/2000/svg">
 <title>write_message</title>
 <g transform="translate(50.535 17.634)">
  <g transform="translate(-52.958 8.6798)">
   <g transform="translate(-1.4967 -2.6192)" stroke-opacity="0">
    <path transform="matrix(.26458 0 0 .26458 -12.067 -43.703)" d="m136.46 769.43c-20.307-2.2212-23.309-2.6773-39-5.925-16.018-3.3152-17.563-3.7335-26.75-7.2406l-9.75-3.7221-0.14302-5.0898-0.14302-5.0898 8.4154-9.1678 4.1853-0.89904c3.9915-0.8574 25.304-5.2707 30.784-6.3747 2.5231-0.50829 2.6523-0.61935 4.4405-3.8169l1.8418-3.2934-0.56763-4.0516c-0.31219-2.2284-0.8167-5.4635-1.1211-7.1891l-0.55351-3.1375-8.4892-6.7178c-8.3555-6.612-8.5863-6.847-14.651-14.92l-6.1614-8.2019 4.0337-6.0737c2.2185-3.3405 4.1035-6.0039 4.1887-5.9186 0.08527 0.0853-0.55879 2.1838-1.4312 4.6635l-1.5863 4.5085 2.1756 4.2174c4.5818 8.8818 3.7852 8.0876 12.474 12.438l7.8122 3.9118 10.182 10.95 1.3681 14.13-5.1652 6.5124c-3.0898 3.8957-5.6119 6.6155-6.2771 6.7691-0.61156 0.14116-5.9943 1.262-11.962 2.4909-8.8135 1.8149-11.897 2.6828-16.429 4.6246-6.0292 2.5832-6.132 2.6912-6.617 6.948l-0.29138 2.5576 4.0935 1.0803c2.2514 0.59414 7.0185 1.6114 10.593 2.2606 3.575 0.6492 12.35 2.4349 19.5 3.9683 11.348 2.4337 15.186 3.0108 30.203 4.5421l17.203 1.7542 18.176-5.0975 33.27-110.46 6.9709-15.334c3.834-8.4336 12.403-25.909 19.043-38.834l12.072-23.5 39.44-62 50.948-68.664 25.588-25.952c14.073-14.274 35.263-35.314 47.088-46.757l21.5-20.805 59.39-45.228 39.61-23.339 117.75-4e-3v3.273l-18.125 4.6997c-9.9688 2.5848-18.856 4.8965-19.75 5.137-0.96895 0.26073-1.625 0.75836-1.625 1.2325 0 0.6878 0.5574 0.75336 4.125 0.48521 9.1919-0.69089 20.622-0.94647 20.125-0.45002-0.275 0.2749-9.3875 5.7921-20.25 12.26l-19.75 11.761-29.013 24.066-20.254 26.53-7.6543 15.378c-4.2098 8.4579-9.7747 20.085-12.366 25.837l-4.712 10.459-18.981 19.291c-30.87 31.374-29.541 29.969-28.936 30.574 0.39964 0.39964 4.7565-2.2557 15.958-9.7256 8.4744-5.6514 15.5-10.184 15.611-10.072 0.20517 0.20516-29.238 40.3-29.934 40.764-0.20638 0.1375-11.402 3.7119-24.88 7.9431-19.633 6.1638-24.448 7.8412-24.219 8.4382 0.23958 0.62433 1.1849 0.69551 5.8332 0.43924 3.051-0.1682 9.0348-0.43051 13.297-0.58292l7.75-0.2771-45.25 15.696c-33.445 11.601-45.292 15.911-45.412 16.52-0.14769 0.75262 1.4731 0.82889 18.75 0.88228 10.401 0.0322 20.371 0.20089 22.156 0.375l3.244 0.31656-36.488 23.15-28.344 8.05c-15.589 4.4275-28.471 8.05-28.625 8.05-0.42738 0-0.33543 1.4955 0.0941 1.531 0.20625 0.0171 9.9375 1.4402 21.625 3.1625 24.934 3.6744 24.997 3.5879-3 4.1063-9.7625 0.18076-18.749 0.46942-19.971 0.64145l-2.2209 0.3128 15.658 8.246 11.892 0.0379 11.892 0.038-4.9808 1.7121c-4.98 1.7117-4.9825 1.712-14.368 1.712h-9.3872l-7.6319-3.0519c-4.1976-1.6785-8.7007-3.4752-10.007-3.9927s-2.3733-0.77537-2.3712-0.57314c3e-3 0.31005 5.1877 6.8727 9.2735 11.738 1.0879 1.2956 1.6261 1.4327 9.8119 2.5l8.6608 1.1292-8 0.25453c-7.0947 0.22574-8.9619 0.0991-16.5-1.1192-10.007-1.6173-9.8691-1.6088-9.6617-0.59666 0.0922 0.44978 4.2958 2.9205 9.7829 5.75 5.2917 2.7288 9.3417 4.9628 9 4.9646-0.34169 2e-3 -5.4059-1.0449-11.254-2.3259-5.8478-1.281-10.758-2.2035-10.912-2.05-0.1535 0.15349 2.2392 5.0358 5.3171 10.85s5.5131 10.648 5.4116 10.744c-0.10155 0.0952-2.858-2.1466-6.1254-4.9817-5.2732-4.5755-6.5655-6.0444-11.5-13.072l-5.5592-7.917-0.25 17.834c-0.1375 9.8087-0.36753 17.951-0.51117 18.095-0.14365 0.14332-2.7188-6.757-5.7225-15.334-3.0037-8.577-5.8369-16.495-6.2959-17.595l-0.83457-2-0.75644 1.75c-0.41604 0.9625-4.5887 10.321-9.2726 20.798-4.6839 10.476-10.224 23.252-12.312 28.39l-3.7953 9.342v19.815l-11.375 15.039c-6.2562 8.2714-14.685 19.392-18.731 24.713-6.087 8.005-8.1462 11.182-11.935 18.414-2.891 5.5185-5.3516 11.044-6.6758 14.99l-2.0971 6.25-8.968 3.0893c-5.4045 1.8617-9.7627 3.0794-10.968 3.0644-1.1-0.0137-11.9-1.1078-24-2.4313zm75.074-83.097 7.5619-7.625 4.5028-10c4.8151-10.694 23.024-53.422 29.321-68.804 3.3283-8.1301 5.9226-13.039 20.557-38.894 24.707-43.651 23.869-42.325 36.788-58.152 67.321-82.469 85.48-104.49 90.22-109.4 7.4627-7.733 33.585-35.624 48.938-52.253 6.8543-7.4236 13.202-14.286 14.106-15.249 1.1217-1.1954 1.5086-1.9696 1.2187-2.4387-0.3203-0.51826-4.1574 2.3251-15.606 11.564-12.853 10.373-18.286 15.222-35.431 31.619-37.129 35.511-47.769 46.4-66.449 68.007-20.925 24.204-29.388 34.873-52.742 66.494-13.573 18.377-20.121 27.723-24.703 35.256-4.106 6.7503-13.224 23.815-26.705 49.979-27.503 53.379-32.408 64.118-39.408 86.271-4.2146 13.339-5.9926 19.48-5.9926 20.697 0 0.34492 1.1776 0.55283 3.131 0.55283h3.131z"/>
    <path transform="matrix(.26458 0 0 .26458 -12.067 -43.703)" d="m205.71 606.54-9.25-0.78606 6.375-0.97906c3.5062-0.53848 6.375-1.1435 6.375-1.3445s-7.1524-5.2381-15.894-11.194l-15.894-10.828-4.8825-9.7803c-2.6854-5.3792-4.8111-9.8518-4.7238-9.9391 0.0873-0.0873 9.7996 4.8882 21.583 11.057 11.783 6.1685 21.61 11.215 21.838 11.215 0.22792 0 0.54154-0.20573 0.69694-0.45717s-6.0977-8.5435-13.896-18.427c-7.7981-9.8833-14.367-18.275-14.598-18.648-0.41109-0.66517-9.7342-38.118-9.5392-38.321 0.0546-0.0568 9.0703 12.845 20.035 28.672 10.965 15.826 20.247 28.894 20.627 29.04 0.37996 0.14581 0.80744 0.14851 0.94995 6e-3 0.1425-0.14251-3.798-9.777-8.7568-21.41-4.9587-11.633-8.9583-21.208-8.8879-21.279 0.10423-0.10423 23.842 27.546 27.68 32.243 0.80461 0.98454 1.236 1.1858 1.6576 0.77328 0.42438-0.41521-2.4387-6.8549-11.209-25.212-6.4785-13.56-11.707-24.727-11.618-24.815 0.0885-0.0885 5.9235 8.7819 12.967 19.712 7.0432 10.93 13.118 20.294 13.498 20.809 0.62123 0.83962 0.93517 0.0849 3.0496-7.3316l2.3571-8.2676-5.7986-29.348c-3.1892-16.141-5.7115-29.435-5.605-29.542 0.1065-0.10649 4.9951 7.6799 10.864 17.303 5.8685 9.6232 10.745 17.422 10.836 17.331 0.0911-0.0911 0.61509-9.5776 1.1643-21.081 0.54926-11.503 1.0694-20.986 1.1559-21.073 0.0865-0.0865 1.3857 4.1674 2.8872 9.453 2.1208 7.4661 2.927 9.6482 3.6131 9.7804 0.69254 0.13337 0.82837-0.0815 0.6293-0.99537-0.13962-0.641-1.3026-10.432-2.5844-21.757l-2.3305-20.591 2.8081-14.329 2.8081-14.329 10.623-28.229c5.8429-15.526 10.675-28.049 10.738-27.829 0.063 0.21971 0.57048 7.262 1.1278 15.649 1.4063 21.164 1.4947 22 2.3248 22 0.38459 0 0.69925-0.0903 0.69925-0.20068s1.1022-6.946 2.4494-15.19l2.4494-14.99 18.302-35.185 27.399-29.485 7.4949-5.0126c4.1222-2.7569 7.5731-4.9343 7.6687-4.8387 0.0956 0.0956-1.276 8.4941-3.0481 18.663-2.9167 16.738-3.3638 20.263-4.719 37.215-1.758 21.989-1.6912 20.138-0.71897 19.936 0.49047-0.1019 3.3413-6.0657 7.712-16.133 3.8136-8.7841 10.27-22.492 14.347-30.461 6.342-12.397 9.042-16.988 18.687-31.779l11.274-17.289 18.726-14.512c17.732-13.741 19.018-14.637 24.226-16.88l5.5-2.3687 144.91 0.26063-83.912 43.396-34.75 25.243c-23.374 16.98-36.141 26.578-39 29.322-2.3375 2.2436-21.774 21.017-43.191 41.719l-38.941 37.64-57.206 69.209-12.89 21.235c-21.654 35.673-48.055 81.505-53.923 93.61-2.8993 5.9812-5.4573 10.845-5.6845 10.807-0.22718-0.0372-4.5756-0.42136-9.663-0.85369z"/>
    <path transform="matrix(.26458 0 0 .26458 -12.067 -43.703)" d="m644.2 276.03c0-1.7857-2.235-1.8676-57.75-2.1157l-57.75-0.25812 19-11.128c27.628-16.182 101.13-49.265 154.5-69.542 21.725-8.2539 39.688-15.192 39.917-15.418 2.0635-2.0372-6.1394-0.54293-38.673 7.0451l-37.743 8.8031-81.671 41.85-115.05-1.6096 24.222-9.8564c33.668-13.7 47.564-18.192 65.504-21.174 28.797-4.7865 54.878-11.838 77.5-20.953 28.548-11.503 40.017-15.833 40.541-15.309 0.24746 0.24746-2.2481 4.1332-5.5457 8.635-3.2976 4.5018-5.9956 8.4368-5.9956 8.7444 0 1.7999 4.4233-1.5434 17.976-13.587l15.192-13.5 14.483-5.6962c9.947-3.9122 18.576-8.2278 27.553-13.78 7.1886-4.4458 13.212-7.9417 13.385-7.7686s-1.0136 4.5517-2.6372 9.7302-2.9519 9.7751-2.9519 10.215c0 2.3472 2.931-0.44681 13.061-12.451 11.05-13.094 11.355-13.357 25.81-22.277 16.217-10.008 14.052-7.5691 27.399-30.867l4.5224-7.8941-0.44847 6.8941c-1.4268 21.934-7.7084 45.629-16.541 62.394-21.164 40.173-31.393 53.985-55.103 74.412l-14.617 12.592-16.574-3.8548c-9.1156-2.1202-16.781-3.5202-17.033-3.1113-0.56132 0.90822 1.5133 2.2689 12.773 8.3774 4.8125 2.6108 8.7382 5.0479 8.7238 5.4159-0.0775 1.9795-62.03 34.984-69.724 37.145-6.0536 1.7001-6.25 1.6969-6.25-0.10234z"/>
    <path transform="matrix(.26458 0 0 .26458 -12.067 -43.703)" d="m450.2 231.01c6.9571-3.2156 32.088-12.093 32.648-11.533 0.18509 0.1851-4.17 3.5651-9.6779 7.5111l-10.014 7.1745-19.455-0.1482z"/>
    <path transform="matrix(.26458 0 0 .26458 -12.067 -43.703)" d="m556.21 274.37v-0.58138l3.1172 0.0204c1.7144 0.0112 9.4734 0.0472 17.242 0.0801 7.7688 0.0328 15.45 0.0691 17.07 0.0805l2.9453 0.0207v0.96115h-40.375z"/>
    <path transform="matrix(.26458 0 0 .26458 -12.067 -43.703)" d="m517.21 279.93c2e-3 -0.12501 1.1612-0.82694 8.6719-5.2492 4.7685-2.8077 15.575-9.1738 24.014-14.147l15.344-9.0421 16.156-7.3137c8.8859-4.0226 16.249-7.3536 16.363-7.4023l0.20683-0.0885-0.0193 0.25529-0.0193 0.2553-1.2188 0.56508c-19.444 9.0154-38.049 18.375-48.113 24.204-1.4312 0.82893-19.847 11.611-19.882 11.64-0.0143 0.0121-0.0143 0.0332 0 0.0467s4.1745 0.0418 9.2448 0.0628 11.251 0.0555 13.734 0.0767l4.5156 0.0385v1.1099h-30.293l-4.3067 2.5379c-2.3687 1.3958-4.3278 2.5506-4.3536 2.5662-0.0258 0.0156-0.046-0.0366-0.045-0.11601z"/>
    <path transform="matrix(.26458 0 0 .26458 -12.067 -43.703)" d="m596.6 274.45v-0.48848l1.1435 0.0133c0.62894 7e-3 2.4064 0.0187 3.9498 0.0254 5.8939 0.0254 15.422 0.0877 17.175 0.11242l0.9557 0.0135v0.81239h-23.224z"/>
    <path transform="matrix(.26458 0 0 .26458 -12.067 -43.703)" d="m622.31 274.55v-0.40803l0.80079 0.0102c4.5234 0.0578 5.2678 0.0688 7.4648 0.11079 6.1054 0.11665 9.5796 0.28535 11.445 0.55581 0.44093 0.0639 0.47656 0.0721 0.47656 0.10927 0 0.0295-0.15584 0.03-10.094 0.03h-10.094z"/>
    <path transform="matrix(.26458 0 0 .26458 -12.067 -43.703)" d="m619.84 274.53v-0.42334l0.41432 0.0145c0.22787 8e-3 0.77975 0.0145 1.2264 0.0145l0.81206 6e-5v0.8176h-2.4528z"/>
    <path transform="matrix(.26458 0 0 .26458 -12.067 -43.703)" d="m511.66 235.06c-5.3797-0.0112-11.275-0.0224-13.102-0.0249l-3.3203-5e-3v-1.0012l0.82031 0.0182c0.45117 0.01 6.8742 0.10177 14.273 0.20387 7.3992 0.10209 15.429 0.21341 17.844 0.24737 2.4148 0.034 5.0762 0.0713 5.9141 0.083l1.5234 0.0212v0.49009l-7.0859-6e-3c-3.8973-3e-3 -11.488-0.0155-16.867-0.0266z"/>
    <path transform="matrix(.26458 0 0 .26458 -12.067 -43.703)" d="m557.35 235.15c-8.9805-0.014-17.541-0.0343-19.023-0.0451l-2.6953-0.0196v-0.49323l0.47657 0.0165c0.26211 9e-3 8.8438 0.12966 19.07 0.26796 10.227 0.13829 18.65 0.26295 18.719 0.27701 0.12251 0.0251 0.12158 0.0255-0.0469 0.0237-0.0945-1e-3 -7.5195-0.0133-16.5-0.0273z"/>
   </g>
   <g fill="none" stroke="#000" stroke-width=".26458px">
    <path d="m150.44 26.314c-0.17352 0.39098-2.4967 0.16772-2.4967 0.2297 0 0.06972 0.13166-0.04611 0.19844-0.06615 0.17415-0.05224 0.35349-0.08544 0.52917-0.13229 0.76863-0.20497 1.452-0.26458 2.249-0.26458h0.33073c0.0441 0 0.10111-0.03118 0.13229 0 0.0501 0.05008-0.28216 0.19185-0.33073 0.19844-1.8056 0.10288 0.55827-0.07622-1.1906 0.19844-0.32672 0.05131-0.66145 0-0.99218 0h-0.39688-0.39687c-0.022 0-0.0661-0.02204-0.0661 0 0 0.07057 0.57547-0.06254 0.59531-0.06615 0.46847-0.08517 0.91766-0.04866 1.3891-0.06615 0.14897-0.0055 0.58757-0.07841 0.44614-0.03126-0.3713 0.12377-0.79069 0.09741-1.1738 0.09741h-0.52917c-0.0995 0-0.95818 0.10015-1.1245-0.06615-0.0156-0.01558 0.0441 0 0.0661 0h0.39688c0.19843 0 0.39689 0.0026 0.59531 0 0.17403-0.0024 2.0332-0.20712 2.5797 0.06615 0.0394 0.01971-0.0886-0.0062-0.1323 0-0.72279 0.10326 0.11322 0.07904-1.0583 0.13229-0.7892 0.03587-1.5913 0-2.3812 0-0.55035 0-1.3014 0.11014-1.8521 0-0.0699-0.01397 0.10719-0.10135 0.46302-0.13229 0.63852-0.05552 1.2781-0.10028 1.9182-0.13229 0.19819-0.0099 0.39687 0 0.59531 0h0.33073c0.022 0 0.0871-7e-3 0.0661 0-0.87578 0.29192-3.2512 0.19844-4.0349 0.19844h-0.66146c-0.0909 0-0.32886-0.0019-0.26458-0.06615 0.0779-0.07795 0.22094 0.01 0.33073 0 0.60022-0.05457 1.1806-0.06615 1.7859-0.06615h0.59532 0.39687c0.022 0 0.0661 0.02204 0.0661 0s-0.0443-0.0027-0.0661 0c-0.1547 0.01934-0.30818 0.04793-0.46302 0.06615-0.22007 0.02588-0.44087 0.04514-0.66146 0.06615-0.24243 0.0231-0.48484 0.04673-0.7276 0.06615-0.30848 0.02469-0.61682 0.05378-0.92604 0.06615-0.57092 0.02283-1.1482 0-1.7198 0-0.0441 0 0.0885 0.0055 0.13229 0 0.66005-0.08251 0.33962-0.07192 1.1245-0.13229 0.97257-0.07481 1.9361-0.06615 2.9104-0.06615h0.52917c0.022 0 0.0661 0.02204 0.0661 0s-0.0441 0-0.0661 0c-0.38293 0 0.91255-0.0021-0.7276 0.06615-0.70495 0.02937-1.4111 0-2.1167 0-0.28198 0-1.4234 0.09881-1.7198 0-0.0754-0.02514 0.11917-0.1262 0.19843-0.13229 0.21984-0.01691 0.44118 0.0096 0.66146 0 2.027-0.08813-0.30628-0.06615 1.7198-0.06615h1.1906 0.0661c-0.4552 0-0.93446 0.11481-1.3891 0.13229-0.76152 0.02929-1.4053-0.0308-2.1828-0.06615-0.044-0.0021-0.10111 0.03118-0.13229 0-0.11024-0.11024 0.30733-0.05795 0.46302-0.06615 0.28708-0.01511 0.5726-0.05589 0.8599-0.06615 0.98109-0.03504 2.08-0.1084 3.0427 0.13229 0.0214 0.0053-0.0448-0.0053-0.0661 0-0.15573 0.03893-0.30317 0.11776-0.46302 0.13229-0.32937 0.02994-0.66146 0-0.99219 0-0.55279 0-2.8919 0.14153-3.3073-0.06615-0.0197-0.0099 0.0443 0.0031 0.0661 0 0.13277-0.01897 0.26358-0.05133 0.39688-0.06615 0.26388-0.02932 0.52843-0.05632 0.79375-0.06615 1.2209-0.04522 2.4224 0.02178 3.638 0.13229 0.0694 0.0063-0.12966 0.05468-0.19844 0.06615-0.21857 0.03643-0.44058 0.04847-0.66146 0.06615-1.2058 0.09646-0.84371 0.07956-2.1167 0-0.022-0.0013 0.0447 0.0053 0.0661 0 0.0677-0.01691 0.12925-0.0575 0.19844-0.06615 0.28526-0.03566 0.57263-0.0551 0.8599-0.06615 0.60015-0.02307 3.1321-0.21532 4.101 0 0.0215 0.0048 0.0205 0.05796 0 0.06615-0.19988 0.07995-1.0195 0.12952-1.0583 0.13229-0.87939 0.06282-1.705 0.09208-2.5797 0-1.966-0.20694 1.7438-0.25943 1.8521-0.26458 0.19943-0.0095 0.39624-0.05083 0.59531-0.06615 0.0879-0.0068 0.17639 0 0.26459 0h0.0661-1.3229"/>
    <path d="m151.45 26.213c0.44233-0.0019 0.88352 0.05683 1.3229 0.08268 0.13151 0.0077 0.2654-0.0094 0.39688 0 0.74823 0.05345 1.5652 0.0582 2.3151 0.01654 0.2922-0.01625 0.58346-0.01654 0.87643-0.01654 0.0152 0 0.18586 0.18657 0.19844 0.14883 0.0323-0.09704-0.0669-0.115-0.11576-0.06614-0.0696 0.06957 0.0108 0.17652 0.0992 0.13229 0.0333-0.01667-0.11575-0.0794-0.11575-0.06615 0 0.03422 0.10642-0.03954 0.0661-0.04961-0.0242-0.0061-0.14089-0.0049-0.16536 0-0.0342 0.0068-0.0661 0.02204-0.0992 0.03307-0.0772 0.01654-0.15358 0.03714-0.23151 0.04961-0.0471 0.0075-0.34026 0.02784-0.38034 0.03307-0.14909 0.01945-0.29684 0.04854-0.44648 0.06615-0.37601 0.04424 0.0451-0.0056-0.33073 0.01654-0.0389 0.0024-0.0772 0.01103-0.11576 0.01654-0.0551 0.0055-0.11005 0.01347-0.16536 0.01654-0.24821 0.01379-0.49486 0.01654-0.74414 0.01654-0.20853 0-0.42022 0.0095-0.62839 0-0.0997-0.0045-0.19794-0.02832-0.29765-0.03307-0.0606-0.0029-0.12127 0-0.18191 0-0.17087-0.01654-0.34165-0.03407-0.51263-0.04961-0.12896-0.01172-0.50273-0.02648-0.61184-0.09922-0.0308-0.0205 0.0643-0.03739 0.0992-0.04961 0.0773-0.02707 0.1528-0.0599 0.23151-0.08268 0.45425-0.13149 0.90611-0.16833 1.3725-0.21497 0.0329-0.0033-0.0662-0.0013-0.0992 0-0.1103 0.0042-0.22048 0.01103-0.33073 0.01654-1.0612 0.05306-0.52196 0.03437-1.9844 0.04961-0.0882 7.94e-4 -0.17639 0-0.26459 0-0.011 0-0.0331-0.01103-0.0331 0 0 0.0258 0.0735-0.02996 0.21498-0.04961 0.13693-0.01902 0.27533-0.02627 0.41341-0.03307 0.33081-0.01627 0.94323-0.06849 1.2733 0.03307 7e-3 0.0024-9e-3 0.01439-0.0165 0.01654-0.0707 0.02021-0.14286 0.03519-0.21498 0.04961-0.43938 0.08788-0.52104 0.10285-0.99218 0.13229-0.0825 0.0052-0.16537 0-0.24805 0h-0.0165c0.37096 0 0.71534-0.02278 1.0914-0.03307 0.17081-0.0047 0.34175 0 0.51263 0 0.10473 0 0.20957-0.0048 0.31419 0 0.0174 7.94e-4 0.0574 0.0011 0.0496 0.01654-0.0102 0.02032-0.0435 0.01421-0.0661 0.01654-0.13751 0.01423-0.27559 0.0223-0.41342 0.03307-5e-3 2.65e-4 -1.0219 0.09519-1.1245 0.04961-0.10274-0.04566 0.21956-0.04937 0.33072-0.06615 0.18119-0.02735 0.36381-0.04402 0.54571-0.06615 0.88811-0.10801 0.41193-0.07006 1.141-0.09922 0.0165-5.29e-4 -0.0331-7.94e-4 -0.0496 0-0.11578 0.0048-0.23144 0.01267-0.34726 0.01654-0.47453 0.01582-0.94751 0.01654-1.4221 0.01654-6e-3 0 0.0111 5.29e-4 0.0165 0 0.0883-0.01037 0.1766-0.0205 0.26458-0.03307 0.73338-0.10477 0.64341-0.12134 1.4221-0.14883 0.30302-0.01069 0.62289-0.02043 0.92604 0.03307 5e-3 0.0011 5e-3 0.0145 0 0.01654-0.0534 0.02138-0.10883 0.03884-0.16537 0.04961-0.17537 0.03341-0.35237 0.05782-0.52916 0.08268-0.31548 0.04437-0.60935 0.08268-0.92604 0.08268-0.011 0 0.0221 0.0016 0.0331 0 0.0719-0.0096 0.14285-0.02566 0.21497-0.03307 0.14299-0.01466 0.28631-0.02765 0.42995-0.03307 0.15669-0.0059 0.76845-0.02996 0.92604 0.03307 7e-3 0.0029-9e-3 0.01445-0.0165 0.01654-0.0928 0.02577-0.18563 0.05399-0.28112 0.06615-0.20843 0.02653-0.41849 0.03998-0.62839 0.04961-0.73452 0.0337-0.80857 0.03307-1.2402 0.03307-6e-3 0 0.0111 0.0011 0.0165 0 0.0719-0.0154 0.14193-0.04112 0.21498-0.04961 0.44495-0.05174 0.90855-0.04905 1.356-0.03307 0.0335 0.0013 0.0681 0.0041 0.0992 0.01654 7e-3 0.0029-9e-3 0.01543-0.0165 0.01654-0.0712 0.01016-0.1435 9e-3 -0.21497 0.01654-0.41253 0.04342-0.38059 0.06764-0.77722 0.04961-5e-3 -2.51e-4 -5e-3 -0.01534 0-0.01654 0.0982-0.02183 0.19757-0.0396 0.29766-0.04961 0.17585-0.0176 0.3526-0.02551 0.52916-0.03307 0.48059-0.02061 0.64137-0.01654 1.0914-0.01654 0.0606 0 0.20902-0.05423 0.1819 0-0.03 0.05998-0.13151 0.0288-0.19844 0.03307-0.19261 0.0123-0.38581 0.01273-0.57877 0.01654-0.11948 0.0024-0.8353 0.15286-1.1741-0.01654-5e-3 -0.0024 0.0111 7.94e-4 0.0165 0 0.0663-0.01019 0.13173-0.02622 0.19843-0.03307 0.45433-0.0466 0.91798-0.04961 1.3725-0.04961 0.0884 0 0.17682 0.0062 0.26458 0.01654 8e-3 7.94e-4 0.0235 0.01304 0.0165 0.01654-0.0148 0.0074-0.0332-0.0019-0.0496 0-0.12701 0.01466-0.25303 0.03786-0.38034 0.04961-0.68634 0.06335-0.62919 0.04961-1.2733 0.04961-0.11024 0-0.22061 0.0052-0.33072 0-8e-3 -2.64e-4 -0.0235-0.01304-0.0165-0.01654 0.0148-0.0074 0.0332 0.0024 0.0496 0 0.13267-0.01966 0.26301-0.05786 0.39687-0.06615 0.59591-0.03686 1.1901-0.03307 1.7859-0.03307 6e-3 0-0.0111-7.94e-4 -0.0165 0-0.0332 0.0047-0.0657 0.01537-0.0992 0.01654-0.28101 0.0099-0.56223 0.01201-0.84336 0.01654-0.0606 0.0011-0.12188 0.0086-0.1819 0-0.0225-0.0032 0.0435-0.01447 0.0661-0.01654 0.099-9e-3 0.19832-0.01402 0.29766-0.01654 0.33618-0.0085 0.67246-0.01238 1.0087-0.01654 0.11024-0.0013 0.22058-0.0044 0.33073 0 0.0281 0.0011 0.0701-0.0086 0.0827 0.01654 0.0102 0.02032-0.0436 0.01355-0.0661 0.01654-0.10982 0.01463-0.2208 0.01934-0.33073 0.03307-5e-3 7.93e-4 0.011 0 0.0165 0h0.1323 0.69453 0.44648c8e-3 0 0.0241 0.01463 0.0165 0.01654-0.0214 0.0053-0.0443-0.0026-0.0661 0-0.11609 0.01394-0.231 0.03715-0.34726 0.04961-0.0442 0.0047-0.1323-0.0279-0.1323 0.01654 0 0.0055 0.011 0 0.0165 0h0.0992 0.0992 0.38034c0.0444 0 0.16371-0.0149 0.13229 0.01654-4e-3 0.0037-0.29734 0.01651-0.29766 0.01654-0.22793 0.01199-0.44862 0.01654-0.67799 0.01654-0.43693 0-0.92557 0.09265-1.356 0.04961-0.17757-0.01775-0.35076-0.0534-0.52917-0.06615-0.219-0.01564-0.44332 0.0033-0.66146-0.01654-0.28953-0.02633 0.1282-0.0091-0.23151-0.03307-0.36587-0.02439-0.74133 0-1.1079 0h-0.13229c-0.0386 0-0.0773 0.0028-0.11576 0-0.0156-0.0011-0.47955-0.03309-0.47955-0.01654 0 0.0051 0.81504-0.03131 0.85989-0.03307 0.52374-0.02053 1.0469-0.01654 1.571-0.01654h1.8025 0.39687 0.0661c6e-3 0 0.0165 0.0055 0.0165 0 0-0.0079-0.0385 0.0089-0.0992 0.01654-0.1045 0.01307-0.20937 0.02294-0.31419 0.03307-0.4008 0.03879 4e-3 -1.61e-4 -0.39688 0.01654-0.21598 9e-3 -0.42889 0.03307-0.64492 0.03307h0.0661 0.23151 1.0087c0.12345 0 0.24098 0.01654 0.3638 0.01654h0.0992"/>
    <path d="m144.28 26.171c-0.46493 0.0013-0.93017-0.01299-1.3948 0.0041-0.42181 0.0155-0.84094 0.08056-1.2628 0.09355-0.95059 0.02925-1.9021 0-2.8531 0h-0.88867-0.46772c-0.0156 0-0.0468-0.01558-0.0468 0s0.0312 0 0.0468 0c0.15591 0 0.3123 0.01228 0.46772 0 0.43768-0.03456 0.87244-0.09996 1.3096-0.14032 1.9842-0.18316 1.4035-0.14032 3.3208-0.14032h1.0758 0.60804 0.0468c-0.88145 0-1.7922 0.11791-2.666 0.14032-0.63901 0.01638-1.2784 0-1.9177 0h-1.4032c-0.29663 0-0.67892-0.16298-0.88867 0.04677-0.011 0.01103 0.0312 0 0.0468 0 0.15591 0 0.31188 0.0044 0.46772 0 0.38992-0.01114 0.77945-0.03356 1.1693-0.04677 1.1877-0.04026 2.3851-0.15709 3.5547 0.09354 0.0305 0.0065-0.0628-0.0051-0.0935 0-0.25035 0.04172-0.49683 0.10646-0.74836 0.14032-0.55967 0.07534-1.1207 0.14432-1.6838 0.18709-0.66919 0.05082-1.3403 0.07525-2.0112 0.09354-1.7576 0.04793-2.1975 0.04677-3.3676 0.04677-0.0312 0 0.0625 0.0033 0.0935 0 0.2654-0.02794 0.52911-0.07226 0.79513-0.09355 0.10262-0.0082 3.0593-0.18428 3.1337-0.18709 0.29602-0.01117 0.59245 0 0.88867 0 0.0468 0 0.14032-0.04677 0.14032 0 0 0.0493-0.0916 0.03908-0.14032 0.04677-0.24831 0.03921-0.49736 0.07934-0.74835 0.09355-0.40312 0.02281-3.846 0.09205-3.9756 0.09354-0.60799 7e-3 -1.2164 0.02027-1.8241 0-0.3287-0.01095-0.65609-0.05101-0.98221-0.09354-0.0346-0.0045-0.1182-0.02212-0.0936-0.04677 0.0455-0.04546 0.12333-0.03855 0.18709-0.04677 0.42006-0.0542 0.84041-0.1097 1.2628-0.14032 1.4739-0.1068 2.5839-0.11507 4.0692-0.09354 0.37447 0.0054 0.74827 0.03341 1.1225 0.04677 0.0623 0.0021 0.14299-0.0441 0.18709 0 0.0312 0.03118-0.0497 0.0893-0.0935 0.09354-0.93316 0.09031-1.8695 0.15071-2.8063 0.18709-1.2463 0.0484-2.4947 0.02228-3.7418 0-0.29659-0.0053-0.59235-0.0333-0.88867-0.04677-0.0467-0.0021-0.096 0.01479-0.14032 0-0.0148-0.0049-0.0154-0.04421 0-0.04677 0.27852-0.04642 0.56083-0.06652 0.8419-0.09354 1.3947-0.1341 2.8072-0.23386 4.2095-0.23386 0.0312 0-0.0627-0.0047-0.0935 0-0.17228 0.0265-0.34141 0.07294-0.51449 0.09354-1.6694 0.19874-3.3258 0.18709-5.0046 0.18709-0.0156 0 0.0314 0.0026 0.0468 0 0.0784-0.01307 0.15613-0.03012 0.23386-0.04677 0.54702-0.11722 0.26237-0.09354 0.74835-0.09354h-0.0468c-0.14032 0-0.28102-0.01037-0.42095 0-0.95241 0.07055-1.8962 0.18709-2.8531 0.18709-0.0156 0 0.0316 0.0038 0.0468 0 0.0478-0.01196 0.0927-0.03407 0.14032-0.04677 0.54047-0.14413 0.68401-0.16932 1.2628-0.28063 0.2342-0.04504 0.48827-0.03366 0.70158-0.14032 0.0279-0.01394-0.0628-0.0051-0.0935 0-0.15683 0.02614-0.31103 0.06653-0.46772 0.09354-0.8609 0.14843-1.7446 0.23386-2.6192 0.23386h0.0468c0.0936 0 0.18737 0.0072 0.28064 0 0.28798-0.02214 0.65787-0.0011 0.93544-0.09354 0.0148-0.0049-0.0312 0-0.0468 0-0.078 0-0.15659-0.01029-0.23386 0-0.39127 0.05217-0.77904 0.12796-1.1693 0.18709-0.25069 0.03798-0.46772 0.03663-0.46772 0.09354 0 0.06704 0.0779-0.01212 0.23386-0.04677 0.17016-0.03781 0.34153-0.07192 0.5145-0.09354 0.0619-0.0077 0.24945 0 0.18708 0-0.22558 0-0.42734 0.0013-0.65481 0.04677-0.16846 0.03369-0.34264 0.14032-0.51449 0.14032-0.0493 0 0.0941-0.02946 0.14032-0.04677 0.0923-0.03462 0.1886-0.05815 0.28063-0.09354 0.10913-0.04677 0.21827-0.09355 0.32741-0.14032 0-0.01558-0.014-0.0398 0-0.04677 0.0279-0.01394 0.064 0.0099 0.0935 0 0.26279-0.0876 0.44864-0.18709 0.74835-0.18709h-0.14031c-0.10914 0-0.21872-0.0099-0.32741 0-0.37465 0.03406-0.74707 0.11144-1.1225 0.14032-0.0777 6e-3 -0.15742-0.01529-0.23386 0-0.13409 0.02682 0.22043 0.04528 0.23386 0.04677 0.39102 0.04345 0.77574 0.11408 1.1693 0.14032 0.98906 0.06594 2.001 0 2.9934 0h-0.18709c-0.12472 0-0.24957-0.0054-0.37417 0-2.4531 0.10666-1.0047 0.09354-2.5257 0.09354h-0.46772c-0.0156 0-0.0617 0.0046-0.0468 0 1.9132-0.58867 3.9446-0.79513 5.9401-0.79513 0.0468 0-0.0941-0.0071-0.14032 0-0.15714 0.02418-0.30981 0.07497-0.46772 0.09354-1.074 0.12635-1.9928 0.18709-3.0402 0.18709h0.0935c0.17149 0 0.34307 0.0051 0.51449 0 2.281-0.06709-0.24483-0.04677 2.4789-0.04677 0.35858 0 0.7173-0.0097 1.0758 0 0.21875 0.0059 0.43647 0.03222 0.65482 0.04677 0.0155 0.0011 0.0578-0.01103 0.0468 0-0.16864 0.16864-0.46376 0.12248-0.70159 0.14032-0.42005 0.0315-0.8419 0.03118-1.2628 0.04677-0.9222 0.03416-1.8372 0.04677-2.7596 0.04677h0.0935c0.18709 0 0.37425 0.0051 0.56127 0 0.38994-0.01053 0.7793-0.03912 1.1693-0.04677 0.12117-0.0024 2.2327-0.06648 2.4322 0 0.061 0.02032-0.12369 0.0362-0.18709 0.04677-0.31102 0.05184-0.62191 0.10696-0.93545 0.14032-0.90463 0.09624-1.8482 0.18709-2.7596 0.18709h0.14031c0.26505 0 0.53042 0.01323 0.79513 0 0.35949-0.01797 0.71617-0.07756 1.0758-0.09354 0.52956-0.02355 1.0602 0 1.5902 0 0.0624 0-0.12507-0.0065-0.18709 0-0.23463 0.02468-0.46671 0.07118-0.70158 0.09354-1.0113 0.09632-2.0248 0.14032-3.0402 0.14032-0.0156 0 0.0313 0.0019 0.0468 0 0.26524-0.02947 0.52915-0.07183 0.79513-0.09354 0.49822-0.04067 0.99733-0.07119 1.4967-0.09355 1.3429-0.06013 1.7437-0.04677 3.0402-0.04677h1.1225 0.60804c0.0156 0 0.0468 0.01558 0.0468 0s-0.0312 0-0.0468 0c-0.0935 0-0.18727-0.0058-0.28063 0-0.15638 0.0098-0.312 0.02947-0.46773 0.04677-0.0155 0.0019 0.0312 0 0.0468 0 0.0779 0 0.15599 0.0037 0.23386 0 1.2718-0.06056 0.27845-0.03046 1.8709-0.18709 0.57598-0.05665 1.1545-0.08492 1.7306-0.14032 0.23485-0.0226 0.46612-0.07883 0.70159-0.09355 0.26452-0.01654 0.53018 0.0072 0.79512 0 1.0797-0.02918 2.1454-0.09354 3.2273-0.09354 0.0468 0-0.0944-0.0092-0.14031 0-0.1113 0.02225-0.21827 0.06236-0.32741 0.09354-0.28063 0.04677-0.5621 0.08878-0.8419 0.14032-0.99423 0.18315-1.9831 0.34518-2.9934 0.42095-0.32685 0.02453-0.65477 0.03189-0.98221 0.04677-0.0156 7.94e-4 -0.0468-0.01558-0.0468 0s0.0312 0.0013 0.0468 0c0.35869-0.02989 0.71683-0.06662 1.0758-0.09354 0.85756-0.06432 1.713-0.09355 2.5725-0.09355 0.0156 0-0.0313-0.0016-0.0468 0-0.12493 0.01389-0.24892 0.03634-0.37418 0.04677-0.24908 0.02077-0.49901 0.02957-0.74836 0.04677-1.005 0.06931-1.9835 0.09354-2.9934 0.09354h-5.332c-0.0156 0 0.0315 0.0031 0.0468 0 0.063-0.01259 0.12345-0.03768 0.18709-0.04677 0.3733-0.05333 0.74739-0.10204 1.1225-0.14032 1.3498-0.13774 2.7131-0.20618 4.0692-0.23386 0.30965-0.0063 1.0794-0.02059 1.4499 0.04677 0.0217 0.0039-0.0254 0.04142-0.0468 0.04677-0.10695 0.02674-0.21791 0.03389-0.3274 0.04677-0.50796 0.05976-0.55934 0.04788-1.1225 0.09354-1.5732 0.12756-3.1461 0.22974-4.724 0.28063-0.18764 0.0061-0.56127-0.14096-0.56127 0.04677 0 0.01558 0.0312 0 0.0468 0 0.0312 0 0.0808 0.02846 0.0935 0 0.0511-0.11419 0.0756-0.23854 0.11344-0.35781"/>
    <path d="m140.96 15.926c-0.27702-0.02935-0.55657-0.13559-0.83104-0.08803-0.13035 0.0226-0.18312 0.19124-0.28064 0.28063-0.22688 0.20798-0.54139 0.42434-0.84189 0.5145-0.0597 0.01791-0.12558-0.01027-0.18709 0-0.0344 0.0057-0.0689 0.07142-0.0935 0.04677-0.0551-0.05512 0.0779-0.14032 0.14032-0.18709 0.47868-0.35901 0.33365-0.2951 0.79512-0.42095 0.15058-0.04107 0.37418-0.03888 0.37418-0.09355 0-0.06236-0.12472 0-0.18709 0h-0.28063-0.28063-0.70158c-0.0156 0 0.0313 0.0019 0.0468 0 0.3822-0.04777 0.73573-0.09354 1.1225-0.09354h0.3274c0.0156 0 0.0622-0.0026 0.0468 0-1.5776 0.26293-3.2239 0.14032-4.8175 0.14032-0.0156 0 0.0314 0.0026 0.0468 0 0.0784-0.01307 0.15457-0.04111 0.23387-0.04677 0.37355-0.02668 0.74867-0.02479 1.1225-0.04677 1.0598-0.06234 0.71655-0.04677 1.7773-0.04677h0.56127 0.14031c-0.59678 0-1.1819 0.11601-1.7773 0.14032-0.87235 0.03561-1.7463 0.01677-2.6192 0-0.37443-0.0072-0.74812-0.03845-1.1225-0.04677-0.32733-0.0073-0.65518 0.01558-0.98222 0-0.0156-7.94e-4 -0.0153-0.04372 0-0.04677 0.21403-0.04281 0.43672 0.0087 0.65481 0 1.2279-0.04912 0.29884-0.05862 1.7306-0.09355 0.31172-0.0076 0.62363 0 0.93545 0h0.70158c0.0468 0 0.18702-0.0024 0.14032 0-2.199 0.11574-4.3925 0.1742-6.5949 0.14032-0.48351-0.0074-0.96752-0.01349-1.4499-0.04677-0.0348-0.0024 0.0592-0.04104 0.0936-0.04677 0.15455-0.02577 0.3113-0.03757 0.46772-0.04677 1.2927-0.07604 2.5879-0.04677 3.8821-0.04677h1.637 0.0935c-0.66322 0-3e-3 -0.01442-1.029 0.09354-0.35796 0.03768-0.71608 0.07971-1.0758 0.09354-0.4518 0.01738-0.90426 0-1.3564 0h-3.5079 0.18709 0.65481 0.98222 4.116 0.98222c0.0468 0 0.18685-0.0047 0.14031 0-0.71167 0.07117-1.3724 0.07452-2.1048 0.09355-2.1209 0.05509-4.2396 0.04677-6.361 0.04677-3.1005 0-0.64797 0.02432-2.9934-0.04677-0.12467-0.0038-0.25115 0.0205-0.37418 0-0.0344-0.0057 0.0595-0.03921 0.0936-0.04677 0.10762-0.02392 0.21809-0.03251 0.3274-0.04677 1.3053-0.17025 0.248-0.04129 1.9644-0.14032 0.40589-0.02341 0.80977-0.07953 1.2161-0.09354 0.90373-0.03116 1.8085 0 2.7128 0 0.35858 0 0.71733-0.01053 1.0758 0 0.17213 0.0051 0.34288 0.03247 0.51449 0.04677 0.0155 0.0013 0.0622-0.0021 0.0468 0-0.8989 0.12841-1.7567 0.14032-2.666 0.14032h-3.7418c-1.234 0-2.0184 0.03598-3.2273-0.09355-0.0639-0.0069 0.12309-0.04068 0.18709-0.04677 0.2643-0.02516 0.5299-0.03472 0.79512-0.04677 0.42081-0.01913 0.84167-0.03987 1.2628-0.04677 1.0756-0.01762 2.1516 0.01654 3.2273 0 3.4116-0.05249 0.26199-0.04677 1.9177-0.04677 0.0468 0-0.0938-0.0047-0.14032 0-1.159 0.1159-0.77706 0.14442-2.2918 0.18709-1.2469 0.03512-2.4945 0.02969-3.7418 0.04677-0.40948 0.0056-2.1224 0.08913-2.666-0.04677-0.0454-0.01135 0.0936 0.0026 0.14032 0 1.0417-0.05787 0.64571-0.07187 2.0112-0.09354 1.2003-0.01905 2.401 0 3.6014 0 1.0613 0 2.7064-0.09435 3.8353 0.04677 0.0464 0.0058-0.0936-0.0029-0.14031 0-0.2184 0.01365-0.43608 0.04052-0.65481 0.04677-1.0284 0.02938-2.0577 0.04677-3.087 0.04677"/>
    <path d="m102.88 16.052 1.4469-0.50436"/>
    <path d="m103.98 15.853c-0.0502 0.0055-0.0571-0.06465-8e-3 -0.07441 0.0189-0.0038 0.0386 0 0.0579 0 0.011 0 0.0236-0.0057 0.0331 0 0.0105 0.0063 0.0247 0.0552 8e-3 0.06615-9e-3 0.0058-0.0518-1.78e-4 -0.0579-0.0083-4e-3 -0.0051-5e-3 -0.02911-0.0165-0.03307-5e-3 -0.0019-0.0127 0.0039-0.0165 0-4e-3 -0.0039-5e-3 -0.01347 0-0.01654 7e-3 -0.0046 0.0166 0.0011 0.0248 0 0.0139-0.0019 0.0274-0.0067 0.0413-0.0083 0.0192-0.0021 0.0396-0.0061 0.0579 0 0.035 0.01167-0.19541 0.05747-0.17363 0.02479 0.0168-0.02514 0.12664-0.06741 0.0496 0-0.015 0.0131-0.0496 0.0132-0.0496 0.03307 0 0.0083 0.0183-0.0218 0.0496-0.04961 0.0535-0.04757 0.16227-0.12325 0.23151-0.14056 5e-3 -0.0013 0.011 0 0.0165 0 0.0123 0-0.0232 0.0091-0.0331 0.01654-0.0517 0.03876-0.10074 0.08758-0.15709 0.11576-2e-3 0.0013 6e-3 2.65e-4 8e-3 0 0.0641-0.0092 0.0365-0.0013 0.091-0.03307 0.0634-0.03698 0.12866-0.06769 0.19844-0.09095 0.019-0.0064 0.0396-0.0082 0.0579-0.01654 0.0618-0.02811 0.01-0.02479 0.0496-0.02479 3e-3 0-6e-3 -0.0011-8e-3 0-0.0115 0.0046-0.0215 0.01233-0.0331 0.01654-0.0189 0.0069-0.0392 0.0091-0.0579 0.01654-0.0229 0.0092-0.0425 0.02611-0.0662 0.03307-0.0432 0.0127-0.11075 0.01654-0.15709 0.01654-3e-3 0 6e-3 0.0016 8e-3 0 6e-3 -0.0043 9e-3 -0.01365 0.0165-0.01654 0.0637-0.02545 0.14756-0.03837 0.21497-0.04961 0.0411-0.0069 0.0826-0.01167 0.12403-0.01654 5e-3 -5.29e-4 0.0215-0.0024 0.0165 0-0.0643 0.03217-0.15318 0.03307-0.22324 0.03307h-0.0413-8e-3c0.042 0 0.0807-0.0083 0.12403-0.0083h0.0579 0.091c3e-3 0-6e-3 -5.29e-4 -8e-3 0-0.0139 0.0024-0.0275 0.0061-0.0413 0.0083-0.0522 8e-3 -0.16837 0.02744-0.20671 0.0083-0.0232-0.01159 0.0282-0.02056 0.0579-0.02479 0.0796-0.01138 0.15943-0.0098 0.23978-0.01654 3e-3 -2.28e-4 -5e-3 0-8e-3 0-0.0957 0 0.0633-0.0013-0.10749 0.0083-0.046 0.0026-0.13216-0.0013-0.17363-0.0083-8e-3 -0.0013 7e-3 -0.01961 0.0744-0.02479 0.0168-0.0013 0.16796-0.01394 0.17363-0.0083 0.0149 0.01484-0.037 0.02236-0.0579 0.02479-0.062 0.0073-0.12029 0.0083-0.1819 0.0083h0.0579c0.0869 0 0.19203-0.01561 0.27285 0.02479 2e-3 0.0013 2e-3 0.0066 0 0.0083-0.0378 0.02839-0.0558 0.015-0.10748 0.01654-0.2949 0.0087-0.11123-0.0016-0.3142 0.02479-0.0275 0.0036-0.0557 0.0021-0.0827 0.0083-0.01 0.0021-0.0318 0.0095-0.0248 0.01654 5e-3 0.0053 0.1265 0.01609 0.13229 0.01654 0.10583 0.0085 0.2274 0.0049 0.33073 0.03307 8e-3 0.0024-0.0161 0.0075-0.0248 0.0083-0.0247 0.0021-0.0496 0-0.0744 0-0.1454 0-0.11418 0.0026-0.30592-0.01654-0.0148-0.0016-0.0554-0.01185-0.0413-0.01654 8e-3 -0.0026 0.0166 5.29e-4 0.0248 0 0.0304-0.0021 0.0605-0.0077 0.0909-0.0083 0.18462-0.0035 0.36931 0 0.55397 0h0.38034 0.091c3e-3 0 0.0102-0.0019 8e-3 0-0.0237 0.02371-0.0657 0.01548-0.0992 0.01654-0.0606 0.0019-0.12127 0-0.1819 0-0.29619 0-0.18279 0.0033-0.45476-0.0083-0.0606-0.0026-0.12123-0.0064-0.1819-0.0083-0.0303-7.94e-4 -0.0607 0.0024-0.091 0-6e-3 -5.3e-4 -0.0209-0.0039-0.0165-0.0083 0.0254-0.0254 0.0715-0.0083 0.10748-0.0083h0.38861 0.22324 0.64492c3e-3 0-6e-3 2.3e-4 -8e-3 0-0.0303-0.0026-0.0606-0.0062-0.091-0.0083-0.55047-0.0367 0.59059 0.05419-0.60358-0.04134-0.058-0.0046-0.11578-0.01074-0.17363-0.01654-0.0253-0.0026-0.0956-0.0024-0.0744-0.01654 0.0347-0.02312 0.0823-0.01654 0.12402-0.01654 0.14059 0 0.2812 0.0029 0.42168 0.0083 0.0746 0.0029 0.14876 0.01206 0.22325 0.01654 0.1582 0.0095 0.32338 0.0019 0.47955 0.03307"/>
    <path d="m105.23 15.729c0.14967-0.11505 0.28543-0.08094 0.45545-0.05478 0.10896 0.01677 0.22104 0.01775 0.3274 0.04677 0.0885 0.02413 0.2438 0.12241 0.0468 0.14032-0.10533 0.0096-1.1261-0.01934-0.51449-0.21047 0.0777-0.02429 0.15329-0.05865 0.23386-0.07016 0.0849-0.01212 0.88698-0.01831 0.8419 0.11693-6e-3 0.01654-0.0307 0.01651-0.0468 0.02339-0.33506 0.1436-0.67954 0.0967-1.029 0.04677-0.0622-0.0089-0.12471-0.01572-0.18709-0.02339-0.0427-0.0052-0.16921-3e-3 -0.12804-0.01537 0.39323-0.11797 1.1588-0.10156 1.578-0.10156 0.0875 0 0.38956-0.02625 0.44433 0.04677 0.0169 0.02249-0.0435 0.03789-0.0701 0.04677-0.0682 0.02273-0.13905 0.03884-0.21048 0.04677-0.18703 0.02077-0.68281 0.03479-0.86528 0.02339-0.10234-0.0064-0.20263-0.03156-0.30402-0.04677-0.0545-0.0082-0.11141-6e-3 -0.16371-0.02339-0.0563-0.01876 0.10595-0.05641 0.16371-0.07016 0.116-0.02762 0.23198-0.05998 0.35079-0.07016 0.34776-0.02981 0.90852-0.01458 1.2628 0.02339 0.0243 0.0026 0.45301 0.03206 0.51449 0.09354 5e-3 0.0055-0.0157-0.0013-0.0234 0-0.0392 0.0065-0.0773 0.0209-0.11693 0.02339-0.0856 0.0053-0.1715 0-0.25725 0h-1.0991c-0.0234 0 0.0469 0.0019 0.0702 0 0.23455-0.01955 0.23216-0.03641 0.4911-0.04677 0.32099-0.01283 0.63909 0.01109 0.95883 0.02339 0.10906 0.0042 0.21849-0.0068 0.32741 0 0.0174 0.0011 0.0637 0.01916 0.0468 0.02339-0.0454 0.01135-0.0936-0.0028-0.14032 0-0.44146 0.02598-0.0846 0.03069-0.63142 0.04677-0.26493 0.0078-0.53028-0.01019-0.79513 0-0.0783 3e-3 -0.15567 0.01849-0.23386 0.02339-0.0467 0.0029-0.0935 0-0.14031 0-8e-3 0-0.031 0.0019-0.0234 0 0.41663-0.10416 0.88309-0.03344 1.3096-0.04677 0.62391-0.0195 1.247-0.04616 1.8709-0.07016 0.0172-5.29e-4 0.42095 5.29e-4 0.42095 0 0-0.0078-0.0156 0-0.0234 0h-0.14032c-0.10134 0-0.20289-0.0065-0.30402 0-0.45645 0.02945-0.90332 0.13379-1.3564 0.18709-0.32543 0.03829-0.65538 0.02339-0.98222 0.02339-8e-3 0 0.0158 0.0019 0.0234 0 0.0239-6e-3 0.046-0.01855 0.0702-0.02339 0.21001-0.042 0.1686-0.01328 0.42095-0.02339 0.25751-0.01029 0.51438-0.03323 0.77174-0.04677 0.45128-0.02376 0.90436-0.03668 1.3564-0.02339 0.39042 0.01148 0.77839 0.07016 1.1693 0.07016h-0.0234-0.11693c-0.42765 0-0.099-0.0057-0.60804 0.02339-0.81549 0.0466-0.33568 0.0078-1.5435 0.04677-0.13458 0.0043-0.85654 0.06528-0.98222 0.02339-0.0468-0.01558 0.0911-0.04326 0.14032-0.04677 0.07-5e-3 0.14039 0.0033 0.21047 0 0.26522-0.01233 0.53004-0.03204 0.79513-0.04677 0.46908-0.02606 0.93405-0.01135 1.4032-0.02339 0.45262-0.01161 0.90333-0.02339 1.3564-0.02339 8e-3 0-0.0157-0.0013-0.0234 0-0.0392 0.0065-0.0773 0.02008-0.11693 0.02339-0.0544 0.0045-0.10922-3e-3 -0.16371 0-0.7537 0.04187 0.46117 0.07374-1.2628-0.02339-1.73-0.12357 0.39647 0.0208-1.2862-0.07016-0.56732-0.03067-1.1379-0.09354-1.7072-0.09354h0.0234c0.0312 0 0.0624-0.0024 0.0935 0 0.27453 0.02111 0.54241 0.02339 0.81852 0.02339h2.6192c0.29139 0 0.57417-0.0088 0.86528-0.02339 0.13976-7e-3 0.27974 0.01191 0.23386 0.02339-0.0302 0.0076-0.0626-0.0034-0.0935 0-0.3327 0.03697-0.69373 0.04918-1.029 0.02339-0.10992-0.0085-0.21771-0.0358-0.3274-0.04677-0.26476-0.02648-0.52952-0.05453-0.79513-0.07016-0.40963-0.0241-0.82893 0-1.2395 0-0.0214 0-0.41731-0.0036-0.42095 0-0.0123 0.01233-8e-3 0.03898-0.0234 0.04677-0.0493 0.02466-0.11023 0.01003-0.1637 0.02339-0.0455 0.01135-0.58186 0.04397-0.58465 0.04677-6e-3 0.0055 0 0.01558 0 0.02339"/>
    <path d="m111.56 15.754c-0.16118-0.0093-0.33891-0.0016-0.4961-0.03307-0.053-0.01061-0.11196 0.0089-0.16536 0-0.0885-0.01474-0.18208-0.0083-0.27285-0.0083"/>
    <path d="m111.09 15.68c-0.0193-0.0028-0.0386-0.0055-0.0579-0.0083-0.0138 0-0.0277 0.0016-0.0413 0-0.0484-0.0061-4e-3 -0.0073-0.0413-0.01654-0.0233-0.0058-0.0511 0.0058-0.0744 0-0.0499-0.01246-0.10435-0.0083-0.15709-0.0083h-0.0827c-3e-3 0-8e-3 -0.0027-8e-3 0-3e-3 0.02188 0 0.04408 0 0.06612"/>
    <path d="m111.09 15.68c0.0276-0.01103 0.0641-0.0099 0.0827-0.03307 0.0105-0.0131-0.0332-5e-3 -0.0496-0.0083-0.0547-0.01095-0.0111-0.0083-0.0662-0.0083-0.0373 0-0.0691-0.01357-0.10748-0.01654-0.0333-0.0026-0.19394 0.0105-0.21498 0-0.0243-0.01217 0.0128-0.0083-0.0248-0.0083h-0.0744c-5e-3 0-0.0166-0.0055-0.0165 0 1.2e-4 0.01405 6e-3 0.02752 9e-3 0.04127"/>
    <path d="m111.09 15.68 1.0666 0.08268"/>
    <path d="m112.44 15.68h0.29765"/>
    <path d="m113.06 15.671 0.28112 0.03307"/>
    <path d="m113.06 15.671c0.0823-0.01371 0.11702-0.014-0.0992-0.03307-0.0439-0.0039-0.0883-0.0031-0.13229 0-0.0335 0.0024-0.0672 0.0068-0.0992 0.01654-0.0319 0.0097-0.0632 0.02286-0.091 0.04134-0.0209 0.01392-0.05 0.0694-0.0579 0.09095-3e-3 0.0095-0.0137 0.06074-8e-3 0.07441 0.0136 0.03406 0.15895 0.04042 0.19017 0.02479 0.0139-7e-3 0.0197-0.02506 0.0331-0.03307 0.0274-0.01646 0.0248 0.0028 0.0248-0.01654"/>
    <path d="m112.74 15.68c0.0853-0.05969 0.12924-0.05748 8e-3 -0.08268-0.0709-0.01476-0.16681-0.02289-0.23978-0.01654-0.0343 3e-3 -0.10108 0.02149-0.13229 0.04134-0.0131 0.0084-0.022 0.02204-0.0331 0.03307-4e-3 0.0044-0.0165 0.0021-0.0165 0.0083 0 0.02278 0.0636 0.01654 0.10749 0.01654 0.0684 0 0.25345 0.01429 0.27285-0.08268 4e-3 -0.02156-0.0542-0.02875-0.091-0.02479-0.25923 0.02777-0.087 0.0071-0.28939 0.06615-0.027 0.0079-0.0549 0.01257-0.0827 0.01654-0.0109 0.0016-0.022 0-0.0331 0-3e-3 0-9e-3 0.0027-8e-3 0 0.0174-0.06956 0.16955-0.13578 0.23151-0.14883 0.0652-0.01373 0.15251-0.01929 0.14056 0.01654-0.0568 0.17029-0.26942 0.2093-0.39687 0.09095-0.0527-0.0489-0.0712-0.09162 0-0.13229 0.0564-0.03224 0.19843-0.02281 0.19843 0.06615 0 0.0195 3e-3 0.04185-8e-3 0.05788-0.0157 0.02265-0.0426 0.03524-0.0661 0.04961-0.12016 0.07343-0.25134 0.06072-0.37207-0.0083-0.0172-0.0099 0.0148-0.04178 0.0331-0.04961 0.0258-0.01109 0.055-0.01151 0.0827-0.01654 0.0586-0.01066 0.28957-0.04894 0.31419 0.04134 0.0408 0.14967-0.47357 0.28482-0.53744 0.1571-0.0153-0.03069 9e-3 -0.08247 0.0331-0.09922 0.0596-0.0419 0.12207-0.08172 0.19017-0.10749 0.0861-0.03257 0.43468 0.0071 0.3638 0.14883-0.0516 0.10321-0.53789 0.12094-0.59531-0.0083-0.0265-0.05956 0.0469-0.10105 0.0909-0.10749 4e-3 -5.3e-4 0.29718-0.03073 0.37207-0.0083 0.0256 0.0077 0.12409 0.07984 0.0909 0.12402-0.0111 0.01479-0.0315 0.02106-0.0496 0.02479-0.16669 0.03449-0.34627 0.04862-0.47956-0.07441-0.0225-0.02077-0.0526-0.05506-0.0331-0.09095 0.0651-0.11932 0.54293-0.08949 0.51263 0.10749-0.025 0.16259-0.45059 0.03722-0.52917 0-0.0525-0.02487-0.0946-0.08766-0.0744-0.09922 0.0424-0.02424 0.26196-0.01998 0.29765-0.01654 0.0393 0.0038 0.0773 0.01614 0.11576 0.02479 0.0717 0.01614 0.14418 0.0297 0.21497 0.04961 0.0502 0.01413 0.051 0.01656 0.0579 0.05788 7.9e-4 0.0054 4e-3 0.0123 0 0.01654-0.0253 0.03036-0.0825 0.05617-0.11575 0.06614-0.022 0.0066-0.21401 0.0428-0.23151 0.01654-0.0284-0.04259 0.0866-0.07312 0.0909-0.07441 0.0758-0.02275 0.15289-0.0342 0.23151-0.04134 0.011-0.0011 0.0441 0 0.0331 0h-0.0331c-3e-3 0-0.011 2.64e-4 -8e-3 0 0.0248-0.0031 0.0496-0.0055 0.0744-0.0083"/>
    <path d="m117.47 15.864c-2e-3 -0.03381 0.0258-0.08824-5e-3 -0.10142-0.0661-0.02791-0.14327 0.0068-0.21497 0.0083-0.0634 0.0013-0.1268 0.0013-0.19017 0-0.2902-0.0063-0.57782-0.05453-0.86816-0.06615-0.0248-0.0011-0.0496 0-0.0744 0h-8e-3c0.207 0 0.4132 0.0041 0.62011 0.0083 0.0964 0.0019 0.23343-0.0159 0.33073 0.01654 3e-3 7.94e-4 -6e-3 -1.83e-4 -8e-3 0-0.0386 0.0026-0.0772 0.0054-0.11576 0.0083-0.27373 0.02053-0.5441 0.05292-0.81855 0.06615-0.49564 0.02389-0.99224 0.03705-1.4883 0.04961-0.16834-0.0011-0.33621 0.01212-0.50437 0.01654-0.0358 0.0011-0.0768 0.01844-0.10748 0-0.0202-0.01212 0.0431-0.02006 0.0661-0.02479 0.071-0.01463 0.14288-0.02543 0.21498-0.03307 0.28531-0.03026 0.40997-0.02664 0.7028-0.03307 0.15052-0.0033 0.51095-0.01384 0.67799-0.0083 0.0663 0.0021 0.13229 0.01103 0.19844 0.01654 0.0331 0.0028 0.0664 0.0032 0.0992 0.0083 4e-3 5.29e-4 0.0119 0.0068 8e-3 0.0083-0.10291 0.04117-0.49579 0.04709-0.57051 0.04961-0.33684 0.01135-0.5341 0.0083-0.87643 0.0083-0.60531 0-0.32545 3e-3 -0.9095-0.0083-0.2043-0.0039-0.71862 0.01127-0.92604-0.05788-0.019-0.0063 0.0383-0.01238 0.0579-0.01654 0.0714-0.01513 0.14276-0.03089 0.21498-0.04134 0.13736-0.01987 0.27514-0.03759 0.41341-0.04961 0.4952-0.04306 0.54326-0.03307 1.0253-0.03307 0.35943 0 0.34803-7e-3 0.67799 0.01654 0.0747 0.0053 0.15222 0.0011 0.22325 0.02479 4e-3 0.0013-4e-3 0.0075-8e-3 0.0083-0.0382 0.0076-0.0769 0.01283-0.11575 0.01654-0.27467 0.02617-0.31396 0.01654-0.63666 0.01654-0.37222 0-0.744-0.0083-1.1162-0.0083-0.0168 0-0.36194 0.0092-0.41341-0.01654-0.0345-0.01725 0.0772 0 0.11576 0 0.11024 0 0.22049 0.0011 0.33072 0 0.15712-0.0016 0.3142-0.0055 0.47129-0.0083 0.17364 0 0.34727 0.0011 0.5209 0 1.5947-0.0098 0.37027-0.01865 1.0418 0 0.0276 7.94e-4 0.0553-0.0034 0.0827 0 6e-3 7.94e-4 -0.0104 0.0079-0.0165 0.0083-0.0468 0.0024-0.0937 0-0.14056 0h-0.28112c-0.61418 0-1.2318 8e-3 -1.8438-0.04961-0.0939-0.0088-0.18851-0.015-0.28112-0.03307-0.0218-0.0043-0.0794-0.02768-0.0579-0.03307 0.0831-0.02077 0.17079-0.01259 0.25632-0.01654 0.15427-0.0071 0.30862-0.01302 0.46302-0.01654 0.48506-0.01103 0.77164-0.0083 1.2568-0.0083 0.89705 0 0.0538-0.0036 0.80202 0.0083 0.0579 7.94e-4 0.11595-0.0048 0.17363 0 0.01 7.94e-4 0.0337 0.01209 0.0248 0.01654-0.0223 0.01117-0.0495 0.0063-0.0744 0.0083-0.0799 0.0063-0.15989 0.01056-0.23978 0.01654-0.1406 0.01056-0.28094 0.02471-0.42168 0.03307-0.36079 0.0214-0.72202 0.03465-1.0831 0.04961-0.28935 0.01199-0.5787 0.02416-0.86816 0.03307-0.0689 0.0021-0.13785 0.0024-0.20671 0-0.0113-2.64e-4 -0.0411-2.33e-4 -0.0331-0.0083 0.0118-0.01185 0.0329-0.0068 0.0496-0.0083 0.25896-0.02331 0.51777-0.04906 0.77721-0.06615 0.56644-0.03731 1.1359-0.03815 1.7033-0.04961 0.12127-0.0024 0.2425-0.0083 0.3638-0.0083 0.0635 0 0.12708 0.0016 0.19017 0.0083 0.0148 0.0016 0.0358 0.0028 0.0413 0.01654 0.0113 0.02822-0.1301 0.05528-0.1819 0.06615-0.11798 0.02474-0.23585 0.05178-0.35554 0.06615-0.35814 0.04298-0.6458 0.03607-1.0087 0.03307-0.39691-0.0033-0.46794-0.0042-0.84336-0.03307-0.0883-0.0068-0.17721-0.01024-0.26458-0.02479-0.0136-0.0024-0.0456-0.0191-0.0331-0.02479 0.038-0.01725 0.0824-0.01442 0.12403-0.01654 0.12114-0.0062 0.24252-0.0062 0.3638-0.0083 0.20394-0.0035 0.40795-0.01352 0.61185-0.0083 0.30653 0.0079 0.91947 0.06053 1.2402 0.09095 0.12969 0.0123 0.25916 0.02678 0.38861 0.04134 0.091 0.01024 0.18327 0.01387 0.27285 0.03307 0.0145 0.0031-0.0267 0.0141-0.0413 0.01654-0.0685 0.0114-0.13756 0.01897-0.20671 0.02479-0.12659 0.01069-0.25328 0.02479-0.38033 0.02479-0.65515 0-0.8648-0.0059-1.4139-0.06615-0.0829-0.0091-0.16592-0.01847-0.24805-0.03307-0.0421-0.0075-0.0915-0.0052-0.12402-0.03307-0.0172-0.01479 0.0437-0.01307 0.0661-0.01654 0.0851-0.0131 0.17031-0.02824 0.25632-0.03307 0.15963-9e-3 0.3197-6e-3 0.47956-0.0083 0.55132-0.0079 1.1023-0.0083 1.6536-0.0083 0.0965 0 0.193-0.0036 0.28939 0 0.0499 0.0019 0.0995 0.0088 0.14883 0.01654 4e-3 5.29e-4 0.0119 0.0068 8e-3 0.0083-0.14284 0.05714-0.70903 0.07137-0.82682 0.07441-0.35135 0.0091-0.56545 0.0084-0.90124-0.03307-0.0971-0.01199-0.19357-0.02965-0.28938-0.04961-0.0367-0.0076-0.0754-0.01379-0.10749-0.03307-9e-3 -0.0051 0.015-0.01498 0.0248-0.01654 0.0601-0.0096 0.12111-0.01312 0.1819-0.01654 0.28812-0.01624 0.62449-0.02545 0.90951-0.01654 0.18489 0.0058 0.36932 0.02188 0.55397 0.03307 0.30636 0.01857 0.6266-0.02265 0.91777 0.07442 4e-3 0.0013-5e-3 0.0072-8e-3 0.0083-0.0464 0.01288-0.0925 0.03029-0.14056 0.03307-0.28627 0.01656-0.57315 0.02479-0.8599 0.02479-0.18209 0-0.3647-0.0049-0.5457-0.02479-0.27161-0.02981-0.54138-0.07557-0.81029-0.12402-0.0378-0.0068-0.0783-0.01635-0.10749-0.04134-0.0127-0.0109 0.033-0.0063 0.0496-0.0083 0.0798-0.0091 0.15967-0.01865 0.23978-0.02479 0.13491-0.01037 0.26989-0.02132 0.40515-0.02479 0.50591-0.01296 1.0191 0.0087 1.5214 0.07441 0.0863 0.0113 0.17202 0.028 0.25631 0.04961 0.0239 0.0061 0.0525 0.01257 0.0662 0.03307 7e-3 0.01027-0.021 0.014-0.0331 0.01654-0.18404 0.03888-0.36752 0.08263-0.55397 0.10749-0.38096 0.05079-0.79648 0.04101-1.1658-0.07441-0.0212-0.0066 0.044-0.0065 0.0661-0.0083 0.0799-0.0065 0.15969-0.01471 0.23978-0.01654 0.0625-0.0013 0.8827-0.01871 1.1493 0 0.0556 0.0039 0.11053 0.01484 0.16537 0.02479 6e-3 0.0011 0.0223 0.0061 0.0165 0.0083-0.0263 0.0099-0.0546 0.01497-0.0827 0.01654-0.2203 0.01225-0.44084 0.0214-0.66146 0.02479-0.13781 0.0021-0.27581-2.65e-4 -0.41341-0.0083-0.0997-0.0058-0.19906-0.01738-0.29765-0.03307-0.0233-0.0037-0.0879-0.01574-0.0662-0.02479 0.0511-0.0213 0.11005-0.01363 0.16537-0.01654 0.10187-0.0054 0.20391-0.0083 0.30592-0.0083 0.33124 0 0.48476 0.0063 0.80202 0.03307 0.0773 0.0065 0.15508 0.01132 0.23151 0.02479 0.0182 0.0032 0.0496 0.0063 0.0496 0.02479 0 0.01677-0.0331 0.0057-0.0496 0.0083-0.0716 0.01119-0.14294 0.02484-0.21497 0.03307-0.36056 0.04121-0.73881 0.08085-1.0914-0.03307-0.0762-0.02463-0.15833-0.05084-0.21498-0.10749-0.0192-0.01918 0.048-0.02703 0.0744-0.03307 0.0707-0.01617 0.14285-0.02564 0.21497-0.03307 0.31453-0.03238 0.6286-0.04008 0.94258 0 0.0472 6e-3 0.0941 0.01447 0.14056 0.02479 4e-3 7.94e-4 0.01 0.0048 8e-3 0.0083-3e-3 0.0055-0.0104 0.0079-0.0165 0.0083-0.0413 0.0024-0.0827-0.0011-0.12402 0-0.16119 0.0045-0.21252 0.019-0.38034 0-0.0779-0.0088-0.15443-0.02707-0.23151-0.04134-3e-3 -5.29e-4 6e-3 2.49e-4 8e-3 0 0.0276-0.0024 0.055-0.0075 0.0827-0.0083 0.0661-0.0019 0.1323 0 0.19844 0 0.2431 0 0.21071-0.0059 0.44649 0.01654 0.0609 0.0058 0.12384 0.0054 0.1819 0.02479 9e-3 0.0029-0.0207 0.01386-0.0827 0.02479-0.40723 0.07187-0.0733 0.01069-0.33899 0.04134-0.0333 0.0038-0.0659 0.0132-0.0992 0.01654-6e-3 5.29e-4 0.0105-0.0072 0.0165-0.0083 0.0245-0.0045 0.0498-0.0042 0.0744-0.0083 0.16888-0.02815 0.0832-0.02886 0.26458-0.03307 0.0716-0.0016 0.14332 0 0.21498 0 0.022 0 0.0461-0.0092 0.0661 0 0.0258 0.01188 0.064 0.05739 0.0413 0.07441-0.0464 0.03483-0.0785 0.02619-0.0524 0.09315z"/>
    <path d="m120.53 15.511c-0.71139 0.27577-1.4413 0.5071-2.1983 0.60804-0.446 0-0.12042-0.02267-0.46772 0.04677-0.0153 0.0031-0.0624 0-0.0468 0 0.39013 0 0.77903-0.14527 1.1693-0.18709 0.58813-0.06301 1.1861-0.09354 1.7773-0.09354 0.0156 0-0.0318-0.0043-0.0468 0-0.0948 0.02709-0.18372 0.07537-0.28064 0.09354-0.67325 0.12624-1.3772 0.09355-2.058 0.09355h-0.42095c-0.0312 0-0.0935 0.03118-0.0935 0 0-0.02906 0.32054-0.12112 0.46772-0.14032 0.77118-0.10059 1.5618-0.14032 2.3386-0.14032h0.42095c0.0312 0 0.1238-0.0076 0.0935 0-0.22581 0.05645-0.59417 0.07201-0.79513 0.09354-1.1281 0.12087-0.43999 0.09354-1.4967 0.09354h-0.65481c-0.12472 0-0.25317 0.03025-0.37417 0-0.0624-0.01558 0.12337-0.03828 0.18708-0.04677 0.1707-0.02275 0.34315-0.02964 0.5145-0.04677 0.71472-0.07147 1.1892-0.13379 1.9177-0.18709 0.29584-0.02164 0.59203-0.04677 0.88867-0.04677 0.0948 0-0.18696 0.03198-0.28064 0.04677-0.20255 0.03198-0.40429 0.07026-0.60803 0.09355-0.77352 0.0884-1.3682 0.12167-2.1515 0.14032-0.0381 7.94e-4 -1.1122 0.05452-1.3096-0.09355-0.0759-0.0569 0.18747-0.02903 0.28063-0.04677 0.23428-0.04462 0.46573-0.10494 0.70158-0.14032 0.92602-0.1389 1.2881-0.15951 2.1983-0.18709 0.17142-0.0052 0.343 0 0.5145 0 0.0312 0 0.12379-0.0076 0.0935 0-1.1437 0.28594-2.3811 0.32741-3.5547 0.32741h0.3274 1.4499c0.3274 0 0.65927-0.05383 0.98222 0 0.0973 0.01622-0.1829 0.08051-0.28064 0.09354-0.44555 0.05941-0.60268 0.04461-1.0758 0.09354-0.25006 0.02588-0.49868 0.06417-0.74835 0.09355-0.0155 0.0019-0.0624 0-0.0468 0 0.20838 0 0.39965-0.04677 0.60803-0.04677"/>
   </g>
  </g>
 </g>
</svg>
