<svg width="185.96mm" height="231.89mm" version="1.1" viewBox="0 0 185.96 231.89" xmlns="http://www.w3.org/2000/svg">
 <title>files</title>
 <g transform="translate(153.88 -38.701)">
  <g transform="translate(-173.9 115.22)">
   <g stroke-opacity="0">
    <path d="m72.047 67.533c-0.08198-48.208-0.14156-87.674-0.1324-87.701 0.0092-0.02763 29.925 0.03913 66.481 0.14836l66.464 0.19859 0.23432 72.442c0.12887 39.843 0.33769 79.219 0.46404 87.503l0.22973 15.061h-133.59z"/>
    <path d="m57.559 65.571c-7.4931-45.794-13.518-83.367-13.389-83.496 0.38064-0.38063 117.52-32.338 117.94-32.176 0.48452 0.18593 10.89 25.99 10.579 26.235-0.0596 0.04695-23.671 0.36622-52.471 0.7095s-52.422 0.68387-52.495 0.75689c-0.07301 0.07302 0.72392 37.828 1.771 83.901 1.0471 46.072 1.8543 84.57 1.794 85.55-0.06831 1.1091-5.2534-29.653-13.734-81.48z"/>
    <path d="m44.661 58.638c-13.558-47.549-24.564-86.54-24.458-86.646 0.25926-0.25926 113.39-48.443 113.47-48.327 0.0332 0.05003 2.5872 5.7317 5.6757 12.626l5.6154 12.535-3.215 0.96716c-50.948 15.327-102.07 30.835-102.3 31.034-0.16661 0.14304 6.5304 36.948 14.882 81.79 8.3519 44.841 15.139 81.742 15.083 82.002s-11.195-38.431-24.754-85.98z"/>
   </g>
  </g>
 </g>
</svg>
