<svg width="38.096mm" height="39.131mm" version="1.1" viewBox="0 0 38.096 39.131" xmlns="http://www.w3.org/2000/svg">
 <title>headphone_muted</title>
 <g transform="translate(51.624 -118.94)">
  <g transform="translate(-110.77 31.092)">
   <g stroke-opacity="0">
    <path d="m85.54 126.71c-0.98526-0.28366-2.6578-1.2724-4.0689-2.4054-1.0252-0.82319-1.0258-0.82392-1.2259-1.4826-0.1101-0.36247-0.20017-0.70193-0.20017-0.75437 0-0.0524 0.24717-0.76871 0.54926-1.5917 0.4878-1.3289 0.67775-1.7015 1.6975-3.3297 1.1852-1.8922 2.3109-3.292 4.2353-5.2663l0.84121-0.86305 1.2284 0.17454c0.67563 0.096 1.5686 0.17515 1.9844 0.1759l0.75595 1e-3 1.4851-3.4645 0.07228-2.7593 0.07227-2.7593-0.54346-1.8341-0.54345-1.8341-2.6216-4.4579-1.9371-0.94735c-1.6281-0.79592-2.3139-1.0681-4.2995-1.706l-2.3624-0.759-4.3467 0.02628-2.0789 0.47995c-1.9349 0.44671-2.2327 0.5453-4.2995 1.4234l-2.2206 0.94343-0.99926 1.2433c-0.54959 0.68383-1.3694 1.8632-1.8218 2.6208-0.81806 1.3701-0.82534 1.3879-1.3465 3.3073-0.48006 1.768-0.53604 2.0803-0.66774 3.7252l-0.14375 1.7954 0.74684 3.3256 1.3924 1.739 1.3726-0.0149c1.116-0.0122 1.5338 0.0233 2.2349 0.1895l0.86226 0.20446 0.82919 1.0537c0.88679 1.1269 2.4261 3.4637 4.0367 6.1284 0.99101 1.6395 0.99374 1.6457 1.2966 2.9477l0.30355 1.3048-0.46995 0.6778c-0.44063 0.63552-0.51756 0.69893-1.233 1.0164-0.43887 0.19475-0.99556 0.53998-1.3103 0.81255-0.77092 0.66773-0.91835 0.74236-1.8306 0.92664-1.0871 0.21958-2.2927 0.0995-2.5892-0.25786-2.9576-3.5648-3.5777-4.5329-5.1404-8.0253l-1.2561-2.8072 0.87158-2.3232-1.8211-5.1027 0.1297-6.6739 1.1536-2.7713 1.1536-2.7713 4.1786-4.5147 5.9683-2.7804 4.7614-0.7933 4.5514 0.62717 5.2582 2.2749 3.9077 4.0471 2.3916 4.5676 0.98686 5.0684-0.66124 4.9506-0.72504 1.6051c-0.69976 1.5492-0.72699 1.6365-0.78095 2.5041-0.05237 0.84194-0.04011 0.93017 0.19323 1.3906 0.13703 0.27042 0.24901 0.54624 0.24885 0.61294-1.9e-4 0.0667-0.21175 0.79081-0.47018 1.6092-0.43479 1.3768-0.5518 1.6268-1.5671 3.3475-1.4138 2.3961-3.531 5.0705-4.6729 5.903l-0.71804 0.52341z"/>
    <path d="m59.97 125.81-0.75261-0.75705 36.297-36.297 0.79661 0.58524c0.43814 0.32188 0.83804 0.62353 0.88869 0.67034 0.05731 0.05297-6.7934 6.9707-18.143 18.32-10.029 10.029-18.257 18.235-18.284 18.235-0.02726 0-0.38823-0.34067-0.80217-0.75705z"/>
   </g>
  </g>
 </g>
</svg>
