<svg width="89.443mm" height="83.439mm" version="1.1" viewBox="0 0 89.443 83.439" xmlns="http://www.w3.org/2000/svg">
 <title>heart</title>
 <g transform="translate(116.29 -90.957)">
  <g transform="matrix(.26458 0 0 .26458 -173.08 57.844)">
   <path d="m365.68 438.47c-15.42-3.345-33.281-11.27-44.855-19.902-17.132-12.777-43.115-37.952-56.974-55.202-25.289-31.475-42.271-67.423-47.535-100.62-1.5287-9.6409-1.5213-28.598 0.016-41.096 3.054-24.828 15.242-48.681 33.884-66.315 10.336-9.777 16.983-14.167 29.718-19.627 12.376-5.306 22.783-7.1088 40.877-7.081 17.912 0.0276 19.386 0.39895 39.858 10.042 13.506 6.3618 13.957 6.4893 24.646 6.9647 12.733 0.56631 15.204-0.0819 36.364-9.5398 22.803-10.192 32.725-11.904 54.242-9.3598 7.541 0.89168 11.422 2.0297 18.125 5.3148 21.384 10.48 33.194 21.167 41.82 37.844 11.38 22.002 16.288 42.723 16.288 68.766 0 28.985-7.039 56.157-23.05 88.979-9.5002 19.475-25.813 40.259-47.713 60.791-13.111 12.292-34.95 30.128-41.981 34.285-7.414 4.3839-30.793 14.139-37.904 15.816-8.2588 1.9474-26.721 1.918-35.825-0.0572z" fill="#1a1a1a" stroke-opacity="0"/>
  </g>
 </g>
</svg>
