<svg width="197.55mm" height="198.05mm" version="1.1" viewBox="0 0 197.55 198.05" xmlns="http://www.w3.org/2000/svg">
 <title>home</title>
 <g transform="translate(57.054 6.979)">
  <g transform="matrix(.26458 0 0 .26458 -111.76 11.977)">
   <g transform="translate(5.3354 2.6677)" stroke-opacity="0">
    <g fill="#1a1a1a">
     <path transform="translate(196.3 -76.873)" d="m79.035 574.4c-0.02535-2.2997 4.0786-78.301 4.244-78.596 0.18764-0.33412 29.362-4.2121 29.548-3.9277 0.10363 0.15833-0.91063 19.161-2.2539 42.227l-2.4423 41.939-29.072 0.52623z"/>
     <path transform="translate(196.3 -76.873)" d="m225.85 623.49c-13.368-1.312-24.484-2.5507-24.702-2.7526-0.67552-0.62623 5.7448-134.17 6.5488-136.22 0.69377-1.7642 2.888-2.1607 25.702-4.6438 13.719-1.4932 25.19-2.4685 25.491-2.1672 0.93624 0.93624-2.9352 144.12-3.9796 147.19-0.49571 1.4546 0.64121 1.5096-29.061-1.4055z"/>
     <path transform="translate(196.3 -76.873)" d="m407.58 552.11c0.32324-41.358 0.64455-75.277 0.71401-75.376 0.13397-0.18974 43.748 8.479 44.194 8.7839 0.14392 0.0985 0.88898 30.993 1.6557 68.656 0.92923 45.644 1.0755 68.673 0.4387 69.067-0.52543 0.32474-8.5622 1.1196-17.86 1.7663-9.2973 0.64672-19.79 1.4287-23.317 1.7377l-6.413 0.56189z"/>
     <path transform="translate(196.3 -76.873)" d="m489.13 556.69c0.14859-35.666 0.52018-65.098 0.82575-65.403 0.60495-0.60438 33.25 5.7668 34.148 6.6644 0.4708 0.47081 2.1421 121.67 1.6831 122.06-0.0913 0.0767-8.4372 0.45178-18.546 0.83348l-18.38 0.694z"/>
     <path transform="translate(196.3 -76.873)" d="m647.78 586.47c-0.34777-15.081-0.63231-35.43-0.63231-45.22v-17.8l8.1981 1.2121c4.509 0.66666 8.3187 1.3475 8.466 1.513 0.14732 0.16551 0.57976 19.71 0.96096 43.432l0.69309 43.131-5.1082 0.0105c-2.8095 6e-3 -6.6465 0.26498-8.5268 0.57602l-3.4186 0.56553z"/>
     <path transform="translate(196.3 -76.873)" d="m597.23 642.18c-0.57863-30.466-0.48369-34.674 0.79851-35.392 2.0104-1.1251 1.8645-6.1151-0.21282-7.2765-1.4942-0.83538-1.7013-3.1245-1.9869-21.97l-0.31886-21.038h21.131v117.04l-6.4339 1.0866c-3.5386 0.5976-7.7583 1.3197-9.377 1.6047l-2.9431 0.51812z"/>
     <path transform="translate(196.3 -76.873)" d="m580.4 679.33c-0.0857-1.5023-2.8055-116.49-2.8205-119.25l-0.0195-3.5744h16.204l0.18883 20.255c0.10385 11.14 0.26044 21.97 0.34798 24.067 0.0875 2.097 0.49625 20.162 0.90826 40.143l0.7491 36.331-5.6246 0.67504c-3.0935 0.37128-6.5897 0.90421-7.7692 1.1843-1.1795 0.2801-2.1534 0.35553-2.1641 0.16764z"/>
     <path transform="translate(196.3 -76.873)" d="m577.37 542.92c-0.21763-6.422-0.37004-11.736-0.33869-11.809 0.0403-0.0936 36.883 5.783 39.375 6.2804 0.13106 0.0262 0.23829 3.9079 0.23829 8.6261v8.5785h-38.879z"/>
     <path transform="translate(196.3 -76.873)" d="m618.55 604.2v-68.585l-3.0978-0.53299c-7.0192-1.2077-38.945-6.2256-39.61-6.2256-0.39528 0-0.63939 11.259-0.54246 25.021l0.17624 25.021-0.86673-29.464c-0.47671-16.205-0.74821-29.583-0.60336-29.728 0.14486-0.14486 10.441 2.1501 22.88 5.0999l22.617 5.3632v71.308c0 39.219-0.21446 71.308-0.47658 71.308s-0.47659-30.863-0.47659-68.585z"/>
     <path transform="translate(196.3 -76.873)" d="m705.24 486.74c-7.0432-2.4784-11.995-4.5538-11.004-4.6121 1.363-0.0801 1.7393-2.6493 1.5455-10.553-0.14089-5.7458-0.13196-11.053 0.0198-11.795 0.9091-4.4393-0.55292-10.919-2.8222-12.509-2.2917-1.6051-2.55-3.4874-2.4104-17.56 0.16551-16.683 0.5112-17.205 1.87-2.8237l0.84042 8.8947 8.889 3.6504c7.9673 3.2719 9.1022 3.4372 10.945 1.5941s1.8338-2.3053-0.0894-4.4573c-1.7694-1.9799-2.4432-9.3868-3.8424-42.237l-1.6967-39.836-8.6661-5.7535c-4.7664-3.1644-9.0112-5.4084-9.433-4.9866-0.42178 0.42179-0.0736 14.531 0.77373 31.353s1.2678 30.859 0.93439 31.192c-1.9404 1.9404-3.3247-10.226-5.0429-44.325-1.6129-32.008-1.6349-38.837-0.13345-41.329 0.98927-1.642 1.7987-4.2045 1.7987-5.6943 0-1.6902 1.6401-3.5569 4.3617-4.9643 4.6641-2.4119 17.204-12.744 17.205-14.176 3.7e-4 -0.47346-18.349-17.748-40.776-38.388-22.427-20.64-43.883-40.436-47.68-43.991l-6.9038-6.464-20.056 4.8086c-11.031 2.6447-20.972 4.5735-22.093 4.2862-1.1204-0.28729-39.5-29.43-85.288-64.762-45.788-35.332-83.845-64.239-84.571-64.239-0.82336 0-1.3204 11.79-1.321 31.341-6.2e-4 17.237-0.40275 70.848-0.89362 119.14l-0.89248 87.795-4.7922-2.0023c-3.4497-1.4414-7.0311-1.749-12.785-1.098l-7.9924 0.90422 0.86267-40.192c0.47447-22.105 1.1792-66.882 1.566-99.503 0.38682-32.621 1.0436-67.293 1.4596-77.049 0.73007-17.123 0.65894-17.768-2.0534-18.629-2.1071-0.66876-21.936 9.4643-79.296 40.522-42.067 22.778-77.159 41.422-77.981 41.433-0.8222 0.0108-7.9948-2.5939-15.939-5.7867-12.233-4.9164-14.71-5.5183-16.184-3.9316-1.1587 1.2476-2.2811 10.431-3.3596 27.485-0.89077 14.086-1.9545 27.853-2.3639 30.592l-0.74435 4.9799-5.4235-2.17c-4.2336-1.694-6.2686-1.8511-9.2756-0.71605-3.7345 1.4096-3.8512 1.3238-3.824-2.8098 0.0154-2.3451 0.9127-14.879 1.9939-27.854 2.4957-29.947 2.5333-28.308-0.64973-28.308-1.8546 0-111.82 70.046-119.82 76.321-0.72396 0.56805-18.918 205.98-18.3 206.6 0.28465 0.28517 30.055-6.2609 66.157-14.547l65.639-15.065 44.72 7.2595 85.076-19.749c46.792-10.862 85.462-19.749 85.934-19.749s0.85749-12.655 0.85749-28.122v-28.122l7.8176-1.259c6.7278-1.0835 8.654-0.87449 13.817 1.499l5.9992 2.758v53.798l86.945 31.272c83.481 30.026 86.961 31.15 87.353 28.218 0.45091-3.3713 2.1298-3.6578 32.79-5.5947l14.327-0.90508 71.771 29.255v6.4544c0 3.5499-0.15476 6.4544-0.3439 6.4544s-16.882-6.3387-37.095-14.086l-36.751-14.086-45.2 3.9579-187.35-59.19-185.95 40.146-45.831-8.2571-66.523 14.435c-45.515 9.8762-66.96 13.997-67.907 13.05s0.8078-34.468 5.5573-106.15c3.8179-57.618 6.5822-105.13 6.1429-105.58-0.43936-0.44924-5.4574-2.3835-11.151-4.2984-10.097-3.3956-10.358-3.5955-10.587-8.0879-0.12888-2.5334-1.1274-7.082-2.219-10.108l-1.9846-5.5016 68.603-51.451c59.806-44.853 69.209-51.451 73.325-51.451 4.1008 0 4.7217-0.43049 4.7217-3.2737 0-7.9929 9.2036-9.9988 16.497-3.5955 4.1841 3.6737 33.005 16.305 37.204 16.305 1.056 0 45.667-26.338 99.135-58.53s97.869-58.73 98.669-58.974c1.5865-0.48504 347 309.88 347 311.79 0 0.64451-0.87975 1.1718-1.955 1.1718-1.3859 0-2.2175 2.3196-2.8565 7.968-1.0282 9.0885 1.0622 8.0332-21.811 11.011l-12.469 1.6234v6.6374c0 7.095 6.084 118.29 7.4891 136.88 0.46241 6.1165 0.33135 11.073-0.29124 11.015-0.62259-0.0582-6.8946-2.1336-13.938-4.6121z"/>
     <path transform="translate(196.3 -76.873)" d="m149.15 364.24c0.32236-1.5725 2.8548-33.492 5.6276-70.932 3.0118-40.668 5.6177-68.485 6.4728-69.096 3.4325-2.453 7.9689-2.5438 13.031-0.2609l5.3673 2.4203-0.79797 8.8676c-0.43889 4.8772-2.5684 36.397-4.7323 70.044-2.1639 33.647-4.2585 61.5-4.6548 61.897-0.39622 0.39623-3.2975 0.13466-6.4473-0.58125-3.1498-0.7159-7.6903-0.89616-10.09-0.40056-3.935 0.81269-4.3055 0.62065-3.7768-1.958z"/>
     <path transform="translate(196.3 -76.873)" d="m148.11 390.36 0.26547-20.893 4.1747-0.85382c2.2961-0.46961 7.2679-0.16675 11.048 0.67302l6.8737 1.5268-0.27452 12.806c-0.15099 7.0432-0.84444 13.382-1.541 14.086s-1.2679 4.0406-1.2696 7.4139l-3e-3 6.1333h-19.539z"/>
     <path transform="translate(196.3 -76.873)" d="m90.775 374.95c0-1.288-0.53616-2.3554-1.1915-2.3721-0.71238-0.0181-0.50238-0.55289 0.52228-1.33 1.5205-1.153 2.2344-7.8748 6.3305-59.598 2.5392-32.064 4.7741-58.456 4.9663-58.648s8.4956-4.8621 18.452-10.378c15.296-8.4734 18.147-9.7559 18.394-8.2727 0.27297 1.6433-7.706 112.36-8.9433 124.1l-0.56709 5.3796-10.165 3.5625c-5.5906 1.9594-14.132 4.9888-18.981 6.7321l-8.8168 3.1695zm26.212-14.623 9.5317-3.7023 0.28005-6.7823c0.15403-3.7302 0.0295-6.7823-0.27682-6.7823-0.30628 0-5.2132 1.9759-10.904 4.391-11.334 4.8097-11.498 5.008-11.498 13.903 0 4.3344-1.1757 4.4282 12.868-1.0266zm-0.58175-19.596c4.2963-2.1771 4.6374-2.6226 5.2107-6.8052 0.33739-2.4616 0.61344-8.1081 0.61344-12.548 0-9.0748 0.24135-8.9072-7.9192-5.4975-3.4197 1.4289-3.5189 1.6107-3.5245 6.4616-3e-3 2.7452-0.28118 8.53-0.61786 12.855-0.69942 8.9847-0.65321 9.0257 6.2374 5.534zm2.6326-28.651 4.9104-1.736 0.38387-11.998c0.21113-6.599 0.27486-12.155 0.14164-12.348-0.13323-0.19209-2.6711 0.65744-5.6397 1.8879-3.5674 1.4786-5.6843 2.9916-6.2434 4.4623-1.3809 3.632-1.0847 22.407 0.34545 21.895 0.6553-0.23481 3.4011-1.2081 6.1018-2.1629zm2.6702-27.241 4.0743-1.8023 0.68413-12.009c0.37627-6.6047 0.42175-12.271 0.10106-12.592-0.81356-0.81356-11.149 2.8068-11.513 4.0328-0.16357 0.55095-0.56903 6.5066-0.90103 13.235-0.6848 13.878-1.3503 13.074 7.5547 9.1346z"/>
     <path transform="translate(196.3 -76.873)" d="m43.528 381.08c0.31251-2.3006 2.7067-24.535 5.3203-49.41 2.6137-24.875 5.074-45.525 5.4673-45.888 0.39332-0.36319 5.3824-3.2938 11.087-6.5124l10.372-5.852-0.60184 3.0092c-0.33101 1.6551-0.6516 5.2074-0.71241 7.8942-0.06081 2.6867-0.30673 4.1344-0.54647 3.2169-0.23975-0.91742-1.0233-1.668-1.7413-1.668-2.464 0-8.0995 4.0092-8.5113 6.0552-0.62729 3.1166-1.3887 20.633-0.89688 20.633 0.23753 0 2.6235-1.1106 5.3022-2.468l4.8703-2.468-0.61274 3.0637c-0.33701 1.685-0.68677 5.0475-0.77725 7.4721-0.15104 4.0473-0.20959 3.9239-0.71487-1.5064l-0.55036-5.9148-9.8024 5.6726-0.6791 10.395c-0.3735 5.7175-0.41714 10.819-0.09698 11.337 0.32016 0.51803 0.12653 1.0937-0.4303 1.2794-1.5396 0.51321-3.7176 23.654-2.2262 23.654 2.5921 0 9.7664-3.7884 10.247-5.4111 0.28332-0.95569 0.27651 2.9806-0.01514 8.7472-0.29164 5.7666-0.5932 10.518-0.67013 10.56-0.07693 0.0411-4.858 1.7195-10.625 3.7296-5.7667 2.0102-11.056 3.8588-11.754 4.1082-0.98542 0.35182-1.1425-0.48313-0.70146-3.7296z"/>
     <path transform="translate(196.3 -76.873)" d="m254.72 328.05c0-1.3283-0.75061-2.9848-1.668-3.6812-1.5446-1.1725-1.5094-1.2685 0.47658-1.2965 1.1795-0.0167 2.1343-0.56647 2.1216-1.2218-0.037-1.9176 5.968-129.86 6.0993-129.95 2.4926-1.7321 53.389-27.031 53.718-26.702 0.40975 0.40975-3.4628 146.83-3.8855 146.91-0.14781 0.0291-3.2702 1.0364-38.514 12.426l-18.348 5.9295zm34.857-16.823 17.091-6.0957 0.58226-9.9061-2.674 0.59224c-1.4707 0.32572-9.7513 2.8958-18.401 5.7112l-15.727 5.119-0.28586 5.3375c-0.21538 4.0215 0.0359 5.3375 1.0192 5.3375 0.71776 0 8.996-2.7431 18.396-6.0957zm-5.2269-15.908 8.2201-2.9404 0.61009-9.2124c0.33556-5.0668 0.61232-12.154 0.61503-15.748 4e-3 -5.8367-0.1735-6.4666-1.6631-5.8888-0.91742 0.35588-4.992 1.7958-9.0546 3.1998l-7.3866 2.5527-4.7e-4 8.1964c-2.5e-4 4.508-0.27786 11.478-0.61691 15.489-0.33945 4.0157-0.24063 7.2926 0.21993 7.2926 0.46001 0 4.5354-1.3232 9.0565-2.9404zm23.176-10.755c0.74801-2.7875 0.71822-29.197-0.0329-29.197-0.33236 0-2.2625 0.49682-4.2892 1.104l-3.685 1.104v31.953l3.7309-1.4655c2.2572-0.88668 3.9463-2.2682 4.2762-3.4977zm-21.254-23.524 7.2466-2.9152 0.61209-9.2428c0.76272-11.517 0.79385-20.204 0.0724-20.204-0.30226 0-4.1626 1.5521-8.5785 3.4492l-8.0289 3.4492v5.4594c0 3.0027-0.27869 9.3857-0.61931 14.184-0.50654 7.136-0.37635 8.7259 0.71487 8.73 0.7338 3e-3 4.5952-1.3067 8.5808-2.91zm22.565-24.172c0.16588-8.7476-0.0874-13.91-0.68254-13.91-0.52047 0-2.4621 0.72283-4.3147 1.6063l-3.3684 1.6063v29.389l8.1019-4.7818zm-21.71-7.5694 7.1487-3.0566 0.61143-5.6928c0.95144-8.8586 0.91513-24.28-0.0572-24.28-2.1702 0-14.901 6.8614-15.49 8.3485-0.89846 2.2682-0.969 27.889-0.0765 27.804 0.39318-0.037 3.9318-1.4428 7.8636-3.124zm22.316-11.5c0.69285-2.5805 0.72386-29.154 0.034-29.154-0.28932 0-2.2162 0.96508-4.2819 2.1446-3.5821 2.0454-3.7564 2.3651-3.7676 6.9104-6e-3 2.6212-0.29126 9.6182-0.63299 15.549l-0.62132 10.783 4.3679-2.1221c2.5123-1.2206 4.5947-2.967 4.9019-4.111z"/>
     <path transform="translate(196.3 -76.873)" d="m186.57 359.85-13.344-4.0094 0.25723-4.7211c0.14147-2.5966 1.9644-31.039 4.051-63.206s3.8003-59.618 3.8083-61.003c0.0305-5.259 0.64984-5.2588 15.782 5e-3 7.8252 2.722 14.328 5.0128 14.451 5.0906 0.12291 0.0779-1.7473 28.152-4.156 62.388-3.6404 51.741-4.162 62.381-3.0909 63.043 1.0262 0.63426 1.0476 1.0373 0.10509 1.9799-0.65092 0.65092-1.1835 1.9556-1.1835 2.8992 0 2.3515-1.2705 2.1636-16.68-2.4664zm4.2746-16.055c0.0138-7.856-0.10551-8.3493-2.13-8.8095-7.0881-1.6112-11.484-2.4388-11.696-2.2024-0.13401 0.14887-0.54932 4.21-0.92292 9.0248l-0.67927 8.7541 3.6706 0.95753c9.9389 2.5927 10.35 2.6534 11.043 1.631 0.38516-0.56842 0.70685-4.7784 0.71488-9.3555zm-1.5624-20.035c0.2978-1.7038 0.83223-7.6974 1.1876-13.319l0.64617-10.221-2.7496-1.0477c-1.5123-0.57625-3.8684-1.2724-5.2358-1.5471-2.3502-0.47205-2.5182-0.24662-3.0721 4.1203-0.32227 2.5408-0.86935 8.5324-1.2157 13.315l-0.62981 8.6948 4.1785 1.4764c5.8925 2.0821 6.2843 1.9984 6.8907-1.4708zm3.9628-40.756 0.67907-12.876-11.497-3.0805-0.51172 4.4082c-0.28145 2.4245-0.77967 8.5423-1.1072 13.595l-0.59545 9.187 5.5617 1.873c3.883 1.3077 5.7473 1.5556 6.1767 0.8213 0.33827-0.57843 0.92061-6.846 1.2941-13.928zm1.7866-17.863c0.28998-1.9659 0.79796-8.0781 1.1288-13.583l0.60158-10.008-5.096-1.7906c-2.8028-0.98486-5.5889-1.9792-6.1913-2.2097-1.0211-0.39068-1.3779 3.0039-2.515 23.927-0.19889 3.6598-0.12132 3.7518 4.5635 5.4068 6.6337 2.3436 6.9153 2.2782 7.5084-1.7429z"/>
     <path transform="translate(196.3 -76.873)" d="m446.31 312.64-24.306-11.999 0.24401-76.092c0.13421-41.851 0.58466-75.95 1.001-75.777s11.351 7.5697 24.3 16.436l23.543 16.12v67.409c0 66.608 0.0227 67.415 1.9063 67.908 2.4221 0.63337 2.4632 2.2154 0.0738 2.8402-1.046 0.27354-1.9665 1.4827-2.1446 2.8172-0.30388 2.2765-0.95097 2.0226-24.618-9.6614zm6.6722-37.638v-15.631l-8.6537-4.4694c-4.7595-2.4582-8.7508-4.3245-8.8695-4.1474-0.11871 0.1771-0.0402 7.1848 0.17451 15.573l0.39036 15.251 7.7643 4.4699c4.2704 2.4584 8.086 4.4958 8.4791 4.5275 0.39318 0.0317 0.71488-6.9762 0.71488-15.573zm-22.876-11.024c0-14.069-0.13908-15.292-1.8437-16.204-1.014-0.54268-2.1352-0.9867-2.4915-0.9867-0.68424 0 0.43362 30.467 1.1628 31.693 0.23394 0.39318 1.0434 0.71487 1.7988 0.71487 1.1385 0 1.3735-2.6032 1.3735-15.217zm21.931-17.429c5e-3 -5.8977 0.27264-12.923 0.59574-15.612l0.58746-4.8892-8.0795-4.4041c-4.4437-2.4223-8.3576-4.4041-8.6976-4.4041-0.34001 0-0.60828 6.97-0.59616 15.489l0.022 15.489 7.365 4.4446c4.0508 2.4446 7.6867 4.4819 8.0799 4.5275s0.7186-4.7425 0.72316-10.64zm-21.089-23.243c0.1057-8.2609-9e-3 -8.7861-2.238-10.247-1.2922-0.84666-2.5307-1.5394-2.7523-1.5394s-0.71551 6.0366-1.0975 13.415l-0.69458 13.415 5.464 5.7223 0.60347-6.0294c0.3319-3.3162 0.65359-9.9476 0.71487-14.737zm19.914-16.301-0.2625-15-6.4608-3.719c-3.5535-2.0454-6.6206-3.5524-6.8158-3.3488-0.19522 0.2036-0.66397 6.8497-1.0416 14.769l-0.68671 14.399 7.0259 3.9266c3.8642 2.1596 7.3585 3.9369 7.765 3.9495 0.40649 0.0126 0.62095-6.727 0.47658-14.977zm-19.915-14.341c0.11013-13.294 0.0625-13.632-2.0318-14.411l-2.1446-0.79751-1.6314 30.642 4.4909 3.6436 0.6021-2.7322c0.33116-1.5027 0.65285-8.8582 0.71488-16.346z"/>
     <path transform="translate(196.3 -76.873)" d="m534.95 357.67c-9.1742-4.4561-16.74-8.1717-16.812-8.257-0.35005-0.41178-2.4482-127.2-2.1351-129.03 0.33011-1.9238 1.7117-1.2329 16.358 8.1811 8.7984 5.6553 16.497 10.782 17.108 11.393 0.78403 0.78403 1.602 18.394 2.7792 59.83 1.5428 54.306 1.7972 58.816 3.385 60.02 1.6116 1.2221 1.6146 1.3037 0.0488 1.3322-1.1357 0.0206-1.668 0.79077-1.668 2.4132 0 1.3153-0.53383 2.3456-1.1915 2.2997-0.6553-0.0457-8.6976-3.7291-17.872-8.1852zm0.74254-34.825-0.26595-12.592-5.6321-1.7133c-3.0976-0.94231-5.7721-1.5733-5.9432-1.4022-0.17112 0.17113-0.58667 5.2144-0.92343 11.207l-0.6123 10.896 6.0789 3.0406c3.3434 1.6723 6.4131 3.0663 6.8215 3.0978 0.4084 0.0315 0.62286-5.609 0.47658-12.534zm-0.74254-31.091v-12.228l-4.763-2.2309c-2.6197-1.227-4.9556-2.0383-5.191-1.803-0.23535 0.23535-0.70092 5.348-1.0346 11.361l-0.60668 10.933 4.6062 3.0369c2.5334 1.6703 5.1423 3.0643 5.7976 3.0978 0.89441 0.0457 1.1914-2.9877 1.1914-12.167zm-0.0137-28.52-0.0137-13.106-4.7526-2.6212c-2.6139-1.4417-4.9668-2.6212-5.2287-2.6212-0.26185 0-0.47609 5.9728-0.47609 13.273v13.273l4.051 2.359c6.5734 3.8279 6.4354 4.0548 6.4201-10.556z"/>
     <path transform="translate(196.3 -76.873)" d="m643.86 377.54c-0.87583-0.54848-1.4294-10.947-2.1681-40.723-0.5456-21.992-1.2318-43.899-1.5248-48.68l-0.53285-8.6943-11.272-8.2244c-6.1996-4.5234-11.569-8.2244-11.933-8.2244s-0.34457 22.024 0.0419 48.943l0.70272 48.943-3.7025 0.6116c-2.0364 0.33638-5.0656 0.61632-6.7317 0.62209-2.9582 0.0103-3.0445-0.11219-3.6834-5.2257l-0.65422-5.2362-3.4653 0.51433c-1.9059 0.28288-6.0389 0.8164-9.1843 1.1856l-5.719 0.67126-0.566 10.769-3.768 0.35933c-2.8976 0.27634-3.7697 0.0233-3.7754-1.0956-0.044-8.6017-4.8362-118.53-5.1922-119.1-0.26312-0.42573-1.7744-1.3109-3.3584-1.967-2.7363-1.1334-2.88-1.4687-2.88-6.7205 0-5.2685 0.1229-5.552 2.6212-6.0483 1.4417-0.2864 12.615-2.2649 24.83-4.3966l22.209-3.8759 2.7564 2.1762c1.516 1.1969 21.626 18.261 44.69 37.92l41.933 35.744-3.372 3.4758c-1.8546 1.9117-5.5802 4.6659-8.279 6.1206-5.6727 3.0575-6.3023 3.7811-6.3221 7.2661-0.0204 3.5878-1.1099 3.8774-3.8516 1.0237-3.0008-3.1233-14.752-12.644-15.606-12.644-0.35489 0-0.46079 8.9002-0.23534 19.778 0.34282 16.541 0.28971 17.672-0.32449 6.9104-0.40392-7.0772-0.78673-16.125-0.8507-20.106l-0.11629-7.2384-10.723-9.5954c-9.3012-8.3231-10.768-9.3223-11.065-7.5357-0.18807 1.1329 0.39981 21.792 1.3064 45.91 0.90658 24.118 1.4894 44.587 1.2951 45.489-0.22147 1.0274-0.79193 1.3638-1.5294 0.902zm-44.909-34.177 2.5267-0.50393-0.50938-11.576c-0.28016-6.3668-0.62378-11.712-0.76362-11.878-0.13983-0.16614-3.7284 0.22976-7.9746 0.87979l-7.7204 1.1819v23.746l5.9573-0.6726c3.2765-0.36993 7.0943-0.89938 8.484-1.1765zm-4.2518-25.187 6.0564-1.0547-0.62841-11.575c-0.34562-6.3661-0.6768-11.636-0.73595-11.711-0.0592-0.0752-3.6921 0.5516-8.0731 1.3929l-7.9656 1.5296 0.57853 4.2208c0.31819 2.3215 0.57853 7.3779 0.57853 11.237 0 8.0591-0.42632 7.8097 10.19 5.961zm2.9832-26.15c2.2063-0.50593 2.2098-0.53235 1.5454-11.672-0.36623-6.1406-0.80758-11.326-0.98078-11.523-0.1732-0.19694-3.8086 0.20929-8.0786 0.90273l-7.7637 1.2608 0.61891 9.1055c1.0146 14.927 0.62245 14.187 7.0092 13.239 2.991-0.44362 6.4332-1.0348 7.6495-1.3137z"/>
     <path transform="translate(196.3 -76.873)" d="m668.6 417.73-0.20715-12.549-8.7093-4.8465c-4.7901-2.6656-9.0239-4.8465-9.4085-4.8465-0.69086 0-1.2674 4.9152-2.4917 21.243-0.41052 5.4749-0.99419 8.2532-1.6855 8.0233-0.70715-0.23514-1.1435-5.8554-1.3169-16.962l-0.25935-16.611-10.522-5.5721c-5.7874-3.0646-10.738-5.3569-11.001-5.0939-0.3812 0.3812-2.1293 24.038-2.238 30.286-0.0212 1.2171-1.5192 1.5333-8.1279 1.7154l-8.1019 0.22329v-33.535l-7.387 0.55326c-4.0629 0.30429-9.6838 0.78757-12.491 1.074l-5.1038 0.5207 0.55813 4.9231c0.30697 2.7077 0.6428 10.285 0.74629 16.838l0.18816 11.915-6.191 0.60721 0.66797-20.797c0.36738-11.438 0.84457-20.994 1.0604-21.235 0.21585-0.24111 9.2741-1.3618 20.129-2.4904l19.737-2.052 36.697 20.473c20.183 11.26 36.82 20.582 36.971 20.716 0.43843 0.38858-1.9518 5.2568-2.5716 5.2377-0.30903-0.01-4.369-2.1542-9.0221-4.7658-4.6531-2.6117-8.6079-4.7485-8.7883-4.7485-0.18044 0-0.46214 5.4688-0.62599 12.153l-0.29791 12.153z"/>
     <path transform="translate(196.3 -76.873)" d="m656.39 438.79-36.535-17.63-21.37 1.9274c-11.753 1.0601-21.983 1.9272-22.733 1.927l-1.3627-4e-4 0.17888-3.5423c0.0984-1.9483 0.34993-3.7134 0.55899-3.9224 0.38671-0.38671 36.099-3.4298 40.759-3.473 2.3619-0.0219 5.1551 1.1707 37.71 16.101 28.009 12.846 35.655 16.544 37.601 18.185l2.4426 2.0596v3.0232c0 1.6628-0.16085 3.0125-0.35744 2.9994-0.19659-0.0131-16.798-7.9575-36.892-17.654z"/>
     <path transform="translate(196.3 -76.873)" d="m656.94 448.07-35.505-14.496-21.208 1.6683c-11.664 0.91759-22.234 1.7873-23.487 1.9328l-2.2796 0.26445 0.13493-5.3729 0.13492-5.3729 44.685-3.9992 36.754 17.684c20.215 9.7259 36.776 17.7 36.804 17.72 0.0275 0.0199-0.0797 1.0332-0.23829 2.2518l-0.28831 2.2157z"/>
     <path transform="translate(196.3 -76.873)" d="m702.72 437.38c-4.3106-1.8376-7.8961-3.3997-7.9678-3.4714-0.0716-0.0716-0.87859-18.348-1.7932-40.615s-1.79-42.059-1.9451-43.983c-0.22542-2.7954-0.15764-3.4247 0.3374-3.1328 0.34072 0.20088 3.622 2.4021 7.2916 4.8916 3.6697 2.4895 6.7063 4.5427 6.7481 4.5625 0.0417 0.0199 0.87687 17.944 1.8558 39.831l1.78 39.795 1.3616 1.985c1.1972 1.7454 1.4384 3.514 0.47551 3.4871-0.16854-5e-3 -3.8333-1.5121-8.144-3.3497zm5.7084-2.0033c9e-3 -0.85189-0.87818-18.277-1.9704-38.722-1.3516-25.299-2.1724-37.478-2.5697-38.127-0.66388-1.0842-10.56-8.0176-11.105-7.7803-0.25952 0.11302 2.8941 79.496 3.1922 80.353 0.0845 0.24298 11.608 5.8253 12.026 5.8253 0.22631 0 0.41844-0.697 0.42696-1.5489z"/>
     <path transform="translate(196.3 -76.873)" d="m677.33 396.23-7.4895-4.8155-0.0167-4.4084c-9e-3 -2.4246 0.12532-4.4084 0.29888-4.4084s1.2627 0.55506 2.4203 1.2335 2.1654 1.161 2.2394 1.0723c0.0741-0.0886 0.26731-4.4571 0.42945-9.7077l0.2948-9.5466-3.3264-2.0872c-4.0609-2.5481-4.6626-4.1982-0.70516-1.934l2.6212 1.4997v-5.4425c0-2.9934-0.13828-7.3906-0.30729-9.7716l-0.30729-4.3291-2.5419-1.8205c-1.4434-1.0338-2.5464-2.1931-2.5522-2.6827-0.0109-0.9112 0.2025-0.84997 2.4462 0.702 0.69577 0.48126 1.3928 0.87502 1.5489 0.87502 0.38574 0 0.36234-17.122-0.0261-19.064-0.22131-1.1065-0.90754-1.9709-2.3999-3.0228-1.1495-0.81022-2.1988-1.909-2.3319-2.4418-0.13305-0.53274-0.17904-2.9862-0.1022-5.4521l0.13972-4.4834 4.9389 3.9783c2.7164 2.188 5.9059 4.8538 7.0878 5.9238l2.149 1.9456 1.613 39.784c0.88716 21.881 1.5579 40.557 1.4906 41.502l-0.12238 1.7177z"/>
     <path transform="translate(196.3 -76.873)" d="m656.98 383.45c-4.8284-2.5493-8.9405-4.8022-9.1378-5.0064-0.19737-0.20426-0.42882-2.9844-0.51435-6.178l-0.15551-5.8066 3.3948 1.8748c1.8671 1.0311 3.5828 1.875 3.8127 1.8753 0.62823 9.5e-4 -0.0901-19.432-0.74762-20.224-0.29826-0.35938-0.35245-0.7279-0.12042-0.81891 0.30841-0.12099-0.9249-22.352-1.2845-23.155-0.0279-0.0622-1.552-0.86917-3.3868-1.7932-1.8348-0.92401-3.3361-1.8945-3.3361-2.1566s1.5012 0.27943 3.3361 1.2034l3.3361 1.68v-23.644l-7.387-4.3066-0.36211-3.7833c-0.71011-7.4194-1.2529-7.4978 8.464 1.223 4.7182 4.2345 8.843 7.9542 9.1663 8.2659 0.42998 0.41463 1.0437 11.631 2.2856 41.776 0.93377 22.665 1.6343 41.749 1.5568 42.409-0.13849 1.1794-0.29396 1.1195-8.92-3.4347z"/>
     <path transform="translate(196.3 -76.873)" d="m629.72 367.69-10.772-6.7549-0.30416-14.31c-0.1673-7.8707-0.44654-29.323-0.62054-47.671-0.27141-28.62-0.2212-33.285 0.3534-32.83 1.1089 0.87902 17.744 13.256 18.904 14.065l1.0771 0.75125 1.2056 44.512c0.66306 24.482 1.1435 45.52 1.0676 46.752l-0.138 2.2402zm1.1797-16.431c-0.14821-2.0314-0.5168-7.0082-0.8191-11.06l-0.54964-7.3661-7.8941-4.1825 0.27165 8.5042c0.14941 4.6773 0.38473 9.8158 0.52293 11.419l0.25128 2.9148 3.6624 1.6892c2.0143 0.92909 3.9238 1.7084 4.2432 1.7319 0.43174 0.0317 0.51165-0.9053 0.31134-3.6509zm-1.2455-33.703-0.12321-8.5636-4.4381-2.3284c-2.4409-1.2806-4.5351-2.2314-4.6537-2.1128-0.25011 0.25011 1.0012 22.223 1.2801 22.479 0.1025 0.0941 1.7948 1.1485 3.7607 2.343l3.5744 2.1718 0.3615-2.7126c0.19883-1.4919 0.30606-6.5662 0.23829-11.276zm-1.3147-22.812v-11.598l-4.3884-2.4418c-2.4136-1.343-4.4467-2.3835-4.5179-2.3123-0.0713 0.0713 7e-3 5.2893 0.17361 11.596l0.30318 11.466 3.8573 2.4117c2.1215 1.3264 4.0182 2.4262 4.2148 2.4439 0.19659 0.0177 0.35744-5.1868 0.35744-11.565z"/>
     <path transform="translate(196.3 -76.873)" d="m660.92 259.04c-24.374-20.773-44.668-38.055-45.097-38.404-0.66054-0.53722-4.564 0.0291-25.467 3.6947-13.578 2.381-25.116 4.4263-25.64 4.5449-0.72801 0.1648-1.387-0.40545-2.7898-2.414-1.0102-1.4464-1.7608-2.6893-1.668-2.762 0.0928-0.0727 2.7103-1.1398 5.8167-2.3713 4.2657-1.6911 10.506-3.3922 25.497-6.9504 10.917-2.5913 20.231-4.7813 20.698-4.8667 0.57479-0.10511 15.993 13.779 47.724 42.975 45.092 41.491 48.004 44.322 45.577 44.322-0.18403 0-20.277-16.996-44.652-37.769z"/>
     <path transform="translate(196.3 -76.873)" d="m48.415 670.71c-1.1129-0.21109-1.1225-0.26419-0.8271-4.5818 0.16438-2.4025 2.5587-49.298 5.3207-104.21 2.762-54.914 5.1716-99.977 5.3546-100.14 0.18304-0.16193 1.0443-0.42755 1.914-0.59027l1.5812-0.29586-0.29049 3.6881c-0.15977 2.0284-2.527 47.438-5.2606 100.91-5.5911 109.37-5.3716 105.59-6.1212 105.5-0.29982-0.0357-1.0518-0.16101-1.6711-0.27848z"/>
     <path transform="translate(196.3 -76.873)" d="m139.9 700.79c-51.114-12.845-92.955-23.376-92.982-23.4-0.06341-0.0589 0.21913-5.5604 0.28916-5.6305 0.04211-0.0421 184.99 41.873 185.83 42.117 0.19441 0.0559 0.2085 0.4058 0.2085 5.1752 0 4.7962-0.013 5.1146-0.2085 5.1047-0.11468-6e-3 -42.029-10.52-93.142-23.366z"/>
     <path transform="translate(196.3 -76.873)" d="m286.75 737.65c-29.424-7.4057-53.498-13.467-53.498-13.47 0-3e-3 0.0212-2.2899 0.047-5.0818l0.047-5.0763 0.54272 0.0931c0.29849 0.0512 24.61 5.5585 54.025 12.238l53.482 12.145 8.1877-1.7606c4.5032-0.96837 23.428-5.0297 42.056-9.0252s34.039-7.3064 34.247-7.3576l0.37912-0.093v5.2417c0 2.8829-0.0328 5.2417-0.0729 5.2417s-19.205 4.5425-42.588 10.094-42.704 10.135-42.936 10.185c-0.25863 0.0555-21.073-5.1074-53.919-13.374z"/>
     <path transform="translate(196.3 -76.873)" d="m426.39 725.52c0.0917-2.8553 0.18066-5.2106 0.19769-5.2339 0.017-0.0233 61.848-13.307 137.4-29.519 75.555-16.212 137.42-29.521 137.48-29.575 0.0922-0.0829-3.5679-112.32-3.9755-121.91l-0.13928-3.2765h0.75193c0.41358 0 0.76403 0.0268 0.77881 0.0596 0.084 0.18631 4.1923 128.75 4.1168 128.84-0.0502 0.0542-62.044 14.806-137.76 32.781-75.72 17.975-137.98 32.76-138.35 32.854l-0.67155 0.1712z"/>
     <path transform="translate(196.3 -76.873)" d="m697.33 533.33c-0.0801-1.4744-0.30321-7.4648-0.49578-13.312-0.32274-9.7995-0.38997-10.735-0.85951-11.962-0.28015-0.7321-0.66556-1.3633-0.85646-1.4026-0.32318-0.0666 10.234-4.9313 12.08-5.5668 0.45871-0.15784 2.3889-0.34971 4.2892-0.42639l3.4552-0.13941-1.9444 0.56424c-1.4693 0.42638-3.5214 1.458-8.3982 4.222l-6.4538 3.6577 4e-3 1.4298c2e-3 0.78636 0.15975 5.8798 0.35046 11.319 0.19072 5.439 0.34916 10.881 0.3521 12.093l5e-3 2.2042h-1.3827z"/>
     <path transform="translate(196.3 -76.873)" d="m673.92 508.66c-0.3991-2.9816-0.69311-5.46-0.65335-5.5074 0.10727-0.12799 28.705-1.9564 29.452-1.883 0.44354 0.0436-3.7183 2.0167-13.583 6.4393-7.8221 3.507-14.282 6.3755-14.356 6.3743-0.0738-1e-3 -0.46066-2.4416-0.85977-5.4233z"/>
     <path transform="translate(196.3 -76.873)" d="m508.7 453.88c-89.514-26.019-162.75-47.556-162.75-47.859 0-0.30323 8.9964-2.4423 19.992-4.7534 18.295-3.8454 20.338-4.1002 24.067-3.0014 2.2415 0.66037 44.18 13.868 93.196 29.35l89.121 28.15 46.234-3.5997 36.231 13.899c35.2 13.504 36.129 13.925 32.643 14.824-3.5077 0.9041-3.1781 1.0618 14.761 7.0631 16.637 5.5657 18.348 6.3401 18.348 8.3017 0 1.1899-0.3217 2.1726-0.71488 2.1838-0.39318 0.0111-9.9368 0.64542-21.208 1.4094-11.271 0.76397-21.994 1.378-23.829 1.3646-1.8348-0.0134-76.575-21.313-166.09-47.332z"/>
     <path transform="translate(196.3 -76.873)" d="m42.844 457.88c-7.6015-1.172-13.356-2.1823-12.787-2.245 0.5686-0.0627 28.878-6.1393 62.909-13.504l61.875-13.389 20.016 3.5956c11.009 1.9776 19.373 3.7141 18.587 3.8588-0.78636 0.14473-31.026 5.4115-67.198 11.704-36.173 6.2924-66.626 11.591-67.675 11.776-1.0485 0.1842-8.1257-0.62403-15.727-1.7961z"/>
     <path transform="translate(196.3 -76.873)" d="m341.91 727.82c-2e-3 -5.0786-0.21486-45.317-0.47264-89.419s-0.47047-82.625-0.47264-85.606l-4e-3 -5.4211h1.1914c0.6553 0 1.193 0.0268 1.1948 0.0596 0.0348 0.61506 1.6589 176.24 1.6786 181.52l0.0279 7.5062-1.1528 0.27499c-2.205 0.52598-1.9863 1.5049-1.9908-8.913z"/>
     <path transform="translate(196.3 -76.873)" d="m340.93 547.33c-0.0389-0.18738-0.65465-110.27-0.65927-117.86l-6e-3 -9.815h1.9472l0.5425 61.122c0.29837 33.617 0.58218 62.355 0.63069 63.861l0.0882 2.7381h-1.2673c-0.69702 0-1.2712-0.019-1.276-0.0421z"/>
     <path transform="translate(196.3 -76.873)" d="m340.2 418.86c-0.0589-0.42997-0.10715-3.3492-0.10715-6.4872 0-4.4534 0.0462-5.7048 0.21062-5.7028 0.11584 1e-3 0.55183 0.1045 0.96886 0.22911l0.75824 0.22655 0.0842 6.2581 0.0842 6.2581-0.94596-9e-5 -0.94596-1e-4z"/>
     <path transform="translate(196.3 -76.873)" d="m582.89 404.73c-0.33781-4.3397-0.61678-10.974-0.61992-14.742l-6e-3 -6.852 4.051-0.50447c2.228-0.27745 6.7317-0.6528 10.008-0.8341l5.9573-0.32963v14.578c0 16.78 1.2648 15.023-11.533 16.014l-7.2437 0.56071z"/>
     <path transform="translate(196.3 -76.873)" d="m633.02 416.36-9.7699-4.6429 6e-3 -6.483c3e-3 -3.5657 0.28102-10.02 0.61752-14.342l0.61181-7.8592 18.781 9.9456v14.086c0 7.7474-0.10723 14.053-0.23829 14.012-0.13106-0.0406-4.6348-2.1631-10.008-4.7167z"/>
     <path transform="translate(196.3 -76.873)" d="m657.09 427.55c-4.3944-2.3157-7.6191-4.624-7.6107-5.448 0.0639-6.235 1.7388-23.865 2.2456-23.638 0.3501 0.15697 3.7379 1.9841 7.5284 4.0604l6.8918 3.775v12.667c0 6.9669-0.3217 12.652-0.71488 12.634-0.39318-0.018-4.1463-1.8409-8.3402-4.051z"/>
     <path transform="translate(196.3 -76.873)" d="m678.3 438.5-7.387-3.3212 0.013-10.59c7e-3 -5.8244 0.27098-11.552 0.58627-12.729 0.57173-2.1333 0.59099-2.1296 7.23 1.359 3.6612 1.9239 6.8426 3.9825 7.0699 4.5747 0.22725 0.59221 0.29208 6.2406 0.14407 12.552l-0.26912 11.475z"/>
     <path transform="translate(196.3 -76.873)" d="m42.684 385.47c0.08711-0.66501 10.521-99.624 10.521-99.785 0-0.0935 2.3219-1.4652 5.3649-3.1694 4.321-2.4198 5.4508-3.0044 5.8062-3.0044 0.39064 0 0.09624 0.19778-2.5678 1.7251-4.3455 2.4913-6.9994 4.0755-7.3406 4.3818-0.25352 0.22765-0.33373 0.48852-0.54013 1.7567-0.8091 4.9714-2.8481 22.656-5.488 47.599-2.5064 23.681-3.8099 35.798-4.8319 44.918-0.37106 3.311-0.4188 4.0116-0.30234 4.437 0.0991 0.362 0.21421 0.52423 0.40618 0.57241 0.17633 0.0443 4.1351-1.2844 11.583-3.8873 6.2231-2.175 11.33-3.9667 11.348-3.9816 0.18183-0.14735 0.74961-10.738 0.8256-15.4 0.06775-4.1562 0.03022-4.6294-0.30821-3.8866-0.0785 0.17229-0.16815 0.28784-0.19922 0.25677-0.03107-0.0311 0.31944-4.8752 0.77891-10.765 0.45947-5.8895 0.8354-10.75 0.8354-10.801s-0.05886-0.0929-0.1308-0.0929c-0.07194 0-2.1956 0.78057-4.7191 1.7346s-4.6108 1.7121-4.6383 1.6846c-0.02746-0.0275 0.14532-0.19885 0.38396-0.38087 0.4051-0.30899 0.42928-0.36346 0.36443-0.82085-0.0382-0.26945-0.10224-0.62707-0.14231-0.79471-0.0712-0.29792 0.03518-0.35571 4.7064-2.5565 3.7365-1.7604 4.7898-2.3048 4.8276-2.4951 0.0412-0.20766 1.2387-17.449 1.2706-18.294 0.0062-0.16382 0.13198 0.90849 0.27955 2.3829 0.37682 3.7651 0.42953 4.1701 0.5427 4.1701 0.1356 0 0.1962-0.59843 0.34386-3.3956 0.06919-1.3106 0.20518-3.0799 0.30221-3.9318 0.20509-1.8006 0.68479-4.5727 0.75489-4.3624 0.06997 0.2099-5.7158 67.969-5.8133 68.081-0.06368 0.0732-23.27 8.1577-24.078 8.3882-0.14736 0.042-0.17943-0.0204-0.14509-0.28254z"/>
     <path transform="translate(196.3 -76.873)" d="m62.699 311.57c-0.12903-1.6732 0.19512-10.281 0.57896-15.374 0.21506-2.8536 0.37818-4.1032 0.5978-4.5795 0.1572-0.34093 0.16435-0.30212 0.10841 0.58815-0.30309 4.8232-1.1332 19.778-1.1049 19.904 0.02477 0.11104 1.4367-0.5599 4.4447-2.1121 2.4246-1.2512 4.4381-2.3211 4.4745-2.3777 0.10063-0.15654 0.95982-13.015 1.1949-17.883 0.13003-2.6922 0.12525-2.9704-0.0558-3.2467-0.10891-0.16622-0.14872-0.30221-0.08847-0.30221 0.19608 0 0.82031 0.80274 0.96488 1.2408 0.15462 0.46849 0.29086 0.53985 0.41762 0.21872 0.08856-0.22437 0.21701-1.9373 0.42214-5.6296 0.07099-1.2778 0.21185-2.9667 0.31301-3.7531 0.20821-1.6184 0.727-4.2169 0.74506-3.7318 0.0065 0.17554-0.6047 7.5346-1.3583 16.353-0.7536 8.8189-1.3702 16.164-1.3702 16.322 0 0.25654-0.35232 0.46822-3.2467 1.9507-2.935 1.5032-5.8731 2.9257-6.6651 3.2268l-0.30082 0.11438z"/>
     <path transform="translate(196.3 -76.873)" d="m652.89 387.43-35.837-20.035-17.659 1.8308c-9.7125 1.007-19.482 2.0241-21.71 2.2602-2.228 0.23619-4.078 0.41013-4.111 0.38654-0.033-0.0236 7e-3 -0.68236 0.0885-1.4639 0.12251-1.172 0.29036-1.5758 0.95798-2.3043l0.80944-0.88326 19.714-2.1347c10.843-1.1741 20.09-2.1554 20.548-2.1806 0.72112-0.0397 5.5744 2.833 35.853 21.222 19.26 11.697 35.458 21.57 35.996 21.94 1.026 0.70594 1.749 1.4376 1.3959 1.4128-0.11434-8e-3 -16.335-9.0305-36.045-20.05z"/>
    </g>
    <path transform="translate(196.3 -76.873)" d="m596.72 605.53c-0.37523-0.10013-0.69185-0.19166-0.70359-0.2034-0.0117-0.0117-0.11067-0.5126-0.21984-1.113l-0.19848-1.0917 0.0799-0.56676c0.0439-0.31173 0.0888-0.6076 0.0997-0.6575 0.0148-0.0676 0.17663-0.17262 0.63461-0.41177 0.33813-0.17658 0.7467-0.39273 0.90793-0.48033l0.29314-0.15929 0.36433 0.60686 0.36433 0.60687-0.16192 1.2355-0.16192 1.2355-0.24951 0.58356c-0.14031 0.32815-0.2751 0.5866-0.30798 0.59051-0.0322 4e-3 -0.36547-0.075-0.7407-0.1751z"/>
   </g>
  </g>
 </g>
</svg>
