<?xml version="1.0" encoding="UTF-8" standalone="no"?>
<svg
   xmlns:dc="http://purl.org/dc/elements/1.1/"
   xmlns:cc="http://creativecommons.org/ns#"
   xmlns:rdf="http://www.w3.org/1999/02/22-rdf-syntax-ns#"
   xmlns:svg="http://www.w3.org/2000/svg"
   xmlns="http://www.w3.org/2000/svg"
   xmlns:sodipodi="http://sodipodi.sourceforge.net/DTD/sodipodi-0.dtd"
   xmlns:inkscape="http://www.inkscape.org/namespaces/inkscape"
   width="17.18778mm"
   height="15.558054mm"
   version="1.1"
   viewBox="0 0 17.187781 15.558055"
   id="svg5066"
   sodipodi:docname="magnifier.svg"
   inkscape:version="0.92.3 (2405546, 2018-03-11)">
  <metadata
     id="metadata5072">
    <rdf:RDF>
      <cc:Work
         rdf:about="">
        <dc:format>image/svg+xml</dc:format>
        <dc:type
           rdf:resource="http://purl.org/dc/dcmitype/StillImage" />
        <dc:title>magnifier</dc:title>
      </cc:Work>
    </rdf:RDF>
  </metadata>
  <defs
     id="defs5070" />
  <sodipodi:namedview
     pagecolor="#ffffff"
     bordercolor="#666666"
     borderopacity="1"
     objecttolerance="10"
     gridtolerance="10"
     guidetolerance="10"
     inkscape:pageopacity="0"
     inkscape:pageshadow="2"
     inkscape:window-width="1920"
     inkscape:window-height="1137"
     id="namedview5068"
     showgrid="true"
     inkscape:zoom="4.1593865"
     inkscape:cx="17.269409"
     inkscape:cy="9.9573062"
     inkscape:window-x="-8"
     inkscape:window-y="-8"
     inkscape:window-maximized="1"
     inkscape:current-layer="svg5066">
    <inkscape:grid
       type="xygrid"
       id="grid5617"
       originx="-9.2777768"
       originy="-14.528484" />
  </sodipodi:namedview>
  <title
     id="title5058">magnifier</title>
  <g
     id="g5705"
     transform="translate(1.2644054e-7,-1.6380727)">
    <rect
       transform="rotate(45)"
       y="0.3660242"
       x="11.743108"
       height="11.377084"
       width="0.83278084"
       id="rect5639"
       style="opacity:1;fill:#000000;fill-opacity:1;stroke:none;stroke-width:0.10260288;stroke-miterlimit:4;stroke-dasharray:none;stroke-opacity:1" />
    <path
       inkscape:connector-curvature="0"
       id="path5647"
       d="m 12.153474,6.0600253 -0.659925,-0.659961 -0.407532,0.407475 c -0.224142,0.224111 -0.407532,0.404797 -0.407532,0.401525 0,-0.0033 0.191728,-0.389391 0.426061,-0.858042 l 0.426061,-0.852092 0.643402,0.643365 0.643401,0.643364 0.642093,-0.642056 0.642092,-0.642056 0.423833,0.84771 c 0.233108,0.46624 0.422594,0.848948 0.42108,0.850461 -0.0015,0.0015 -0.181511,-0.175953 -0.399996,-0.394371 -0.218484,-0.218417 -0.40083,-0.397172 -0.405213,-0.397232 -0.0044,-6.1e-5 -0.303149,0.295085 -0.663923,0.65588 -0.360775,0.360794 -0.657759,0.65599 -0.659966,0.65599 -0.0022,0 -0.300978,-0.296982 -0.663936,-0.65996 z"
       style="opacity:1;fill:#000000;fill-opacity:1;stroke:none;stroke-width:0.00159028;stroke-miterlimit:4;stroke-dasharray:none;stroke-opacity:1" />
    <path
       inkscape:connector-curvature="0"
       id="path5647-3"
       d="m 16.122224,10.557942 -0.251764,-0.251778 -0.155475,0.155454 c -0.08551,0.0855 -0.155475,0.154431 -0.155475,0.153183 0,-0.0013 0.07315,-0.148554 0.162544,-0.327347 l 0.162544,-0.3250757 0.24546,0.2454457 0.24546,0.245446 0.244961,-0.244947 0.244961,-0.2449467 0.161694,0.3234047 c 0.08893,0.177873 0.161222,0.323877 0.160644,0.324454 -5.73e-4,5.73e-4 -0.06925,-0.06713 -0.1526,-0.150454 -0.08335,-0.08333 -0.152919,-0.151522 -0.154591,-0.151545 -0.0017,-2.4e-5 -0.115652,0.112576 -0.253289,0.25022 -0.137637,0.137645 -0.250938,0.250263 -0.25178,0.250263 -8.39e-4,0 -0.114824,-0.1133 -0.253294,-0.251777 z"
       style="opacity:1;fill:#000000;fill-opacity:1;stroke:none;stroke-width:0.0006067;stroke-miterlimit:4;stroke-dasharray:none;stroke-opacity:1" />
    <path
       inkscape:connector-curvature="0"
       id="path5683"
       d="M 11.383494,1.6380727 A 4.6302086,4.6302086 0 0 0 6.7532844,6.2682813 4.6302086,4.6302086 0 0 0 11.383494,10.898491 4.6302086,4.6302086 0 0 0 16.013702,6.2682813 4.6302086,4.6302086 0 0 0 11.383494,1.6380727 Z m -0.02377,0.7177858 A 3.8819574,3.8819574 0 0 1 15.241656,6.2377921 3.8819574,3.8819574 0 0 1 11.359722,10.119726 3.8819574,3.8819574 0 0 1 7.4777879,6.2377921 3.8819574,3.8819574 0 0 1 11.359722,2.3558585 Z"
       style="opacity:1;fill:#000000;fill-opacity:1;stroke:none;stroke-width:0.05291667;stroke-miterlimit:4;stroke-dasharray:none;stroke-opacity:1" />
  </g>
</svg>
