<svg width="46.573mm" height="59.307mm" version="1.1" viewBox="0 0 46.573 59.307" xmlns="http://www.w3.org/2000/svg">
 <title>microphone</title>
 <g transform="translate(27.888 -35.774)">
  <g transform="translate(-164.02 -78.246)">
   <path transform="scale(.26458)" d="m622.27 652.52c-8.2734-2.2206-10.078-2.907-16.071-6.1118l-6.7506-3.6102 0.34702-3.822c0.19086-2.1021 0.51258-4.1294 0.71493-4.5052 0.20235-0.37581 2.0504-2.6687 4.1068-5.0954 3.6106-4.2607 4.0682-4.6044 13.335-10.016 7.6271-4.4541 11.721-6.4484 19.951-9.7179 5.6947-2.2625 10.508-4.2662 10.696-4.4526s0.84034-3.8145 1.449-8.0623l1.1067-7.7234-1.1028-3.0247c-1.2512-3.4316-1.1491-4.3754 1.462-13.511l1.4177-4.9598-1.4949-15.081-3.6102-7.0192c-3.5829-6.966-3.6538-7.059-9.3527-12.269-11.243-10.278-24.603-21.132-56.281-45.723-29.642-23.011-32.635-25.202-39.041-28.578l-6.9378-3.656-2.852 0.5611c-2.8503 0.56075-2.8562 0.55931-9.7433-2.3634l-6.8913-2.9245-1.9661-8.5598 4.7008-8.4471 8.4065-2.6339 9.47 3.7482 1.8276 3.3249c1.1738 2.1354 1.9158 4.2458 2.0742 5.8992 0.55155 5.7582 0.35592 5.43 6.055 10.16 2.9343 2.4352 5.4862 4.826 5.671 5.3127 0.18476 0.4868 18.291 14.834 40.237 31.882 55.623 43.211 50.27 38.716 54.844 46.051 3.2608 5.2289 4.2136 7.3096 6.3983 13.972 2.8486 8.6876 2.9124 8.9852 3.6618 17.085 0.45139 4.8782 0.77951 6.2174 2.2281 9.094l1.6988 3.3733-0.68312 3.5329c-0.85165 4.4045-0.88783 8.5655-0.1349 15.516l0.58682 5.4173 2.5706 0.73594c1.4138 0.40476 4.6162 1.3214 7.1163 2.0369s6.6571 2.3945 9.2376 3.731c4.2644 2.2085 4.8909 2.7265 6.8746 5.6836l2.1827 3.2536 0.23763 9.4834 0.23762 9.4834-3.4129 2.8942c-3.8544 3.2686-3.0925 3.0261-26.469 8.4238-9.4845 2.19-12.822 2.7425-18.183 3.01-3.6113 0.18022-7.4751 0.4121-8.5863 0.51528-1.3282 0.12334-5.2129-0.66931-11.34-2.3139z" stroke-opacity="0"/>
  </g>
 </g>
</svg>
