<svg width="31.278mm" height="31.089mm" version="1.1" viewBox="0 0 31.278 31.089" xmlns="http://www.w3.org/2000/svg">
 <title>module_icon</title>
 <g transform="translate(-17.665 -55.232)">
  <g transform="translate(-15.644 4.6304)" stroke-opacity="0">
   <path d="m33.356 73.894v-7.7485h1.0394v14.552h14.552v0.94494h-15.592z"/>
   <path d="m33.356 58.397v-7.7485h15.592v0.94494h-14.552v14.552h-1.0394z"/>
   <path d="m63.5 58.87v-7.276h-14.552v-0.94494h15.592v15.497h-1.0394z"/>
   <path d="m48.948 81.17v-0.47247h14.552v-14.552h1.0394v15.497h-15.592z"/>
   <g transform="matrix(.46667 0 0 .46951 26.106 35.751)">
    <path d="m33.356 73.894v-7.7485h1.0394v14.552h14.552v0.94494h-15.592z"/>
    <path d="m33.356 58.397v-7.7485h15.592v0.94494h-14.552v14.552h-1.0394z"/>
    <path d="m63.5 58.87v-7.276h-14.552v-0.94494h15.592v15.497h-1.0394z"/>
    <path d="m48.948 81.17v-0.47247h14.552v-14.552h1.0394v15.497h-15.592z"/>
   </g>
  </g>
 </g>
</svg>
