<svg width="322.52mm" height="308.76mm" version="1.1" viewBox="0 0 322.52 308.76" xmlns="http://www.w3.org/2000/svg">
 <title>spaz_icon_deployment</title>
 <g transform="translate(10.622 64.746)">
  <g stroke="#000">
   <path transform="matrix(.99211 .12604 -.12533 .9977 367.43 -2.4026)" d="m-85.032 257.09-197.63 25.576-85.395-180.06 144.85-136.86 174.92 95.474z" fill="#fca" stroke-width=".065"/>
   <path d="m100.14 241.77c0.0146-1.0498 1.3282-3.2133 2.9204-4.8077 2.3918-2.3952 2.7016-3.1825 1.7825-4.5297-2.0406-2.9909-6.9853-1.9474-16.565 3.4959-7.8355 4.452-9.2214 4.9457-9.1991 3.2778 0.04369-3.1397 6.2996-14.328 10.399-18.592 3.7235-3.8734 3.7408-3.9252 1.7394-5.2351-1.2922-0.8457-3.9539-1.1212-7.3784-0.76345-4.8301 0.50477-5.3544 0.35957-5.3296-1.4725 0.02913-2.2454 5.3301-8.0472 8.3159-9.103 3.2843-1.1614 2.1255-3.5332-2.843-5.8189-2.6322-1.2109-4.9045-2.9606-5.0496-3.8881-0.37947-2.4251 4.5583-4.9637 9.4776-4.8726 2.2946 0.04 4.1723-0.28754 4.1728-0.73314 5.84e-4 -0.4459-2.9556-3.1647-6.569-6.0424-12.845-10.229-13.136-10.767-5.809-10.728 4.0597 0.0229 4.5554-0.18122 3.1606-1.2922-0.90992-0.72468-5.1981-4.1367-9.5295-7.5824-14.642-11.648-16.709-15.412-27.182-49.489l-5.677-18.474 1.0047-25.373c0.55261-13.955 1.0907-28.981 1.1959-33.391l0.19119-8.0186 2.3819 2.6636c6.0167 6.7278 24.087 31.458 25.514 34.918 0.8758 2.1226 4.856 15.832 8.8453 30.466 3.9891 14.633 7.3512 26.769 7.4711 26.968 0.11986 0.19894 1.0759-0.15891 2.1241-0.79488 1.6338-0.99147 1.9713-0.80495 2.3649 1.3069 0.25234 1.3549 1.3941 7.922 2.5368 14.593 1.7589 10.269 2.8712 13.809 7.2483 23.073 2.8439 6.0184 5.6863 10.962 6.3166 10.986 0.79229 0.0286 1.1728-1.9698 1.2329-6.4803 0.081-6.0733 0.33386-6.8255 3.6688-10.907 1.97-2.411 4.0014-4.0672 4.5142-3.6807 0.51278 0.38644 1.1733 3.271 1.4677 6.4094 0.97921 10.437 1.4806 12.747 2.7722 12.771 0.70038 0.0114 1.2803-0.49448 1.2888-1.1275 0.01-0.6331 1.4958-4.7751 3.3052-9.2048 4.6508-11.385 18.298-27.247 25.483-29.62l2.1395-0.7064-1.6282 3.5705c-1.857 4.0724-3.2368 18.144-1.7817 18.172 0.51034 0.0114 1.5051-0.78592 2.2105-1.7674 2.5549-3.5548 12.197-10.925 15.487-11.838 1.8527-0.51392 5.2893-1.2088 7.6375-1.5439l4.2688-0.60921 1.3341-7.2194c0.73371-3.9707 1.4116-12.881 1.5065-19.8l0.17324-12.581 2.456 1.5544c3.5364 2.2381 4.154 1.9984 4.9273-1.9116 1.6911-8.5508 6.2885-16.147 17.635-29.137 13.258-15.178 15.917-17.289 27.14-21.535 8.329-3.1518 28.575-7.0937 35.855-6.981 4.5118 0.06969 8.7847 3.533 7.8806 6.3871-1.2869 4.062-9.334 15.821-16.508 24.123-7.1416 8.2644-8.0073 8.9212-14.503 11.009-3.7997 1.2214-7.4245 2.2097-8.0548 2.1961-1.5918-0.0343-1.4886 3.7406 0.14752 5.3919 2.0493 2.0685 0.97198 2.8967-4.6424 3.569-6.7878 0.81272-20.542 8.6348-25.695 14.613-5.1321 5.9538-16.019 27.653-15.297 30.489 0.45033 1.7673-0.14024 2.2837-3.7574 3.2858-6.3428 1.7571-11.02 4.7911-13.805 8.9555-3.401 5.0852-2.3844 6.1784 3.4157 3.6742 4.234-1.8282 6.1094-1.98 14.904-1.2068 5.5334 0.48647 10.424 1.3264 10.868 1.8664 2.0071 2.4399-0.58324 6.6861-6.9271 11.356-3.5516 2.6142-6.4637 5.2066-6.4709 5.7611-0.01 0.60743 5.0098 0.83158 12.634 0.56422 11.205-0.39272 12.824-0.22867 14.195 1.4384 2.3721 2.8836 0.59445 5.3749-7.7777 10.9-4.0508 2.6734-7.3701 5.2438-7.3764 5.7122-5e-3 0.4682 0.92341 2.2433 2.0659 3.9442 3.7664 5.6075 7.0174 22.013 7.4041 37.362l0.34453 13.679-33.478 0.0285c-18.413 0.0171-44.107 0.0732-57.096 0.13149-22.143 0.0994-23.618-0.0114-23.594-1.8028z" fill="#a00" stroke-width=".03762"/>
  </g>
 </g>
</svg>
