<svg width="49.113mm" height="37.668mm" version="1.1" viewBox="0 0 49.113 37.668" xmlns="http://www.w3.org/2000/svg">
 <title>spaz_icon</title>
 <g transform="translate(-70.469 -97.14)">
  <path d="m82.664 134.48c0.0029-0.18365 0.27371-0.56211 0.60183-0.84102 0.4929-0.419 0.55674-0.55672 0.36733-0.79238-0.42051-0.5232-1.4395-0.34065-3.4137 0.61154-1.6147 0.7788-1.9003 0.86516-1.8957 0.57338 0.0086-0.54923 1.2982-2.5064 2.143-3.2524 0.76732-0.67757 0.77088-0.68665 0.35844-0.91579-0.2663-0.14794-0.81481-0.19613-1.5205-0.13355-0.99536 0.0883-1.1034 0.0629-1.0983-0.25758 0.0062-0.39278 1.0984-1.4077 1.7137-1.5924 0.67682-0.20317 0.43802-0.61807-0.58588-1.0179-0.54244-0.21183-1.0107-0.5179-1.0406-0.68015-0.07818-0.42423 0.93935-0.8683 1.9531-0.85237 0.47285 7e-3 0.85981-0.0503 0.85992-0.12825 1.24e-4 -0.078-0.60907-0.55361-1.3537-1.057-2.6471-1.7894-2.7071-1.8834-1.1971-1.8766 0.8366 4e-3 0.93876-0.0317 0.65131-0.22604-0.18751-0.12677-1.0712-0.72364-1.9638-1.3264-3.0174-2.0376-3.4434-2.696-5.6016-8.6572l-1.1699-3.2316 0.20704-4.4385c0.11388-2.4412 0.22477-5.0697 0.24644-5.8412l0.0394-1.4027 0.49086 0.46594c1.2399 1.1769 4.9637 5.503 5.2579 6.1082 0.18048 0.37131 1.0007 2.7695 1.8228 5.3294 0.82205 2.5598 1.5149 4.6827 1.5396 4.7175 0.02473 0.0348 0.22171-0.0278 0.43772-0.13905 0.33669-0.17344 0.40624-0.14081 0.48734 0.22861 0.05203 0.23701 0.28728 1.3858 0.52277 2.5528 0.36247 1.7963 0.59169 2.4157 1.4937 4.0361 0.58606 1.0528 1.1718 1.9176 1.3017 1.9218 0.16327 5e-3 0.24168-0.34458 0.25407-1.1336 0.01672-1.0624 0.06882-1.194 0.75605-1.9079 0.40597-0.42175 0.82459-0.71148 0.93026-0.64386 0.10567 0.0676 0.24178 0.57219 0.30246 1.1212 0.20179 1.8258 0.30512 2.2299 0.57129 2.2341 0.14433 2e-3 0.26384-0.0865 0.26558-0.19723 0.0017-0.11075 0.30825-0.83531 0.68112-1.6102 0.95842-1.9916 3.7707-4.7664 5.2514-5.1814l0.4409-0.12357-0.33552 0.62459c-0.38269 0.71238-0.66703 3.174-0.36717 3.1788 0.10517 2e-3 0.31016-0.13748 0.45553-0.30918 0.5265-0.62184 2.5135-1.9111 3.1915-2.0708 0.3818-0.0899 1.09-0.21146 1.5739-0.27007l0.8797-0.10657 0.27492-1.2629c0.1512-0.6946 0.2909-2.2532 0.31045-3.4637l0.03569-2.2008 0.50613 0.27191c0.72876 0.39151 0.85603 0.34959 1.0154-0.33439 0.3485-1.4958 1.2959-2.8246 3.6342-5.097 2.7321-2.6551 3.2801-3.0243 5.5928-3.7671 1.7164-0.55135 5.8885-1.2409 7.3888-1.2212 0.92977 0.01219 1.8103 0.61803 1.624 1.1173-0.26519 0.71057-1.9235 2.7676-3.4018 4.2198-1.4717 1.4457-1.6501 1.5606-2.9888 1.9259-0.78302 0.21366-1.53 0.38654-1.6599 0.38417-0.32802-6e-3 -0.30677 0.65435 0.0304 0.94321 0.42232 0.36184 0.2003 0.50673-0.95669 0.62432-1.3988 0.14217-4.2331 1.5105-5.2951 2.5563-1.0576 1.0415-3.3012 4.8374-3.1524 5.3334 0.0928 0.30916-0.0289 0.39949-0.77431 0.57479-1.3071 0.30737-2.2709 0.83811-2.8448 1.5666-0.70086 0.88955-0.49137 1.0808 0.70389 0.64273 0.87253-0.31981 1.259-0.34637 3.0714-0.21111 1.1403 0.0851 2.1482 0.23203 2.2397 0.3265 0.41361 0.42681-0.12019 1.1696-1.4275 1.9865-0.73189 0.45731-1.332 0.9108-1.3335 1.0078-2e-3 0.10626 1.0324 0.14547 2.6036 0.0987 2.309-0.0687 2.6427-0.04 2.9253 0.25163 0.48883 0.50443 0.1225 0.94024-1.6028 1.9068-0.83477 0.46766-1.5188 0.91731-1.5201 0.99924-1e-3 0.0819 0.19029 0.39242 0.42573 0.68997 0.77616 0.98093 1.4461 3.8508 1.5258 6.5358l0.071 2.3929-6.899 5e-3c-3.7944 3e-3 -9.0893 0.0128-11.766 0.023-4.5632 0.0174-4.867-2e-3 -4.8621-0.31536z" stroke="#000" stroke-width=".0071428"/>
 </g>
</svg>
