<svg width="77.991mm" height="82.398mm" version="1.1" viewBox="0 0 77.991 82.398" xmlns="http://www.w3.org/2000/svg">
 <title>thinking_man</title>
 <g transform="translate(18.619 -12.38)">
  <g transform="translate(-67.136 -67.687)">
   <path d="m48.838 161.68c-0.41158-1.0725 0.20576-12.966 0.782-15.066 0.74328-2.7088 1.6018-3.5035 4.9027-4.5387 2.7759-0.87056 2.7964-0.88644 2.2397-1.7361-0.30901-0.47161-0.90728-1.7339-1.3295-2.805-0.72297-1.8342-0.74142-2.1996-0.3171-6.2796 0.32842-3.1578 0.69521-4.8231 1.3532-6.1435 1.4645-2.9391 7.2331-12.357 7.9587-12.994 0.36762-0.32252 1.6013-2.3029 2.7414-4.4008 2.3813-4.3816 5.4151-8.0302 8.2238-9.8907 13.336-8.8334 12.823-8.6092 18.706-8.1709 3.5697 0.26595 4.8111 0.22737 5.9825-0.18592 2.425-0.8556 5.7628-3.0689 9.3908-6.2271l3.4172-2.9747 1.8773 0.21516c2.7512 0.31533 5.1817 1.2465 6.2573 2.3974 1.7223 1.8429 5.8407 10.859 5.2362 11.464-0.11675 0.11675-0.50694 0.21227-0.86708 0.21227-0.43262 0-0.84582 0.53962-1.2177 1.5903-0.49184 1.3895-0.56664 1.4603-0.59245 0.56126-0.0295-1.0288-0.77789-1.5044-0.77789-0.49444 0 0.29399-0.29467 0.82674-0.65481 1.1839-0.36015 0.35714-0.99646 1.5899-1.414 2.7395-0.53626 1.4764-0.93581 2.0607-1.3606 1.99-0.96442-0.16064-1.1293 1.0109-0.30515 2.1683 1.8601 2.6123 3.0686 5.9402 3.1216 8.596l0.0517 2.5911-4.8628 4.8738c-2.6745 2.6806-4.9241 5.0577-4.999 5.2826-0.33653 1.0096 2.357 2.9536 4.8331 3.4881 4.1724 0.90076 9.3817 9.6593 7.6656 12.888-0.8072 1.5189-2.3652 3.0197-3.406 3.2809-0.51366 0.12892-2.0662 0.15919-3.45 0.0673l-2.5161-0.16715-2.058 1.7098c-1.1319 0.94037-3.405 2.9625-5.0514 4.4937-1.6464 1.5312-4.7614 4.2564-6.9223 6.056-2.1609 1.7996-4.1408 3.6219-4.3998 4.0494-0.46882 0.77395-0.57566 0.77738-24.24 0.77738-21.497 0-23.791-0.0575-24-0.60199zm46.652-35.153c0-0.16663-3.5136-5.8681-4.012-6.5102-0.07253-0.0934-1.3204 1.0186-2.7731 2.4713l-2.6412 2.6412 3.8712 0.75631c4.1452 0.80982 5.555 0.9726 5.555 0.64138zm17.625-9.7941c1.1532-0.68506 2.4738-1.647 2.9346-2.1375l0.83795-0.89195-1.0197-1.74c-1.0205-1.7414-1.925-2.5353-3.3808-2.9675-0.59442-0.17645-0.89765 0.0117-1.2941 0.80294-1.1971 2.3889-2.0155 2.5008-1.4145 0.19348 0.56755-2.1788 0.78144-3.4631 0.57676-3.4631-0.10274 0-0.66908 0.25153-1.2586 0.55896s-1.3588 0.56-1.7096 0.56126c-1.2946 5e-3 -1.6474 5.7475-0.54035 8.7955 0.37373 1.029 0.74459 2.082 0.82412 2.34 0.18183 0.58989 2.4119-0.25068 5.4442-2.0521zm-3.2803-11.484 1.8098-1.0347-0.8744-0.94032c-1.1283-1.2134-2.4203-1.699-3.7454-1.408-1.1421 0.25085-1.1341 0.13366-0.2501 3.6617 0.25439 1.0152 0.48803 1.3328 0.80438 1.0934 0.24522-0.18557 1.2603-0.80302 2.2557-1.3721z" stroke-opacity="0"/>
  </g>
 </g>
</svg>
