<?xml version="1.0" encoding="UTF-8" standalone="no"?>
<svg
   xmlns:dc="http://purl.org/dc/elements/1.1/"
   xmlns:cc="http://creativecommons.org/ns#"
   xmlns:rdf="http://www.w3.org/1999/02/22-rdf-syntax-ns#"
   xmlns:svg="http://www.w3.org/2000/svg"
   xmlns="http://www.w3.org/2000/svg"
   xmlns:sodipodi="http://sodipodi.sourceforge.net/DTD/sodipodi-0.dtd"
   xmlns:inkscape="http://www.inkscape.org/namespaces/inkscape"
   width="5.8557701mm"
   height="7.8219466mm"
   version="1.1"
   viewBox="0 0 5.8557703 7.8219467"
   id="svg3348"
   sodipodi:docname="user.svg"
   inkscape:version="0.92.3 (2405546, 2018-03-11)">
  <metadata
     id="metadata3354">
    <rdf:RDF>
      <cc:Work
         rdf:about="">
        <dc:format>image/svg+xml</dc:format>
        <dc:type
           rdf:resource="http://purl.org/dc/dcmitype/StillImage" />
        <dc:title>user</dc:title>
      </cc:Work>
    </rdf:RDF>
  </metadata>
  <defs
     id="defs3352" />
  <sodipodi:namedview
     pagecolor="#ffffff"
     bordercolor="#666666"
     borderopacity="1"
     objecttolerance="10"
     gridtolerance="10"
     guidetolerance="10"
     inkscape:pageopacity="0"
     inkscape:pageshadow="2"
     inkscape:window-width="1101"
     inkscape:window-height="805"
     id="namedview3350"
     showgrid="true"
     inkscape:zoom="16"
     inkscape:cx="2.9061843"
     inkscape:cy="25.939596"
     inkscape:window-x="0"
     inkscape:window-y="0"
     inkscape:window-maximized="0"
     inkscape:current-layer="svg3348" />
  <title
     id="title3324">user</title>
  <path
     inkscape:connector-curvature="0"
     style="stroke:#000000;stroke-width:0.01000304;stroke-opacity:1"
     id="path3326"
     d="M 2.5527057,5.8264444 C 2.3718343,5.7963072 2.0575066,5.7165206 1.7562545,5.6242853 1.4568124,5.5325988 1.4041905,5.510955 1.3014631,5.4372459 1.1932579,5.3596054 1.1826211,5.3215482 1.1857279,5.0232117 1.1884002,4.766357 1.2494383,4.2616883 1.309322,4.0012787 1.3559577,3.7985036 1.4369424,3.6069853 1.5204482,3.5020251 1.5961184,3.4069141 1.6867534,3.3500002 1.9744654,3.2169337 l 0.1706412,-0.078925 0.086,0.1021641 c 0.0473,0.05619 0.1421186,0.1448208 0.21071,0.1969571 0.1192969,0.09068 0.1324982,0.09642 0.3041846,0.1322133 0.1770193,0.036906 0.1817327,0.037019 0.345386,0.00821 C 3.2421778,3.5510032 3.269713,3.5403502 3.393433,3.4606767 3.468303,3.4124617 3.5759109,3.3245414 3.6325687,3.2652954 l 0.1030082,-0.1077169 0.1065212,0.046094 c 0.24984,0.1081089 0.4582464,0.2435836 0.5528051,0.3593502 0.1074307,0.1315259 0.1532103,0.2849848 0.2386905,0.8002466 0.039271,0.2366994 0.043741,0.2949143 0.045677,0.5949001 l 0.00215,0.3325238 -0.042217,0.064083 C 4.5881357,5.4322782 4.4688277,5.5161317 4.3288383,5.572913 4.214429,5.619311 3.8181053,5.7100317 3.4439453,5.775463 2.9689936,5.858526 2.8024078,5.868056 2.5526935,5.82645 Z" />
  <path
     inkscape:connector-curvature="0"
     style="stroke:#000000;stroke-width:0.00949526;stroke-opacity:1"
     id="path3328"
     d="M 2.7241143,3.5038544 C 2.519468,3.4350711 2.364648,3.2849304 2.244556,3.0388151 2.1582548,2.8619481 2.1153722,2.7172456 2.0705691,2.4516558 2.0301181,2.2118855 2.0271958,2.100387 2.056487,1.9142385 2.0977441,1.6520461 2.1866928,1.4640862 2.3335876,1.3287082 2.574543,1.1066439 2.9491268,1.0468058 3.2913544,1.1757208 c 0.1839367,0.069285 0.3501431,0.2334039 0.433039,0.4276232 0.077737,0.1821187 0.094831,0.278612 0.093579,0.5282429 -0.00251,0.5007943 -0.1650494,0.984933 -0.408579,1.2170186 -0.07634,0.072746 -0.2320179,0.1570602 -0.3256156,0.1763526 -0.1184241,0.02441 -0.2467209,0.016895 -0.3596687,-0.021068 z" />
  <path
     sodipodi:type="star"
     style="opacity:1;fill:#000000;fill-opacity:1;stroke:none;stroke-width:0.26458335;stroke-opacity:1"
     id="path3931"
     sodipodi:sides="8"
     sodipodi:cx="2.188672"
     sodipodi:cy="2.1321263"
     sodipodi:r1="0.21383305"
     sodipodi:r2="0.19755597"
     sodipodi:arg1="1.7761917"
     sodipodi:arg2="2.1688908"
     inkscape:flatsided="true"
     inkscape:rounded="0"
     inkscape:randomized="0"
     d="M 2.1450599,2.3414647 2.009809,2.2493125 1.9793337,2.0885142 2.0714859,1.9532633 2.2322842,1.922788 l 0.1352509,0.092152 0.030475,0.1607983 -0.092152,0.1352509 z" />
  <path
     sodipodi:type="star"
     style="opacity:1;fill:#000000;fill-opacity:1;stroke:none;stroke-width:0.26458335;stroke-opacity:1"
     id="path3931-3"
     sodipodi:sides="8"
     sodipodi:cx="-3.6779853"
     sodipodi:cy="2.1578553"
     sodipodi:r1="0.21383305"
     sodipodi:r2="0.19755597"
     sodipodi:arg1="1.7761917"
     sodipodi:arg2="2.1688908"
     inkscape:flatsided="true"
     inkscape:rounded="0"
     inkscape:randomized="0"
     d="m -3.7215973,2.3671936 -0.1352509,-0.092152 -0.030475,-0.1607983 0.092152,-0.1352509 0.1607983,-0.030475 0.1352508,0.092152 0.030475,0.1607983 -0.092152,0.1352509 z"
     transform="scale(-1,1)" />
  <path
     style="opacity:1;fill:#000000;fill-opacity:1;stroke:none;stroke-width:0.17456269;stroke-opacity:1"
     d="M 0,3.9407336 2.9056053,7.8219466 5.8557701,3.8812126 2.9501647,0 Z M 0.20787354,3.9505636 2.9573109,0.27795706 5.6476863,3.8716728 2.8982489,7.5442817 Z"
     id="rect3960"
     inkscape:connector-curvature="0" />
  <path
     sodipodi:type="star"
     style="opacity:1;fill:#000000;fill-opacity:1;stroke:none;stroke-width:0.26458335;stroke-opacity:1"
     id="path3967"
     sodipodi:sides="5"
     sodipodi:cx="2.6137504"
     sodipodi:cy="1.2143313"
     sodipodi:r1="0.15245862"
     sodipodi:r2="0.053360518"
     sodipodi:arg1="0.70862627"
     sodipodi:arg2="1.3369448"
     inkscape:flatsided="false"
     inkscape:rounded="0"
     inkscape:randomized="0"
     d="m 2.7295057,1.31355 -0.1033902,-0.047311 -0.070957,0.088842 0.013046,-0.1129497 -0.1064207,-0.040031 0.1114529,-0.022496 0.00519,-0.1135823 0.055836,0.099046 0.1096256,-0.030167 -0.076944,0.08371 z" />
  <path
     sodipodi:type="star"
     style="opacity:1;fill:#000000;fill-opacity:1;stroke:none;stroke-width:0.26458335;stroke-opacity:1"
     id="path3967-9"
     sodipodi:sides="5"
     sodipodi:cx="-2.5430931"
     sodipodi:cy="1.2143313"
     sodipodi:r1="0.15245862"
     sodipodi:r2="0.053360518"
     sodipodi:arg1="0.70862627"
     sodipodi:arg2="1.3369448"
     inkscape:flatsided="false"
     inkscape:rounded="0"
     inkscape:randomized="0"
     d="m -2.427338,1.31355 -0.1033902,-0.047311 -0.070957,0.088842 0.013046,-0.1129497 -0.1064208,-0.040031 0.111453,-0.022496 0.00519,-0.1135823 0.055836,0.099046 0.1096257,-0.030167 -0.076944,0.08371 z"
     transform="scale(-1,1)" />
</svg>
